<?xml version="1.0" encoding="UTF-8"?>
<svg id="_Слой_2" data-name="Слой 2" xmlns="http://www.w3.org/2000/svg" xmlns:xlink="http://www.w3.org/1999/xlink" viewBox="0 0 861.86 908.39">
  <defs>
    <style>
      .cls-1 {
        stroke: #ff7550;
        stroke-width: 12px;
      }

      .cls-1, .cls-2 {
        fill: none;
      }

      .cls-1, .cls-2, .cls-3 {
        stroke-miterlimit: 10;
      }

      .cls-4 {
        fill: #656565;
      }

      .cls-2 {
        stroke: #fff;
        stroke-width: 15px;
      }

      .cls-5 {
        fill: url(#_Безымянный_градиент_591);
      }

      .cls-3 {
        fill: url(#_Безымянный_градиент_1094);
        stroke: #656565;
        stroke-width: 6px;
      }
    </style>
    <linearGradient id="_Безымянный_градиент_1094" data-name="Безымянный градиент 1094" x1="92.32" y1="511.81" x2="753.3" y2="511.81" gradientUnits="userSpaceOnUse">
      <stop offset="0" stop-color="#f3f0ee"/>
      <stop offset="1" stop-color="#fff"/>
    </linearGradient>
    <linearGradient id="_Безымянный_градиент_591" data-name="Безымянный градиент 591" x1="401.92" y1="99.12" x2="784.8" y2="482.01" gradientUnits="userSpaceOnUse">
      <stop offset="0" stop-color="#ec3a53"/>
      <stop offset="1" stop-color="#f98379"/>
    </linearGradient>
  </defs>
  <path class="cls-1" d="m94.7,320.33l180.83-51.67c6.37-1.82,13.13-1.78,19.48.12l217.34,64.99c7.26,2.17,15.03,1.91,22.12-.75l148.28-55.54c22.69-8.5,46.89,8.28,46.89,32.51v438.62c0,15.52-10.31,29.16-25.24,33.4l-171.05,48.52c-6.82,1.94-14.07,1.73-20.78-.57l-219.93-75.74c-6.11-2.1-12.68-2.46-18.99-1.03l-162.59,36.88c-21.75,4.93-42.44-11.63-42.4-33.93l.85-402.49c.03-15.47,10.3-29.06,25.18-33.31Z"/>
  <path class="cls-3" d="m118.35,282.53l180.64-51.61c6.5-1.86,13.39-1.78,19.84.23l200.12,62.2c6.94,2.16,14.39,2.08,21.28-.22l167.37-55.79c22.48-7.49,45.69,9.24,45.69,32.93v440.53c0,15.52-10.31,29.16-25.24,33.4l-171.05,48.52c-6.82,1.94-14.07,1.73-20.78-.57l-219.93-75.74c-6.11-2.1-12.68-2.46-18.99-1.03l-162.59,36.88c-21.75,4.93-42.44-11.63-42.4-33.93l.85-402.49c.03-15.47,10.3-29.06,25.18-33.31Z"/>
  <rect class="cls-4" x="540.67" y="352.5" width="6.92" height="398.63" rx="3.46" ry="3.46"/>
  <path class="cls-5" d="m779.07,90.8C713.08,9.12,619.44.91,595.44.04c-2.7-.1-5.38-.03-8.07.21-24.21,2.2-113.53,14.6-179.11,94.23-62.89,76.37-60.91,162.32-58.45,190.56.39,4.45,1.23,8.83,2.5,13.11,15.7,52.82,41.86,121.22,86.65,194.15,34.16,55.62,71.03,100.63,104.88,136.09,26.21,27.46,70.13,26.96,95.63-1.16,30.18-33.28,62.39-73.96,92.94-122.65,48.8-77.79,77.49-150.74,94.77-206.69.76-2.47,1.36-4.95,1.83-7.49,4.31-23.75,16.36-117.54-49.94-199.6Zm-186.87,267.79c-66.79,0-120.94-54.15-120.94-120.94s54.15-120.94,120.94-120.94,120.94,54.15,120.94,120.94-54.15,120.94-120.94,120.94Z"/>
  <circle class="cls-2" cx="591.48" cy="237.55" r="160.7"/>
  <rect class="cls-4" x="305.97" y="281.37" width="6.92" height="398.63" rx="3.46" ry="3.46"/>
</svg>