<?xml version="1.0" encoding="UTF-8"?>
<!DOCTYPE svg PUBLIC "-//W3C//DTD SVG 1.1//EN" "http://www.w3.org/Graphics/SVG/1.1/DTD/svg11.dtd">
<!-- Creator: CorelDRAW 2019 (64-Bit) -->
<svg xmlns="http://www.w3.org/2000/svg" xml:space="preserve" width="1600px" height="800px" version="1.1" style="shape-rendering:geometricPrecision; text-rendering:geometricPrecision; image-rendering:optimizeQuality; fill-rule:evenodd; clip-rule:evenodd"
viewBox="0 0 1600 800"
 xmlns:xlink="http://www.w3.org/1999/xlink"
 xmlns:xodm="http://www.corel.com/coreldraw/odm/2003">
 <defs>
  <style type="text/css">
   <![CDATA[
    .fil0 {fill:#882F9E}
   ]]>
  </style>
 </defs>
 <g id="Layer_x0020_1">
  <metadata id="CorelCorpID_0Corel-Layer"/>
  <path class="fil0" d="M1581.45 656.96l0 106.7 -1577.09 0 0 -86.44 16.93 0 0.12 -84.11 32.26 -0.12 0.01 -8.05 4.18 -0.52c1.31,1.77 0.69,3.19 1.88,5.59l45.71 0.07c-0.03,-5.62 -1.18,-15.3 0.25,-20.55l0.61 -1.42c0.06,-0.17 0.21,-0.46 0.37,-0.66 6.35,1.42 -1.22,1.88 4.29,3.36l0.39 -27.17 -8.57 1.27 -0.17 -7.75c4.18,-0.54 7.64,-1.78 10.97,-2.55l0.15 36.18c5.2,-1.03 -0.54,0.46 2.85,-2 1.26,-0.92 -2.46,-1.4 3,-1.05l0.04 22.16 44.31 -0.03c4.37,-1.87 -0.22,-1.05 2.82,-5.16l4.13 0.13 0.28 9.13 32.59 0.08 0.21 83.97 18.15 -0.03 0.54 -7.68 10.87 -0.38 2.36 -108.1c-0.33,-0.11 -0.74,-0.46 -0.9,-0.22 -0.15,0.25 -0.61,-0.16 -0.83,-0.22 -0.23,-0.06 -1.35,-0.33 -1.66,-0.42 -0.28,-0.08 -0.54,-0.14 -0.82,-0.22l-2.33 -0.79c0.12,-7.7 0.83,-2.85 2.09,-4.03 0.3,-0.28 3.13,0.98 2.27,-4.33 -1.34,-8.34 -4.41,3.66 -3.91,-9.34l6.41 -0.17c0.35,-7.46 2.22,-33.81 0.84,-39.15 -3.62,-14.1 -1.59,-7.79 0.86,-15.55 2.67,-8.46 -4.57,-8.96 -0.63,-17.42 4.11,-8.86 0.16,-9.49 0.26,-16.05 0.06,-3.91 1.88,-3.43 2.18,-7.66 0.31,-4.32 -1.36,-4.67 -1.03,-8.04 0.28,-2.91 1.33,-3.8 1.48,-8.71l-2.37 -27.26c0.04,-5.58 0.18,-3.66 -1.29,-7.94 -1.05,-3.08 -0.71,-5.39 -0.71,-8.96 0.01,-8.27 -0.97,-10.13 6,-13.02 0.04,-4.02 0.67,-6.8 -2.04,-9.51 1.6,-3.02 3.62,-3.85 2.16,-12.17 -0.94,-5.36 0.77,-7.32 0.55,-16.36l1.2 -29.67c0.16,-6.47 -1.05,-16.31 1.05,-21.61 1.24,9.75 0.26,21.93 1.84,31.91 0.94,5.95 -0.91,25.14 1.04,30.35 2.59,6.91 0.58,-0.47 -0.3,7.2 -0.06,0.54 0.02,5.14 0.11,5.64l2.46 4.71c-0.18,0.17 -0.48,0.17 -0.55,0.52 -0.47,2.38 -2.08,0.03 -1.28,8.87 9.63,4.16 7.25,7.95 7.1,17.92 -0.17,11 -2.77,-0.06 -2.75,11.18 -0.76,2.66 -0.28,0.99 -1.02,1.81 -0.13,0.15 -0.35,0.38 -0.5,0.53l-1.21 0.96c-0.15,0.12 -0.47,0.28 -0.68,0.45l1.82 37.04c-1.9,9.36 3.6,7.29 1.11,15.25 -3.58,11.43 1.61,9.93 2.09,16.32 0.48,6.51 -5.8,7.81 -1.14,15.22 4.8,7.64 0.81,9.89 -0.47,14.98 -0.91,3.62 0.6,32.26 0.84,38.22l6.39 0.21c0.87,7.39 -2.31,5.99 -2.82,9.21 0.19,11.02 4.48,-3.13 4.02,10.26l-6.54 0.09 2.55 108.66 8.53 0.06 0.06 27.09c3.37,-1.63 5.88,-4.84 9.41,-6.89l0.01 -16.31c2.19,-1.34 5.38,-3.85 7.1,-5.65l-0.06 -32.83c3.29,-5.88 5.52,0.91 7.45,-8.94l14.34 -68.21c1.58,-7.41 3.06,-14.07 2.98,-21.5 -0.04,-4.07 -0.97,-5.11 1.86,-6.17 2.92,0.95 2.04,0.73 2.11,5.2 0.23,15.32 4.22,30.45 7.12,45.34 3.22,16.58 6.02,33.78 9.87,50.17l6.97 2.4 0.05 32.69c0.54,2.37 4.44,4.13 6.38,5.81l-0.08 14.48 17.22 5.8c-0.13,9.72 -2.13,18.23 2.93,18.4l0.64 -22.9c1.41,-6.89 2.9,2.85 3.02,-9.38 -0.19,-0.14 -0.54,-0.5 -0.63,-0.31l-3.85 -1.57c0.87,-7.46 5.77,-9.94 13,-11.09 0.05,-7.82 -2.71,-9.45 -2.63,-15.07l7.27 -0.12c0.3,-8.55 1.56,-28.65 -1.25,-36.25 -1.51,-4.07 -1.94,-6.48 -0.67,-10.78 3.35,-11.37 11.73,-13.11 7.41,-28.78 -1.89,-6.82 -0.38,-9.89 -2.94,-13.07 -1.78,-2.23 -1.01,-5.16 -2.35,-6.93 -8.31,-6.06 -13.84,-8.83 -6.5,-22.27 4.3,-7.88 10.4,-13.49 16.41,-18.32 18.17,-14.57 8.15,-47.88 13.43,-54.17 2.92,3.81 1.68,29.01 6.56,43.2 3.06,8.91 4.68,9.08 9.82,14.59 1.82,1.96 4.21,3.83 6.08,6.1 1.73,2.09 3.39,5.12 5.64,7.21 4.48,-9.3 9.63,-15.57 16.43,-22.81 6.65,-7.07 10.63,-7.84 11.84,-28.54 0.39,-6.63 -2.36,-21.2 1.84,-25.44 5.99,6 -3.98,40.15 10.46,47.08 0.2,-11.54 1.37,-7.58 2.29,-13.29 0.17,-1.07 0.18,-4.36 0.2,-5.6 0.13,-10.93 -5.61,-7.87 -7.21,-14.12 8.08,-0.72 6.47,1.46 9.05,-6.75 2.99,-9.53 20.86,-57.99 20.52,-61.77 -0.38,-4.22 -1.19,-1.08 -2.74,-4.4 -2.5,-5.36 2.76,-0.78 2.63,-13.34 -0.03,-2.94 -0.04,-5.88 -0.08,-8.82 -13.4,-4.36 -1.42,-15.15 1.7,-22 5.27,-11.6 1.87,-25.06 4.48,-32.02 1.21,1.31 0.68,0.07 1.2,2.79 1.88,9.77 -1.07,17.77 3.79,28.74 3.92,8.86 15.31,15.9 1.85,23 0.07,21.71 1.51,12.57 3.04,19 0.92,3.87 -1.92,3.69 -2.76,5.75 -0.08,0.18 -0.18,0.44 -0.22,0.63 -0.53,2.17 -0.18,-0.6 -0.1,1.41 0.03,0.62 0.5,2.15 0.76,2.94l13.83 40.69c2.62,7.55 4.53,17.77 8.53,23.64l6.43 0.55c-1.24,3.54 -4.64,4.33 -6.32,7.52 -1.84,3.51 -0.83,9.59 -0.7,14.1l3.37 1.54c-0.38,7.99 1.37,6.7 2.17,12.58 0.43,3.14 -0.39,4.56 0,7.28 0.37,2.62 1.3,2.28 1.5,5.91 0.15,2.55 -0.44,3.13 -0.11,5.3 0.52,3.4 1.17,0.91 1.02,5.7 -0.32,10.08 -0.16,3.49 4.7,8.63 -0.85,5.14 -1.63,2.15 -2.76,6.57 1.95,3.23 3.14,-0.66 3.66,3.83 0.4,3.52 -2.69,2.2 -3.89,4.62 0.11,0.21 0.43,0.2 0.51,0.53 0.08,0.32 0.4,0.4 0.51,0.52 0.1,0.12 0.37,0.37 0.49,0.52 1.4,1.75 0.75,-0.08 1.44,2.37 0.31,1.09 0.19,5.88 0.23,7.4 3.22,1.2 6.65,3.82 8.28,6.71 1.95,3.45 0.89,10.8 4,12.47 2.38,-1.73 1.3,0.85 1.76,-4.15 0.11,-1.26 -0.08,-4.22 -0.07,-5.72 2.21,-1.36 5.02,-0.02 5.55,-2.82l0 -22.53c-0.46,-2.45 -2.14,-1.82 -3.84,-3.75 1.1,-2.07 2.48,-1.64 3.57,-3.76 -5.86,-6.43 -11.77,-7.79 -4.98,-18.65 3.51,-5.61 9.23,-10 13.87,-16.17 4.22,-5.61 6.73,-12.97 7.6,-21.52l1.89 -28.27c2.76,2.03 1.38,8.38 1.44,12.33 0.66,41.5 9.04,33.7 21.78,52.82 4.78,7.18 4,12.66 -2.46,17.68 -1.55,1.2 -0.82,0.47 -2.05,1.78 0.89,2.18 -1.04,-0.92 1.86,1.94 1.48,1.47 0.82,-0.52 1.77,1.82 -4.06,4.39 -5.02,-1.25 -3.84,26.28l5.66 1.97c0.08,6.53 -0.51,6.05 3.48,9.82 2.52,2.39 3.95,4.07 5.22,7.88 3.03,9.14 -1.16,15.19 -1.14,24.43 0.02,8.27 -1.61,49.49 1.13,53.28 2.18,-2.65 0.26,-3.19 2.82,-4.91 3.34,1.62 0.86,3.64 3.75,5.02 1.31,-2.15 0.45,-1.72 0.98,-2.69 1.29,-2.34 -0.63,-1 1.84,-2.35 1.85,1.25 1.47,3.31 2.82,5.09 0.16,-0.19 0.3,-0.8 0.35,-0.66l2.46 -4.41c3.56,1.58 0.96,3.51 3.76,5.16l0.52 -1.41c0.89,-2.02 0.5,-2.69 2.29,-3.74 1.84,0.99 1.81,2.31 2.59,4.43 0.06,0.16 0.1,0.5 0.23,0.71 4.28,-2.15 -1.41,-2.57 5.39,-5.62 1.38,-28.79 0.25,-60.98 0.22,-90.12 -0.01,-12.19 2.84,-33.02 -2.99,-42.04 -4.58,-7.11 1.54,-29.78 3.41,-38.43l6.89 26.08 7.45 -0.08 0 -15c1.12,-0.82 0.45,-0.37 2.16,-1.07 1.17,-0.48 0.76,0.04 2.39,-0.81l0.1 -37.54 4 -1.88c0.2,-5.46 0.84,-12.31 -0.91,-16.88 -3.35,-8.78 0.46,-6.12 1.03,-13.11l-0.05 -13.16c-1.04,-4.99 -2.04,-0.64 -3.11,-5.66 -0.1,-0.47 -0.1,-3.96 -0.09,-4.66 0.05,-3.21 0.02,-6.33 0.23,-9.53 2.24,2.67 1.84,5.15 4.86,6.5 3.34,-3.59 -0.27,-12.14 1.88,-16.11 1.89,4.21 1.08,6.57 3.75,9.86l5.79 0.06c0.89,-9.5 10.41,-88.23 12.05,-90.86 3.47,0.67 2.38,0.92 3.3,8.63l4.38 34.98c1.96,15.41 4.06,31.11 5.86,46.74l6.16 0.51 3.44 -9.69c0.67,4.74 -0.7,12.22 1.26,15.79 3.69,-0.64 3.14,-2.97 5.31,-6.81 0.45,3.18 1.02,13.44 -0.14,16.02 -3.18,7.07 -2.9,-1.56 -2.69,15.51 0.07,5.92 3.53,8.38 1.43,14.15 -1.47,4.06 -3.56,15.66 0.14,18.25l2.51 1.35 0.01 37.54c5.96,2.63 4.63,-3.28 4.63,16.97l7.62 0.04c0.74,-5.69 4.26,-21.71 6.54,-25.56 1.55,6.21 2.55,12.47 3.85,18.77 1.49,7.21 3.05,13.48 -0.53,19.37 -4.33,7.11 -2.23,33.05 -2.23,43.64 0,17.03 -1.38,80.88 0.31,92.44 1.72,-0.61 1.45,-2.61 3.28,-3.73 2.58,1.44 -0.07,-0.66 1.57,1.56 0.32,0.44 0.51,1.21 1.25,2.27 2.02,-0.87 1.22,-2.65 3.75,-3.85 3.56,2.62 -0.06,0.59 2.82,3.9 2.9,-3.53 -0.82,-1.4 2.82,-3.87 2.48,1.15 0.61,0.47 2.14,2.1 1.8,1.93 -0.92,0.68 1.61,1.72 1.24,-1.92 0.85,-2.79 2.82,-3.86l2.81 3.86c0.18,-0.22 0.36,-0.9 0.44,-0.73 0.02,0.05 1.2,-2.62 3.32,-3.11l2.82 3.83 2.81 -3.82c2.63,1.37 0.08,-0.56 1.64,1.56 0.05,0.07 0.8,1.65 1.18,2.26 2.13,-0.83 1.24,-2.62 3.75,-3.82 3.56,2.62 -0.16,0.59 2.82,3.87 2.99,-3.36 -0.74,-1.29 2.82,-3.86 2.62,1.17 1.81,2.94 3.75,3.84 1.63,-2.31 0.64,-2.62 2.82,-3.83 1.86,1.1 1.05,1.47 2.81,3.83 3.7,-1.79 -0.61,-0.52 2.82,-3.86 1.73,0.42 1.87,1.07 2.92,2.42l0.95 1.42c-0.16,-12.01 -1.11,-25.36 1.89,-36.11l1.29 7.84c3.09,-1.69 1.25,0.93 2.38,-3.21 1.16,-4.22 0.41,-9.98 1.83,-14 2,3.84 0.29,14.83 3.76,17.32 2.16,-2.85 0.52,-4.54 1.88,-7.73 5.02,9.3 -0.22,25.25 4.69,36.34 2.69,-1.11 -1.61,2.1 1.41,-1.45 1.37,-1.62 0.37,-1.74 2.35,-2.82 2.41,1.35 1.76,-1.81 1.85,4.34 6.59,-1.27 -1.31,-2.69 4.72,-4.37l2.42 3.74c0.1,0.17 0.22,0.51 0.39,0.72 0.15,-0.22 0.28,-0.88 0.34,-0.73 0.45,1.03 0.95,-2.68 2.48,-3.7 3.53,1.67 0.79,2.79 3.75,4.3 1.06,-2.27 0.66,-3.25 2.82,-4.32l1.76 2.34c1.76,1.95 -0.91,0.95 2.4,2.12 0.06,-4.2 -0.78,-2.92 1.47,-4.46 5.57,1.52 -0.84,1.42 4.01,4.48 -0.03,-8.37 -1.23,-54.39 0.69,-58.23 1.06,1.26 0.33,-0.56 0.86,1.9 0.7,3.19 -0.61,6.97 1.01,9.61 1.54,-2.45 0.4,-5.82 0.88,-8.84 0.05,-0.28 0.1,-0.53 0.16,-0.78l0.84 -1.95c1.52,2.48 0.86,7.87 0.86,11.49 7.29,-1.09 1.21,-5 8.53,-7.28 3.28,2 2.82,4.3 4.69,7.27l5.73 0.09c-0.04,-3.28 -0.71,-8.11 0.84,-10.4 2.39,3.4 -0.54,6.06 1.88,9.69 3.14,-1.12 1.64,0.24 2,-4.41 0.23,-3.11 -0.83,-2.74 0.82,-5.34 1.81,2.23 0.99,6.78 1.3,10.57l5.94 0.11c1.17,-4.06 1.36,-5.35 4.02,-7.19 8.15,1.66 0.61,7.15 9.11,6.35 0,-3.45 -0.53,-8.59 1.22,-10.72 1.52,2.37 0.76,2.21 0.87,5.21l0.71 5.18c0.05,0.18 0.16,0.49 0.3,0.72 1.8,-3 0.26,-7.56 1.87,-10.45 1.36,1.52 0.34,-0.67 1,1.97 1.49,5.96 -0.72,29.78 -0.35,38.4 0.26,6.02 -0.61,3.65 2.17,4.99 4.12,-1.82 1.58,-1.57 2.58,-10.13 1.98,-17.02 3.44,-10.89 3.2,-34.4l4.57 -1.88 4 -13.8c1.23,2.79 1.67,5.52 2.29,8.38 0.83,3.84 1.39,5.14 4.28,6.94 0.13,0.08 0.45,0.2 0.64,0.36 0.01,27.65 -1.63,11.28 5.18,32.46 1.58,-13.17 0.23,-49.68 0.23,-65.32 0.01,-10.48 -0.74,-22.63 -0.12,-32.9 0.34,-5.69 2.8,-7.78 3.2,-13.08 0.36,-4.72 -1.28,-12.25 0.93,-15.75 3.03,1.79 1.29,10.24 1.4,13.9 0.13,4.12 1.23,9.84 5.17,11.66 2.88,-3.99 2.28,-8.64 9.36,-8.24 6.8,0.39 5.4,5.7 9.42,8.21 5.81,-4.19 4.77,-12.81 4.72,-19.27 -0.03,-3.93 -0.95,-5.09 1.85,-6.08 1.65,3.25 0.6,8.91 0.63,12.78 0.08,7.98 1.74,6.17 3.44,11.8 1.45,4.81 0.56,22.57 0.48,28.84l14.26 0.11c-0.01,-6.73 -1.05,-82.35 0.07,-84.95 1.2,-2.79 1.13,2.01 1.69,-4.59 0.49,-5.81 -2.32,-17.06 1.02,-21.42 3.75,4.05 -0.04,17.78 1.3,23.23 0.5,2.01 0.48,-0.1 1.74,1.76l0.77 1.28c0.85,1.98 0.5,3.41 0.66,5.67l8.51 0.45 0.49 -6.35c3.56,-1.56 2.16,0.8 5.08,-1.87l0 -54.5c-0.03,-2.81 -0.11,-5.67 1.16,-7.05l0.65 10.34c8.43,-1 0.32,-1.57 6.02,-3.43 0.19,-0.06 2.67,-0.29 3.14,-0.34 1.47,-10.89 4.34,-9.89 5.06,-14.53 2.29,-14.57 -1.47,-44.56 3.63,-56.18 4.53,16.66 0.57,39.01 3.41,56.11 0.8,4.8 4.05,4.92 4.96,14.51l6.1 2.33c0.18,0.15 0.4,0.37 0.56,0.52 4.25,3.68 -3.15,-0.86 1.2,1.02 1.18,-1.52 0.53,0.02 1.13,-2.41 0.31,-1.24 0.26,-1.48 0.36,-2.75 0.18,-2.36 -0.5,-2.72 0.39,-5.16 0.16,0.15 0.33,0.23 0.37,0.53l0.91 30.01c0,10.24 -0.5,21.85 0.16,31.92l5.07 0.54 0.12 6.69 8.76 -0.14c0.14,-3.49 -0.23,-5.79 2.06,-8.12 3.42,-3.47 -1.57,-19.44 2.27,-24.09 2.48,2.66 1.32,9.24 1.31,12.91 0,2.43 -0.15,5.24 -0.07,7.6 0.2,6.7 0.5,2.85 1.62,5.45l-0.07 85.54 13.7 -0.06c0,-7.08 -0.78,-22.22 0.39,-27.99 2.01,-9.83 2.78,-7.62 2.72,-18.95l1.05 -6.75 1.46 6.75c-0.03,5.36 -1.2,16.48 5.11,19.03 2.73,-3.85 2.37,-8.77 9.29,-8.46 7.03,0.32 5.52,6.25 9.48,8.46 2.15,-1.57 0.38,0.24 1.87,-2.09l2.85 -8.42c0.35,-4.62 -1.16,-11.61 0.92,-14.97 2.59,1.43 1.67,3.54 1.6,7.38 -0.31,16.04 4.07,13.1 4.01,24.43l0.17 111.64c0.51,2.52 0.16,1.17 0.79,2.3 7.9,0.09 3.79,0.61 5.63,-4.91l14.88 -0.27 0.19 -234.31 7.43 -0.08 0.15 -7.37 10.14 -0.1c0.49,-6.6 2.46,-13.98 5.35,-19.29l58.91 -0.14c11.89,26.91 7.61,123.52 7.89,158.26l3.96 -0.12c2.01,-3.83 0.89,-101.19 0.75,-114.47 0.2,-0.17 0.59,-0.55 0.69,-0.36 0.1,0.19 0.53,-0.27 0.65,-0.36 3.62,-2.61 2.22,-2.87 2.17,-10.54l-0.11 -46.95 -4.03 -1.87 0.08 -66.38 13.84 -0.24 0.03 -9.68 23.29 0.01c-0.3,18.74 3.9,1.04 3.82,21.84l0 229.08 10.04 -0.16c0.28,-30.87 -2.35,-16.32 -3.3,-22.4l1.88 -77.02c1.91,-1.34 0.86,0.41 2.02,-1.83l0 -157.42 10.3 -0.21 0.16 -9.06 27.46 -0.11 0.35 10.26 5.99 0.22 1.61 85.85c1.9,1.73 2.14,2.6 2.2,5.59l-0.1 68.63c-0.03,5.81 -3.53,3.65 -4.11,6.58l0.03 69.34 8.57 0.04 0.11 -65.56c7.49,-0.36 14.39,3.48 19.59,6.44 2.76,1.57 5.78,3.63 7.96,5.15 4.08,2.84 3.94,3.15 5.16,8.91 3.2,15.1 5.4,31.14 6.37,47.07 2.19,36.1 0.36,67.74 -2.23,103.38l11.81 -0.02c0,-21.37 0,-42.67 0.01,-63.98 0,-12.46 -0.47,-17.67 5.75,-26.12 3.46,-4.68 12.05,-10.12 19.75,-12.09 0.87,-67.88 0.3,-136.07 0.03,-203.99 -0.04,-9.61 -0.48,-10.2 4.9,-15.51 17.99,-17.75 64.91,-9.77 79.2,4.42 4.01,3.98 2.65,9.38 2.65,16.72l0 226.24c0,26.21 -1.46,56.87 0.16,82.54l10.16 -0.15 0.21 -190.17c52.78,-2.94 43.5,35.27 43.5,78.68 0,40.6 0.54,81.57 -0.04,122.13l14.86 0.22z"/>
 </g>
</svg>
