<?xml version="1.0" encoding="utf-8"?>
<!-- Generator: Adobe Illustrator 27.4.1, SVG Export Plug-In . SVG Version: 6.00 Build 0)  -->
<svg version="1.1" id="Слой_1" xmlns="http://www.w3.org/2000/svg" xmlns:xlink="http://www.w3.org/1999/xlink" x="0px" y="0px"
	 viewBox="0 0 364.9 456.9" style="enable-background:new 0 0 364.9 456.9;" xml:space="preserve">
<style type="text/css">
	.st0{fill:#856B8C;}
	.st1{font-family:'ArialMT';}
	.st2{font-size:9px;}
	.st3{opacity:5.000000e-02;fill-rule:evenodd;clip-rule:evenodd;}
</style>
<text transform="matrix(1 0 0 1 109.8105 408.1741)" class="st0 st1 st2">и </text>
<g>
	<g>
		<path class="st3" d="M90.7,242.2l1.7,2.9l3.6,19.5c-4.5-2.4-9.1-0.8-11.3-7.2c-2-6.1-1.4-9.2-1.4-16.8v-0.3v-1.4l0.3-0.4l-0.3-0.7
			v-8l1.8,1.7l3.4-1L90.7,242.2z M89,263.9v2.3c0,2.1,10.6,4,13.3,3.6L89,263.9z M113.5,266.7l0.2,4.6l-0.2,1.7
			c-1.9-0.4-5.3-2.3-5.7-2.3h-1.7v-1.1h1.7c1.1,0,1,0.2,1.6,0.4L113.5,266.7z M112.4,289h1.1v8h-1.1V289z M158.1,296
			c-0.4,3.3-6,2.2-9.8,2.7s-7.5,1.1-10.9,1.7c-7,1.1-15.6,1.9-22.1,2.4v-1.7L158.1,296z M159.8,297.6v-1.1l7.9,2.5l0.1,1.5
			L159.8,297.6z M102.7,290.8h1.1v7.4h-1.1V290.8z M99.3,294.2c0-1.9,0.3-1.9,1.1-2.9v7.4h-1.1V294.2z M83.3,294.8h1.1v4.6
			c0,1.6-0.2,1-1.1,1.7V294.8z M89.6,292.5h1.1v8h-1.1V292.5z M113,301.5c-1.1,3.6-24.2,3.4-29.7,4.7v-1.1L113,301.5z M121,306.2
			L121,306.2c7.5,0,12-1.7,18.3-1.7c3.3,0,16.4-1.5,17.1-3.4h-1.7C150.3,301.1,122,304.7,121,306.2 M157.5,302.8l6.3,1.7v-1.2
			l-6.3-1.7V302.8z M113.5,303.3l-1.6,1.3l-28.6,2.8v1.6l30.3-3.3L113.5,303.3z M113,306.8v9.1l-29.7,3.6v-9.9l2.3,0.2L113,306.8z
			 M125,313.1c0-1.5,0.3-1.6,0.6-2.9l0.7-0.1l1.4,6.9l1.4,0.1v-2.9c0-2,0.4-2.2,0.6-4h1.1l0.7,6.8c0,0.6-6.5,4.6-6.4,14.3
			c0,3.6,1.3,18.9-1.7,18.9h-2.9v-25.1l0.9-14.3h1.4l0.7,5.1l-0.1,1.7h1.7v-4.5H125z M133,321.6c2.1,1.4,3.7,4.3,4,7.4h-4V321.6z
			 M128.4,329.6h3.4v-7.4C130,323.4,128.5,326.7,128.4,329.6 M145.5,328.5h4v13.7h-4V328.5z M141,329.1h3.4v13.7l-3.4,0.6V329.1z
			 M134.7,330.2H133v13.1h4v-12C137,328.9,136.1,330.2,134.7,330.2 M131.8,330.2l-3.4,0.7v13h3.4V330.2z M145.5,343.3h4v3.4l-4,0.6
			V343.3z M157.5,304.5l6.2,1.3v42.7l-6.3-1.7L157.5,304.5L157.5,304.5z M141,343.9h3.4v3.4l-3.4,0.6V343.9z M133,344.5h4v2.3
			c0,1.3-0.4,1.7-1.7,1.7H133V344.5z M131.8,344.9l-3.4,0.7v3.4l3.4-0.5V344.9z M121,360.9v-5c0-3.5,31.6-4.1,36-5.1v7.5L121,360.9z
			 M129.5,363.5l25.1-1.5l10.3,0.2c-1.4-5.3-37.3,0-45.1,0c0.7,0.9,0.1,1.1,1.7,1.1L129.5,363.5z M61.6,253.6
			c1.5-1.3,3.4-3.8,5.1-2.9c-1.5,2.2-2.5,7.9-5.1,8.6V253.6z M49,274.2v9.8l2.9,1.7h-4.4l-0.7-26.9v-1.7h2.3l9.7-1.1v2.9v4.6
			L48,264.6c-1.8,3.9,4.3,1.1,8.6,1.1l-3.7,3.3l-0.3,2.4L49,274.2z M58.7,271.9L58.7,271.9c1.3-0.8,12.4-1.9,15.3-2.4
			c2.3-0.4,5.5-0.5,8.1-1c4.1-0.9,5.7,0.8,5.8-3.3l-32,5h-1.7v1.7h3.4L58.7,271.9L58.7,271.9z M38.2,290.8l44-5.7v-1.2h-2.9
			l-6.8,1.3c-0.6-0.1-1.2-0.5-2.3-0.7l-8,2.3l-14.8,1.7L38.2,290.8z M18.8,275.9l15.9-1.8l9.2-5l0.6,5.7l-17.2,2.9h-4L13,278.8
			l-9.2,1v-1.6L18.8,275.9z M147.2,373.6H141c-1-3.8-8.5-8-13.7-8v-1l24.5-0.7C151,367,147.2,367,147.2,373.6 M147.8,321.1
			L147.8,321.1c4.4,3.2,2.9,18.5,2.9,26.3h1.1c0-12.3,2.5-27.4-7.8-30l-5.1,6.9l-6.5-6.1l-0.6,0.6c-7.9,5.3-5.7,17.9-5.7,30.9h1.1
			c0-5.7,0-11.4,0-17.2c0-8.4,1.6-8.1,4.6-12.6c3.7,1.8,6.3,4.3,6.3,9.7v18.9h1.7v-20c0-1.5,0.3-1.6,0.6-2.9v-1.7l4.3-5.4
			L147.8,321.1z M145.5,327.9v-7l1.7,0.7l2.3,5.7h-2.3C146.1,327.3,146.2,327.5,145.5,327.9 M144.4,327.9h-2.9
			c0-3.5,0.8-5.5,2.9-6.9V327.9z M67.9,250.2l-0.6,1.7L58.2,267l27.4-4.8c-1-4.4-3.4-3.1-3.4-12c-0.1-5.7-0.3-10.6-0.5-15.5
			c-0.4-10.1,0-21.2,0-31.4l-0.9,0.1l-3.1,10.9l-11.4,1h-1.7l-1.2-28.6l-1.1-19.4c-4.8,0-5.2,9-6.3,12.6c-1.4,5-2.4,10.3-3.9,15
			c-3.1,9.3-5.5,20.2-8,29.7c-2.5,9.6-5.2,20.1-8.5,29.2c-2,5.5-3.5,7.6-7.2,11.7c-2.7,3-12.3,7.6-7.2,7.7c6.5,0,23.4-1.5,23.4-7.4
			v-9.9h-2.3c-4.5,0,5.3-7.4,6.3-8l8-1.7l6.3-1.1l5.1-0.6h1.7c-0.5,2-1.1,1.9-1.1,4C68.4,250.9,68.5,249.7,67.9,250.2 M83.3,214.8
			c0-1.6,0.4-1.4,1.7-1.7c0.5,2,1.1,1.9,1.1,4c0,2.2,0.4,1.1,0.6,3.4l-1.7-0.7l-1.7,1.3V214.8z M349.9,259.9l10.8,11.4l-11.4-9.7
			l-22.3,2.7l-0.6-2.1L349.9,259.9z M349.9,354.2v4.6c0,1.6-0.2,1.1-1.1,1.7v-10.9C350.2,350.7,349.9,352.6,349.9,354.2L349.9,354.2
			z M347.6,372l6.7,0.3l-3.4,3.4V375L347.6,372z M199.8,451.9c0.7-2.7,2.4-2.8,4.6-4c1.9,1.3,3.9,1.5,4.6,4c-1.6-1.1-2-2.3-4.6-2.3
			C201.7,449.6,201.4,450.9,199.8,451.9 M200.3,454.2L200.3,454.2c2-0.5,1.9-1.1,4-1.1c2.7,0,2.3,1.1,4.6,1.7
			c-0.7-1-1.8-2.9-3.4-2.9h-2.3C201.6,451.9,201,453.2,200.3,454.2 M207.2,455.9c-2.7-0.1-2.2,0.6-2.9-1.7l2.8,0.7L207.2,455.9z
			 M113,453.6h7.4l-0.5,3.9h4c1.4-8.6,10.1-14.1,18.2-14.1h2.3c15.3,0,25.3,12.6,20,13.1c-0.5-5.5-11.2-11.4-17.7-11.4h-2.9
			c-4.6,0-10.7,2.4-13.1,4.6l-5.1,5.7l-0.8,2.1h1.1l0.2-2.1l0.9-0.2l4.2-4.9l11.8-4.6l0.2,0.6v11.3h2.9v-11.3h1.7
			c4.7,0,14.4,5.5,14.8,10.3h-2.9c-2,0-3.9,0.5-5.8,1h17.5l-1.9-0.6l-1.2-5.6l-3.4-4.6l-0.6,0.6l2.6,3.8c-3.5-1.9-4.1-4.8-9.7-7.5
			c-3.8-1.9-8.6-2.6-14-2.6c-6.9,0-16.1,5-18.8,9.1l-1.9,3.3l-2.1-0.5l0.5-5.1v-1.1c-1.5-0.7,0.5-0.6-1.7-0.6H113v-1.1h9.1v-5.2
			h-8.6v-1.1h6.9v-4.6c1.9-1.2,3.4,0.2,3.4-2.3v-4h-1.7H113v-5.7c-2.1,3.3-0.6,8.3-0.6,13.1l-0.6,21.1v1h1.1v-3.8H113z M200.9,455.4
			h2.9v1.1h-2.9V455.4z M253.4,440.5v10.3c-3.6-4.1-2.2-4.9-8-8l-0.7-2.8h4.7C251.4,439.9,251.6,440.4,253.4,440.5 M237,457.5
			c0.6-2.4,1.7-4.3,3.3-6.1l1.7-0.7l0.7-0.3l4.6,6.8l-0.5,0.3h3.1c-2.4-0.4-1.5-1.4-2.9-3.8c-1.1-1.8-2.4-2.8-3.9-4.1
			c4,0.1,7.6,4.3,8,7.9h1.6c-1.8-2.3-3.2-9-8.4-9c-1.9,0-4.3,1.2-5.1,2.3l-3.3,6.7L237,457.5L237,457.5z M274.6,295.9l1.5,1.4
			l0.2,0.9l1.5,20l-4.3-2l-0.1-1.5l1.7-14.3v-2.3l-6.8,0.7c-0.1-0.1-1.1-0.5-1.7-0.7c-3.1,0-5.6-0.8-4.6,1.7
			c-2.7,0.2-2.8,1.3-2.9-2.3l10.3-1.2L274.6,295.9z M261,303.6l0.4,4.3h4V301l-6,0.2L261,303.6z M252.9,311.3
			c-2.9-0.7-15.8-6.4-16.6-8.6c0.9,0.2,7.6,3.3,8.7,3.9C247,307.8,252.1,309.4,252.9,311.3L252.9,311.3z M269.4,301.6v5.1h3.9
			l0.6-6.9H271C269.8,299.9,269.4,300.3,269.4,301.6 M279.1,298.8h5.7v7.4h-5.1c-0.3-1.3-0.6-1.3-0.6-2.9V298.8z M254,311.3
			L254,311.3c0.3,1.3,0.6,1.7,0.6,3.4v5.7h2.3v-5.7c0-1.6,2.9-8.1,3.4-10.3H258C256,304.5,254.8,309.8,254,311.3 M303.5,299.3
			c1.2,0.7,5.3,3.5,5.3,4.6v4.6l-6.2-2.8L303.5,299.3z M300.2,297.6h1.1v8.6h-1.1V297.6z M272.8,307.9l-3.4,0.7v2.1h-2.3
			c-1.6,0-1.4-0.4-1.7-1.7H262c0.6,2.2,7.5,5.7,10.3,5.7v-2.8C272.3,309.9,272.7,309.7,272.8,307.9 M295.6,306.2l4,1.4l0.1,22.6
			h-0.3L295.6,306.2z M288.8,306.8h2.9v1.7l-2.4,15.4h-1.6l-3.3-2.5l-3.6-11l-0.7-3h4.2c2,0,0.9,1.1,2.9,1.1h1.7v-1.7H288.8z
			 M310,303.9h1.1v8.6c-0.8-1-1.1-1-1.1-2.9V303.9z M237.4,307.9l-0.6-1.1l-1.2,5.8l17.8,7.9l-0.7-5.1l-0.1-2.1l-3.3-1.4v2.3h-0.6
			v-2.9l-1.1,0.6v-1.2l-4-0.5v-1.1c-1.3,0.5-0.8,0.4-1.7-0.6v1.7l-1.1-2.3c-0.9-1-1-1.1-2.4-1.8l-0.5,0.7L237.4,307.9z M264.3,314.2
			l10.8,4.8l0.3-0.7l-11.1-5.2L264.3,314.2L264.3,314.2z M276.3,322.2l-13.7-6.9C263.3,317.2,273.4,322.1,276.3,322.2 M324.8,320.5
			L324.8,320.5c0.3-1.3,0.6-1.3,0.6-2.9v-2.3h-1.7v1.1l-3-1.1l0.6,1.6l-1.1,0.6v1.1h-2.3c-0.5-5.9-4.5-4.9-7.4-4.6
			c-3.8-5.7-3.5-6.2-9.7-5.7v33.1h0.9l0.4-16.6h1.3l0.3,14.3h1.1v-12.7l1.1,0.7v13.1h1.7v-12l1.2,0.1l2.1,19.7l-10.2-4.9l0.4,90.9
			h1.5h0.8l1.1-26.9l1.8-0.2l2.3,2.8l0.6-0.3l-1.1-17.2l-1.2,0.8l-3.8-1.9v-2.5l5.1,1.3c-0.7-1.6-2-1.2-4-2.3h-1.1l1.3-31.5h0.9
			l0.9,0.1l2,8l6.4-1.8l1.2,4.4l5.7-2.1l1.1,4.2l5.2-1.3l1.1,4.8l5.2-2l1.2,4.9l4.4-2l-0.1-11.9l-5.1-1.8v-16.7l1.7,0.7v12h1.1
			v-10.9h1.7v12.6h0.7l-1-16.7l-1,2.5l-2-2l-0.8,0.8l1.2-6.9h1.1l0.1,3.5l2.2-1.8c0-5.6,0.3-8.1-3.6-10.1c-3.5-1.8-1.5,0.5-4.6-2.3
			c-2.2-2-1.6-1.9-5.6-1.9L324.8,320.5z M245.7,320.3c2.7,1.5,9.2,2.7,9.5,5.9c-2.7-0.6-7.8-3.4-11.2-4.8c-2.4-1-9-3.3-9.3-6.1
			C237.2,316,243.2,318.9,245.7,320.3 M318.5,309.6h1.1v7.4h-1.1V309.6z M277.4,323.9v8h2.3v-4.6c0-1,2.4-8.3,2.9-9.1h-2.9
			C279,319.6,277.4,322.4,277.4,323.9 M258.6,315.9v3.4c0,1.6,1.3,2.2,2.3,2.9v-12.6h-1.1C259.6,312.8,258.6,312.8,258.6,315.9
			 M325.9,316.5h1.1v4h-1.1V316.5z M331.1,319.3v1.7l-2.9-0.6v-2.3C331.3,319.3,327.4,318.9,331.1,319.3L331.1,319.3z M335.1,323.9
			c-0.7-1-1.1-1-1.1-2.3v-1.7l4.5,2.4l-0.6,3.8l-4.1-1.8L335.1,323.9z M262.6,321.1v-2.3l0.7,1.1l2.2-0.7v1.3l1.1-0.6v1.2l1.7-0.7
			v1.3l3.4,1.1l3.4,1.2c0.3,2.7,1.2,2,1.2,4.5v2.9l-1.1-0.6l-13-5.9L262.6,321.1z M293.1,307.4l-2.6,17.7l4.7,1.7l0.1-4L293.1,307.4
			z M234.6,319.9l20.4,9.4l0.1,6.6l-20.6-9.1v-6.9H234.6z M216.9,322.8l11.9,4.2l0.1,4.3c0,1.6-0.4,1.4-1.7,1.7h0.6l0.8,43.4
			l-4.2-1.2l-1-6.2c-1.3,0.9-1.9,1.3-1.9,3.5v1.7l-4-1.2v-9.6l8.4,3.2l0.1-31.8c0-1.8-1.4-1.9-2.9-2.3v-4.6
			c-1.5-0.3-2.9-1.2-2.9,1.1v2.3l-2.9,1.1v10.4h-0.6v-20H216.9z M260.9,327.3c3.7,0.9,16.8,6.2,17.1,9.7c-1.8-0.2-7.8-3.2-9.5-4.2
			C266.1,331.4,261.1,330.4,260.9,327.3 M195.8,325.1c1.6,0.1,2.3,0,2.3,1.7v5.7l-2.3-0.6V325.1z M280.8,327.9v3.4
			c0,1.7,0.7,1.6,2.3,1.7v-10.3C282,323.6,280.8,326,280.8,327.9 M231.2,314.2h1.1v18.9h-1.1V314.2z M223.2,362.2h1.7v-27.9
			l-5.7-1.2c0.3,2.3,1.6,2.7,4,2.9V362.2z M228.3,334.8h1.7v-1.1h-1.7V334.8z M234.5,330.2l0.3,8l1.5-3.6l2.8,0.7v4
			c5.2,0.4,2.9,25.2,2.8,31.6l-7.9-2.5l0.4,23.5l4.1-17.2h1l4.7,21.1l4.5-19l0.8,0.1l4.4,20v-52h1.1v-6.2L234.5,330.2z M231.6,335
			l1.9-0.2l-0.1,1.3L231.6,335z M285.4,330.2l-1.1-0.6l0.1,6l12.4,5.5v-8.6h-1.7v1.7h-1.7l-0.2-1.8l-1,1.2
			C291.6,331.8,287.2,329.1,285.4,330.2 M205.5,329.6c1.6,0.1,2.3,0,2.3,1.7v5.1h-2.3V329.6z M260.9,332.5v6.3l17.1,6.9V340
			L260.9,332.5z M283.1,337.6l13.7,5.8v2.8c-2-0.5-6-2.4-8.1-3.4C286.3,341.7,283.2,340.7,283.1,337.6 M239.2,342.8l-4-1.1v-1.8
			l5.2,1.1v26.3C237.1,365,239.2,347.9,239.2,342.8 M220.3,336.5v6.9h1.7v-6.2L220.3,336.5z M302.5,343.3v-1.1
			c2.3,0.2,6.3,2.1,6.9,4C308.2,345.5,303.9,343.5,302.5,343.3 M257.4,325.6h1.1v20h-1.1V325.6z M258.6,346.8h1.1v1.1h-1.1V346.8z
			 M283.1,342.8v5.7l13.7,5.1l-0.2-4.8L283.1,342.8z M236.3,343.3h1.7v4.6l-0.2,6.3l0.2,11.4h-1.7v-13.1v-2.9V343.3z M195.8,334.8
			c1.6,0.1,2.3,0,2.3,1.7v14.3h-2.3V334.8z M264.3,354.2c0-2-1.7-1.9-3.4-2.3c0-0.9,0.3-1.7,1.1-1.7c1.1,0,1.9,0.8,3.4,1.1v24h-1.1
			V354.2z M205.5,338.8c1.6,0.1,2.3,0,2.3,1.7v13.7c-1.6-0.1-2.3,0-2.3-1.7V338.8z M285.4,358.8v-2.3c0-1.7-0.7-1.6-2.3-1.7v-3.4
			c3.9,0.3,10.4,4.6,12,4.6h1.7v39.4l-1.3-4.5h-1l-3.6,15.4l-4.1-18.2l-1.4-0.1l-2,10.8l-0.3,0.1v-15c1.1,0.6,1.7,1.1,3.4,1.1h1.7
			v-24.6C288.3,358.6,287.2,358.8,285.4,358.8 M279.7,355.9c-2.7-0.2-1,0.6-2.3-1.1h2.3V355.9z M261.4,353.6v4.6v2.9v13.1h1.7v-20.6
			H261.4z M220.3,346.2v14.3h1.7v-13.1c0-1.5-0.3-1.6-0.6-2.9C220.5,345.2,220.3,344.6,220.3,346.2 M283.1,360.5l2.9,1.1v1.1v18.9
			h0.6v-20v-1.2l-3.5-1.1V360.5z M312.3,364.6l-0.4,2.8l-1.8-2.2L312.3,364.6z M305.5,363.4h0.4l0.7,5.1h-1.9L305.5,363.4z
			 M308.3,367.9c1.4,0.4,3.3,1.6,3.3,3.5v2.9l-4,1V372l1.3-1.7L308.3,367.9z M318.5,366.8h1.1l-1.1,3.5l-1.8-0.7V368h1.7
			L318.5,366.8L318.5,366.8z M323.1,371.3c0-1.1,1.9-1.5,2.9-1.7l-0.7,3.4C324.4,372.8,323.1,372.4,323.1,371.3 M194.6,373.6
			c2.7-4.1,8-4.4,8-13.1c1.9,0.5,3.5,5.3,5.6,7.6c2.5,2.8,4.4,3.9,7,6.1L194.6,373.6z M312.8,370.2c0-1.9,0.3-1.9,1.1-2.9
			c0.1,1.8,0.6,2,0.6,4v3.4c-1.3-0.3-1.7-0.1-1.7-1.7L312.8,370.2L312.8,370.2z M329.4,374.8c0-1.1,1.9-1.5,2.9-1.7l-1.1,3.5
			C330.6,376.1,329.4,375.6,329.4,374.8 M315.7,371.3c1.4,0.4,2.9,1.1,2.9,2.9v2.3l-2.3,0.6c-0.3-1.4-0.6-1.4-0.6-2.9L315.7,371.3z
			 M320.6,370.1l0.2,7c-0.9-0.7-1.1-0.1-1.1-1.7v-2.3v-1.2L320.6,370.1z M195.2,378.8c-1.5,0-1.7-0.8-2.3-1.7l22.3,0.6
			c-1,0.9-1,1.1-2.9,1.1H195.2z M338,376l-0.7,3.3c-2.2-0.6-1.6-0.1-1.6-2.7L338,376z M216.3,379.3c1-1.4,2.2-1.7,4.6-1.7
			c1.2,0,0.8,0.2,2.3,0.6l-3.4,2.4L216.3,379.3z M325.9,376.5c0-2,0.4-2.2,0.6-4h1.1v6.9c-1.3-0.3-1.7-0.1-1.7-1.7L325.9,376.5
			L325.9,376.5z M309.4,376.5l4,0.5v2.4h-1.7c-1.5,0-1.6,0.3-3,0.5L309.4,376.5z M322.5,374.8c2.3,0.6,2.3,1.7,2.3,4.6l-2.3,0.6
			V374.8z M226.6,377.1h1.7v14.8l-2.8-13.1h1.1L226.6,377.1L226.6,377.1z M283.1,362.2v18.3h1.7v-16.6
			C284.8,362.3,284.4,362.5,283.1,362.2 M315.1,396.5l0.6,0.6l0.6,14.9l-2.9-0.7v17.8h-0.8l-0.5-12.6h-1l-0.7,12h-0.5v-8.6h-0.8
			l-0.5,9.2h-1l-0.5-16l1.9,5.1l0.9,0.1c-0.3-1.3-0.6-1.3-0.6-2.9v-1.1l0.5-10.3l0.1-4.6l0.1-15.5h0.5V401c0,5.1-1.2,12.7,1.7,14.3
			v-34.9h0.9l0.3,29.7h0.5v-15.4h1.1L315.1,396.5L315.1,396.5z M328.8,377.6c1.8,1.2,2.2,1.1,2.3,4l-1.7,0.5l-0.5-1.7v-1.1
			L328.8,377.6L328.8,377.6z M318.5,379.3c1.7,0,1.6,0.7,1.7,2.3h-3.4v-2.3H318.5z M332.8,377.1h1.1v4.6h-1.1V377.1z M223.7,380.5
			H222v2.3l1.7,0.6V380.5z M337.4,384.5h-1.6l-0.7-3.4C337.3,381.7,337.3,381.8,337.4,384.5 M219.2,384.5c-2.6-0.2-4-0.2-4.6-2.3
			l4.5,1.3L219.2,384.5z M307.7,381.1c3.1,0.8,1.1,1.2,1.1,4.6v1.7h-1.1V381.1z M323.1,384.5c0-1.8-0.2-2.9,1.7-2.9
			c1.7,0,1.6,0.7,1.7,2.3L323.1,384.5z M338.5,380.5c0-1.6,0.2-1,1.1-1.7c0.3,1.3,0.6,1.3,0.6,2.9v2.3h-1.7L338.5,380.5L338.5,380.5
			z M203.2,385.1h9.7v8.6h-3.4c-0.1-3.9-2.5-7.7-6.3-8c-2.3,3.5-3.3,2.4-4.6,8h-4v-8.6H203.2z M214,385.6h2.3l-2.3,5.1V385.6z
			 M219.2,390.2c-1.1-1.3-1.2-2.4-2.3-4c1.6,0.1,2.3,0,2.3,1.7V390.2z M331.2,384.2l2.2,0.4v2.2H330v-2.2L331.2,384.2z M238.6,382.8
			h1.1v1.7c0,2,0.4,2.2,0.6,4l-2.4-1.2L238.6,382.8z M320.8,383.3h1.1v1.7c0,1.3,0.5,1.3,1.1,2.3l-0.7,4.6h-1.6v-8.6H320.8z
			 M313.9,381.1h1.1v2.9h1.1v5.7c-1.6-0.1-2.3,0-2.3-1.7v-6.9H313.9z M336.2,386.8h3.4v2.3l-3.4,0.6V386.8z M224.3,391.9
			c-4.9-3.3-4.8,0.7-2.9-7.4C224,385.2,224.3,388.6,224.3,391.9 M247.7,390.2c0.1-2.4,0.6-4.4,1.7-5.7c0.1,1.8,0.6,2,0.6,4v1.7
			H247.7z M327.7,385.6h0.6v1.7v1.1l1.7,0.7l-0.7,5c-1.1-0.3-1.6-0.1-1.6-1.7V385.6z M333.9,390.2c0-1.6,0.2-1,1.1-1.7l1,3.5
			l-0.5,4.5c-1.1-0.3-1.6-0.1-1.6-1.7V390.2z M238.1,389.1l1.6,1.2l1.4,6.2l-2-1.6l-1-0.1l-1.9-0.1L238.1,389.1z M201.5,396.5h2.3
			v-6.9C202.4,390.6,201.5,394,201.5,396.5 M204.3,389.6v6.9h2.9C207,394,205.8,390.7,204.3,389.6 M225.5,419.3v-13.1l0.3-11.4
			l2.5,0.6V420L225.5,419.3z M248.4,391.4l0.5-0.2l2.6,8.1l-4.6-2.7l-0.3,0.5l0.4-3.2L248.4,391.4z M236.3,408.5l0.8-11.8l2.8,1.8
			l-0.6,0.3l0.4,12.6v9.7h-3.4L236.3,408.5L236.3,408.5z M286.1,394.8l-1.2,4l2.3,0.5l-0.7-4.6L286.1,394.8z M234.6,398.2h1.1v1.1
			h-1.1V398.2z M241.4,411.9l0.5-13.1l1.8,0.6l-0.1,7.4l0.1,14.9h-2.3V411.9z M246,422.3l4,0.5v-15.4h-1.1v-4.6h1.1
			c-0.1-1.5-1-4-2.3-4c-2.6,0-0.8,2.2-1.2,5.7c-0.3,2.6-0.5,4-0.5,7.5V422.3z M294.7,398.2l-0.5,2.9l1.6,1.1v-2.3
			C295.7,398.3,295.4,398.9,294.7,398.2 M250,403.4h1.1v1.1H250V403.4z M285,401.1l-1.2,4.6h1.6c1.3,0,1.3,0.5,2.6,1.1l-1.4-5.6
			L285,401.1z M292.8,406.8L292.8,406.8c0,1.1,2.4,1.5,3.6,1.7l-1.3-5.1H294C293.6,404.9,292.8,405.7,292.8,406.8 M284.4,407.4
			l2.2,1.2V420v8h-2.9l-0.1-7.4L284.4,407.4z M288.3,428.5l-0.1-7.4l0.7-12h0.8l1,12.6l-0.2,6.9L288.3,428.5L288.3,428.5z
			 M295.7,429.6c-4.4-0.1-2.9-4.2-2.9-9.1c0-3.4,0.6-8.4-0.6-10.9l0.3-0.5l3.3,2.4l-0.7,0.4l0.5,9.1L295.7,429.6z M321.4,398.2h1.1
			v15.4h-1.1V398.2z M327.7,399.9l1.8,1.6l-0.1,13.8l-1.7-1.1V399.9z M334.5,401.1c0.8,1,1.1,1,1.1,2.9v13.1
			c-0.9-0.7-1.1-0.1-1.1-1.7V401.1z M228.9,419.9h1.1v-81.2h-1.1V419.9z M322.5,421.1v8h-1.1v-2.9c0-2,0.4-2.2,0.6-4h-1.1v-5.1h1.1
			C322.1,418.9,322.5,419.1,322.5,421.1L322.5,421.1z M347.6,422.2h-1.1v-1.7h1.1V422.2z M214,417.6l5.1,0.5v5.2l-5.1-0.6V417.6z
			 M327.7,418.8c1.4,0.5,1.7,0.7,1.7,2.9v2.3h-1.7V418.8z M214,425.1h-21.1c0.1-0.9,0.7-1.1,1.7-1.1H214V425.1z M218,425.6
			c-1.6,0-1.4-0.4-1.7-1.7c1.5,0.7-0.5,0.6,1.7,0.6h0.6c1.6,0,1,0.2,1.7,1.1L218,425.6L218,425.6z M334.5,421.1h1.1v4.6h-1.1V421.1z
			 M314.5,414.8c2.8,2,1.7,10.2,1.7,14.9l-1.7-1.7V414.8z M304.8,414.2c0.9,0.6,1.7,0.8,1.7,2.3v12.6h-1.7V414.2z M343.6,423.9h1.7
			v6.3h-1.7V423.9z M346.5,425.1c0.9,0.7,1.1,0.1,1.1,1.7v4h-1.1V425.1z M307.1,434.2c-2-0.5-1.8-0.6-2.3-2.8l2.2-0.7L307.1,434.2z
			 M311.7,433.1c2.3-2.4,2,0.2,2.9-2.9l0.7,1.1l0.9-1.2l0.2,2.4h0.6l2.3-0.7v4.7h-1.1v-3.4h-0.6v1.7v1.1l-1.1,0.6l-3.4-0.6v-1.1
			l-0.7,1.1l-1.1-0.5h-3.4c0.4-1.6,0.6-1,0.6-2.3c0-0.2-0.4-1-0.6-1.7h1.1v1.1l1.7-0.5v1.1L311.7,433.1L311.7,433.1z M256.9,431.4
			h3.4v3.4l-2-2l-1.4,3.1V431.4z M278.6,434.2h3.4v3.4c-0.6-0.7-1-1.7-1.7-1.7c-1.3,0-1.1,1.6-1.1,2.9h-0.6L278.6,434.2L278.6,434.2
			z M331.1,431.9h1.1v4c0,1.6-0.2,1-1.1,1.7V431.9z M299.7,438.8v1.7h-1.1v-4.6h4v5.1l-1.7-3.4l-0.7,0.5L299.7,438.8z M311.7,437.1
			l-7.9-1.1l-0.5,1.1l0.5,3.5l1.6-1.8v1l6.9-0.5l1.2-0.6l1.1,0.6l1.7-0.4l2.9,0.4v-1.8l-1.6,0.6l-0.7-0.5H314l-0.6-0.6l-1,0.5
			L311.7,437.1z M347.6,436.4l-1.7,3c-1.1-4-1.3,0.6-1.7-3.4l1.9,0.9L347.6,436.4z M262,433.1h2.9l10.8,1.3v6.1l-13.7-1.7L262,433.1
			L262,433.1z M319.7,438.2h1.1v1.1h-1.1V438.2z M283.7,435.4h4l8,1.1v6.3l-12-1.1V435.4z M275.7,448.5c-2.5-1.7-4.9-3.4-6.3-6.3
			l6.3,0.7V448.5z M262,441.6h5.1c-0.3,3.2-3.1,4.3-5.1,5.7V441.6z M283.1,443.9h6.3v2.3c-2.1,0.6-4.6,2.9-5.1,5.1h-1.1L283.1,443.9
			L283.1,443.9z M291.7,444.5l4,0.7v3.9C293,447.3,291.8,448.5,291.7,444.5 M312.2,449.6c0-2.5,4.4-6.3,7.4-6.3h1.7v14.1h1.1v-11.9
			l1.1-0.4l3.8,10l3.6,0.1v2.1h7.3l0.2-10.1l3.4-0.7c1.2,1.9,1.7,3.3,1.7,6.4v4.4h3.2c0-1.8,0-4.8,0.3-6.6c0.5-3,3.3-5,3.3-1.8v8.4
			h1.1v-3.9c0.9,0.7,1.1,0.1,1.1,1.7v2.1h1.7v-2c-0.4-1.5-0.6-2.9-0.6-4.1l-0.1-6.3l0.7-5.5v-7.5l0,0v-22.3v-0.6v-33.5l5.7-2.3
			c-0.4-4.4,0.4-12.6-4.6-12.6H353l0.1-14.9l-0.7-9.7v-9.1l0.4,0.7l3.7-2.7l-4.2-1.9v-5.7v-38.8l13.1-1.8l0.7-0.7l-1.8-1.6
			c-2.3-3.4-10.7-11.4-14.3-15.4l-2.9-1.1c-4.9-4.2-4.5,0.6-7.1-9.5c-1-3.8-2-10.9-3.8-13.4l-0.6-3.4l-2.3-8.6
			c-0.3-4-7.5-31.2-9.1-36c-3.7-11.1-3.4-24.2-3.4-40h-1.1c0,30.4-2.4,35.5-7.9,60.1c-2.1,9.4-5,18.4-6.7,28.1
			c-1.6,8.6-2.5,22.8-10.7,24.9l-1-24.6H293l-1.3,17.7l-0.6,2.3H290v-8.6l-0.6,7.4h-0.5l-0.6-8.6v7.4h-1.1l0.2-3.4l-0.2-4.6h-0.6
			v6.9H286l-0.6-8v7.4l-2.3-1.1v-8l-0.6,7.4H282v-5.7h0v2.9c0,1.6-0.2,1-1.1,1.7v-2.3l-0.4-5.2l-0.2,4v2.9l-2.3-0.7v-9l-0.6,7.4
			h-0.5v-8h-0.6v7.4h-1.1l0.5-2.3l-0.5-6.3l-0.6,7.4H274l-0.6-8v7.4h-0.6v-4l-1.5,2.4l-0.2-7.5h-0.6v7.4H270v-8l-1.7,6.3v-1.7
			c-0.4-0.7-0.6-0.6-0.6-1.7v-16.5h-1.1v17.7l-0.6,4.6l-1.1,0.6c0.8,9-0.3,4-5.3,11.2c-2.8,4-6.3,6.6-9,10.5l-6.9,7.4l-10.3,11.3
			l-1.1-1.1v2.9h-1l-5.3-30.7l0.6-0.1l-0.1,0.1l-5.2,34.5l-4.4-2v-77.6l12.5-2.4l4.6-0.6l3.5-3.3l0.5,0.4
			c-0.8-2.9-22.2-19.3-26.1-23c-7.4-7-6.9-2.4-10.5-14.1c-1.8-5.9-4.3-13.6-5.6-19.4l2.8-0.7c-2.5-5.3-1.1-20-8.5-20l-2.9-9.1
			l-0.6-1.7l-0.6-1.7l-2.3-8l-4.6-16l-6.3-21.1l-1.1-3.4c0-3.9-3.9-15.2-4.5-20.6l-0.7-6.3h-1.6l-0.1-36h-1.1l-0.1,36l-0.8-0.1
			l-0.8,5.3v1.1c0,11.4-18.9,63.5-23.2,79.7c-3.4,12.9-8.4,26.7-12.2,39.8c-3.8,12.8-1.4,8.7-12.5,13.8c-4.8,2.2-14.3,5.4-18.3,7.9
			c-2.2,1-6.2,1.6-6.5,3.6l3.1,3.2l10.8,5.7l1.7,1.1l8.6,5.7l0.6,8.6v36.6c0,7.9,0.9,17.7-6.9,17.7h-1.1c-10.2,0-10.4-8.6-11.7-18
			c-1.3-8.9-3.5-16.8-5.2-24.5c-4.6-20.6-7.1-27-7.1-52.9H81h0.7l-2.5,36l-1-0.1h-0.9l-5.9-24l-4.8-19.3l-1.5,0.4v-6.3v-2.9
			c-1.3-0.3-1.7-0.1-1.7-1.7V150v-14.9c0-3.9,1.4-14-1.7-14.9l-0.2,25.1l0.2,4.6v6.3h-0.9l-0.3,5.1v0.6c0,1.5,0.1,1.4,0.6,2.3
			l-0.6,1.1c-4.4,2.3-16.8,55.8-19.8,65.4c-3.3,10.8-5.1,23.8-11.5,31.4c-5.1,6-18.3,14.1-28.7,14.1l0.2,2l2.1,2l12,4l1.7,0.6h1.1
			v1.1h1.1l1.7,1.1l1.1,5.1l-1,165h1.1l0.5-117v-41.7h2.3c2.1,0,2,0.7,3.9,1.1l0.7-3.4h1l1.2,4l0.6,5.1h1l0.7-6.8l1.1-2.3h1.3l1,8.6
			h1.7c0-3,0-8.9,2.3-9.7l1.7,9.1h1.7V299c0-2.5,0.9-1.8,1.1-4.6h1.3l1,8.6h1.7v-2.3c0-3.1,1.1-3.1,1.1-6.3c2.4-2.6,2.9,4.8,2.9,8
			l1.4-0.1l2-9.7c4.3,1.1-0.6,8.1,4.6,8.6v-5.3c0-2.3,0.5-3,2.5-3.5l0.9,8.6h1.7v-4c0-1.7,1.2-3.7,1.7-5.7c2.5,0.7,2.3,6.7,2.9,9.1
			c2.1-0.6,2.7-7.5,2.9-9.7h1l1.2,4l0.6,4.6l1.3-0.1l1.6-9.3l1.4,0.2l0.9,9.2v2.3c0,1.4-0.9,1.7-1.7,2.9h1.4l0.3,45.2v66.2
			l-11.3,0.7l-2,1.7l1.8,1.6l2.3-1.2l0.9,1.9l0.6-1.4l-0.3,4.1l-1.1,0.6l-0.6-1.8l-0.2-1.8l-1.5,2.4l-1.1-0.6l-0.6,0.6
			c-0.7,0.8-1.7,1.5-1.7,2.9v1.7c0,1.5,0.8,1.7,1.7,2.3l12.3,5l0.3-1v23.9h1.6l0.1-23.8l5.1-0.6l17.1-0.1l5.3,0.7l0.4-3.4l-0.9-0.6
			l-0.2-5.2l-2-5.6l0.6-0.2l0.8,1.8l0.7-1.1l2.3-0.6c0,1.8-0.2,2.9,1.7,2.9h4.6v-2.3v-1.1l-5.1-0.6v-17.1h6.3v-2.9
			c0-2.5-3.1-1.7-5.7-1.7l0.6-88.6v-3.5l4.2,0.7l-0.5,48h-0.8c5.5,0.1,0.3,8.7,1.7,10.9c1.4,3.9,19,2.7,21.1,12
			c13.5,0,5.5-3.7,15.7-8.8c8.6-4.3,11.7,0.8,9.9-15.1c-1.6-14.5-1.1-32.3-1.1-48.6l3.8-0.6l0.7-5.1c-2.1-0.2-14-4.8-15.9-5.8
			c-4.3-2.5-6.4-9.7-6.4-14.8v-1.1c0-2.8-2.3-0.4-2.3-5.7c-1.6,0.4-2.9,4.4-2.9,5.1v2.3c0,1.5,0.3,1.6,0.6,2.9
			c-2.2,3.5-0.8,6.4-5.5,10c-2.8,2.1-1.5,1.5-4.8,3.2c-1,0.5-4.5,2.3-5.1,2.9l-12.6,2.9v-13.1v-10.2l0.6-66.3h1.1l0.6-14.3h2.3
			c2.2,0,3.9-1.6,7.4-1.7l-0.1,13.3l3.5,1v-13.7c0-1.6,0.4-1.4,1.7-1.7l8-1.1l0.6,13.8l2.3-0.6l0.6-14.2l9.6-2.4l0.6,13.1l1.7,0.6
			h1.1v-14.5l9.7-1.5l0.6,12l1.2,1.2l1.1-0.7l1.1-13.7l4.6-1.1l7.4-1.1l2.3,167.5v24h-5.1c-1.3,0-1.7,0.4-1.7,1.7v0.6
			c0,1.6,0.2,1.1,1.1,1.7h5.7v2.3h-2.3v2.9h2.3v1.1h-5.1v2.9h3.4c1.7,0,1.6,0.7,1.7,2.3v5.7c-1.4-0.7-6.9-1.7-6.9,1.1v2.3h6.9v0.6
			c-2.9,0-11.4-1.2-11.4,1.7v1.7c0,1.6,0.2,1.1,1.1,1.7h10.3v4.6h-6.3c-2.8,4.4,2.9,3.4,6.3,3.4v0.6c-5.5,0-8-1.6-8,3.4h8v5.1v0.6
			v6.9c-1.3-0.3-1.3-0.6-2.9-0.6H179c-1.3,0-1.7,0.4-1.7,1.7v2.9h5.1c1.1,0,1-0.2,1.7-0.6v1.7h-8l-1.1,0.6v4.6h9.1v1.1h-5.2l0.6,5.1
			l-1.7,0.7c3.2-6.9-1.9-5.8-6.9-5.8c-3.8,8,3.7,4.6,6.3,6.3l6.9-0.6v6.9v0.6H183h-6.3l-0.9,4.4h9.9l-0.5-35.3v-5.1v-1.7l0.6-4h1.1
			v-6.3h-1.1h-0.6V403l1.7,0.5v-3.6h-1.7v-1.7v-2.9v-24V195.6l2.9-0.4l0.3-11.2l3.2,3.2v14.3c4.6-0.1,2.9-6.9,2.9-12l5.1,4.6
			l0.1,14.5l2.7-1.4v-10.3c7.6,2,1.9,12.1,4.7,17.9l2.2-1.4H207v-13.5c3.4,3.9,2.3,6.8,2.3,13.7l0.6-10.3c5.5,3.7,5.1,16.2,5.1,25.1
			c0,10.1,0,20.2,0,30.3c-0.1,18.9,0.6,40.1,0.6,60v53.2l-1.3,0.8l-10-15l1-0.7l6.2,1l0.5-1.1l-3-2.1l-0.3-25.9l-4.5-1.3l-0.9,25.4
			h-0.9l-3.4-0.7v-27.9c-1.3-0.3-1.3-0.6-2.9-0.6h-1.7v30.3c2.4,0,6.9,0.7,6.9,2.9v1.7c0,8.1-6.5,16.1-14.3,14.3v4
			c2.3,0.2,5.7-0.9,5.7,2.9v18.3h-2.9v3.4l2.8,0.7l-0.5,5.6l-1.7-0.6h-2.3v5.1l1.7,0.6h1.1l1.7,0.7c0,9.2-3.1,15,1.2,19.9l8.2,11.1
			l-7.7,12.1l1,0.4l-0.4,0.2H218l0.6-20.4c5.1,2.4,8-2.9,8,4.6l-0.2,15.9h4.8v-23.9h1.1v23.9h3.1l1.4-8.4c1.5-1.1,1.4-2.1,3-3.3
			c1-0.8,2.8-1.7,3.9-2.4h1.1c1.5,2,3.2,1.3,5.7,5.7c1.6,2.8,2.2,4,2.3,8.5h5.1v-20.4v-1.7h1.1v1.7v2.9l-0.4,17.6h2.1v-2.1
			c0.8-3.3,3.4-9.1,7.4-9.1v-1.7h1.1c0.9,3.3,7.1,2.3,7.4,13h2.6c-0.1-8.3,0-17.7,1.4-18.7v18.7h4.9c0.7-1.7,1.9-3.3,3.1-3.3
			c1.6,0,2.9,1.6,3.5,3.3h1.4c-0.5-2.2-1.9-2.4-3.2-4.4c2.6,0.2,4.7,2.7,5.4,4.4h1.2c-0.8-2.7-3.2-5.6-6-5.6c-4.6,0-4.6,2.9-6.9,4.6
			v-1.7l6.1-7.6c2.4,1.7,8.7,6.1,7.6,10.3h5.7v-7.3l3.3,6.9l-0.1,0.4h2l1.7-2.7l2.2-0.1c1.4,0,2.4,1.2,3.1,2.7h1.1
			C315.1,454.1,312.2,453.8,312.2,449.6 M296.8,436.5h1.1v15.4h-1.1V436.5z M275.1,454.8l1.4,2.7H275l-0.4-2.1
			c-1.7-1.9-2.4-3.9-5.7-4c1.8,2.6,2.8,2.5,3.8,6.1h-1.3c-0.9-2-2.1-5-4.2-5h-0.6c-2.6,0-1.4,2.3-4,4l-0.1,1h-0.8
			c1-2.8,2.3-7.3,5.5-7.3h3.4C272.5,450.2,274.7,453.1,275.1,454.8 M235.7,430.2l17.7,1.8v5.6l-18.3-1.5L235.7,430.2z M235.2,428.5
			c1.2-1.4,12.9,1.1,16,1.1h0.6c1.6,0,1,0.2,1.7,1.1l-5.1-0.6l-1.2,0.1l-11.4-1.1L235.2,428.5z M335.6,428.5h-1.1v-1.1h1.1V428.5z
			 M335.1,437.6l1.2-1.7v-3.5l0.5,0.7l1.2-0.1c0.7,1,1.1,1,1.1,2.3v0.6c0,1.6-0.2,1-1.1,1.7c0.4-1.6,0.6-1,0.6-2.3
			c0-0.8-0.6-0.9-1.1-1.1v1.7v1.1l-2.2,1.8L335.1,437.6z M329.4,425.6v2.3h-1.7V425L329.4,425.6z M329.4,438.2
			c0-1.9-0.5-5.9,0.6-6.9c0.3,1.3,0.6,1.3,0.6,2.9v2.3v1.1L329.4,438.2z M324.8,431.4h1.9l-0.7,5.7l-1.1,0.6v-3.5h-0.6v2.9h-2.9
			v-5.7c0-1.6,0.2-1,1.1-1.7v2.3L324.8,431.4z M327.7,430.2c1,0.7,1.1,0.1,1.1,1.7v5.7h-1.1V430.2z M324.2,291.3h-1.7V289l-0.6,2.9
			h-1.1v-4.6h1.1v-1.7c0-1.1,0.2-1,0.6-1.7l0.9,1.6l0.8,0.1v1.1l1.7-0.7v1.2h-1.1L324.2,291.3z M322.5,293h1.7v4h-1.7V293z
			 M339.6,295.7v1.4l-12.5,1.4v-0.7L339.6,295.7z M351.6,303.9c-1.9-0.5-10.4-6.3-10.8-8L351.6,303.9z M322.5,299.9v-1.7h1.7v4
			C323.3,301.6,322.5,301.4,322.5,299.9L322.5,299.9z M328.8,302.8c1.3,0,2.3,0.9,2.3,2.3l-0.1,1.8l-3.9-1.8
			C327.3,304.1,327.7,302.8,328.8,302.8L328.8,302.8z M336.8,301.6c1.8,0,2.9,4.3,2.9,5.7l-0.1,5.4l-6.1-3.6
			C333.4,306.3,334.3,301.6,336.8,301.6 M340.8,325.6l0.9,55.5l0.4,6.2h-0.7v10.9l1.5-0.1l-0.3,5.8h-1.7v9.7h-0.6l0.1-15.4
			c-2.4,1.7-1.1,11-1.1,14.9l-1.2,1.1h1.1v1.1h-1.1v2.3h0.7l-0.1,4.6h1.1v-1.7h1.1l0.6,2.3h1.1l0.7-1.1l1.5,1.1l1.4-4.5l1.2,0.7
			l1.6-1.2l0.7,1.1l0.6,12.4l2.8,0.7v-29.7l-0.6,2.3c-3.7,2.2-7.6-2.2-8-6.8c-0.5-7,0.6-11.2,1.1-16h2.3l0.9,2.2l0.8-0.5h1.7
			l1.3,3.6l0.5-8.8l-0.4,0.4l-8.1-7.5l-0.7,0.7v-27.4l2.1-2.1l1.4-0.2l0.5,3l0.9-0.2h2l1.1,2.3v-20l-8-0.6L340.8,325.6z
			 M340.8,303.9h0.3l1.2,4.5l0.5-5.7l0.6-0.1l1.7,7.6l0.8-5.2c2.5,0.7,2.3,4.4,2.7,7.5l0.7-5.2h1.3l0.9,13.9l-10.7-7V303.9z
			 M312.2,309.6c0-2.2,0.4-1.1,0.6-3.4c2,0.5,3.2,1.6,3.4,4C314.4,310.2,312.2,311.3,312.2,309.6 M192.3,127.3
			c-3.3,7,0.3,11.8-9.1,12.6l-1.1-11.3L192.3,127.3z M193.1,130l3.8,15.6h-2.2l-2.9-12L193.1,130z M184.8,140.5h3l-0.5,13.2
			L184.8,140.5z M188.9,139.9c1.8-0.6,1.7-1,1.7-3.4h1.1l2,9.1l-4.6-2.6L188.9,139.9z M189.5,145l3,2.1l-0.2,13.4
			c-1.6-0.8-2.9-0.2-2.9-2.3V145H189.5z M193.5,162.2v1.7l-4.6-1.1v-2.3C191.9,161.1,190.7,161.9,193.5,162.2 M171.8,172.4
			c0.3-2.4,2.5-2.8,5.2-2.8l3,0.4L171.8,172.4z M100.4,185.6c-0.9-2.1,26.3-10.8,32-12c4.9-1,34.8-6.8,36.5-8c4.1,0,8.5-1.7,9.7-1.7
			c2.6,0,4.6,0.7,5.8,2.5L100.4,185.6z M202.6,177.6c1.8,1.5,49.3,39.4,23.4,20.6c-1.8-1.3-6.4-5.1-8.1-6.7
			C215.5,189.3,202.1,178.9,202.6,177.6 M171.2,93.6l1.7,12.6l6.8,56.5l-9.7,1.8l-44.5,9.2L163.1,49h2.3l1.7,16l1.1,5.7l2.9,22.3
			v0.6H171.2z M250.6,295.3l-0.6,6.3v1.1c0,2.4,2.9,2.6,4.7,3.4l-1.9-21.7L250.6,295.3z M233.4,296.5l1.1-1.1l0.6,4l-0.7,9.7
			c-1.9-0.2-2.1-0.7-2.1-2.8v-3.4C232.3,300.1,232.9,298.6,233.4,296.5 M228.3,296.5l2.3-4.6h3.3l-1,4c-0.5,0.8-2.3,6.3-2.3,7.4v4.6
			C226.9,307.6,228.3,300.8,228.3,296.5 M223.2,293.6l-6.3-2.9l0.2-2.6l11.4,6.2l-1.3,1L223.2,293.6z M222.6,297
			c-2.5-1.8-4.9-0.9-5.7-3.9l3.4,1.1c1.6,2.2,5.5,1.8,6.3,4.6L222.6,297z M219.2,304.5l-2.3-1.7v-2.3l0.1-4.2l2.8,1.4l1.1-0.6v1.7
			h1.1h1.1l2.3,1.1l1.5,1.4l0.2,7.2L219.2,304.5z M228.9,313.6l-12.1-5.2l0.7-1.1l11.4,5.1V313.6z M216.9,315.9l0.1,3.3l11.9,4.7
			v-7.4l-1.7-0.7l-10.2-4.7L216.9,315.9z M275.7,293.6l-18.3,2.2l-0.7-5.6l2.4-0.6l12-1.1h4.6V293.6z M303.1,290.2l-26.3,3.4v-5.7
			l14.8-1.7h1.7c2,0,4.7,1.8,6.9,2.3l1.7,0.6L303.1,290.2z M222.4,289.5l3.6-21.6l1.6,24.4L222.4,289.5z M247.1,297.6l-7.4,1.3
			l-2.3-1.3l-1.7-1.7v-3.5l14.3-1.6v2.3l-0.7,4L247.1,297.6z M236.3,299.9l17.7,8.6c-0.6-2.1-8.7-5.4-10.8-6.9
			C240.4,300.9,237.3,297.5,236.3,299.9 M345.4,386.8h1.1v11.4h-1.1V386.8z M242,441.6c-1.7,1.2-1.2,1.6-3.5,2.8
			c-3.8,1.9,0.6,1.9-3.3,3v-8.6c1.8,0.1,2,0.6,4,0.6h3.4L242,441.6z M234,434.8l-1.3-4c-3.2,0.3-1.3,2.3-3.2,5.1v-7.4l4,0.6
			L234,434.8z M221.5,427.4l-2.8,0.6l-1.1-0.1l-2.3-1.2h-1.7l2.8-0.6C217.5,426.1,221.5,426.6,221.5,427.4L221.5,427.4z
			 M227.2,427.9h-4.6v-1.1c1.5-0.7-0.5-0.6,1.7-0.6c2,0,2.2,0.4,4,0.6v1.1H227.2z M221.5,434.8l-0.6-1.1c1.8-1.2,2.7-3.8,5.2-4v5.1
			h-1.7H221.5z M194.6,395.9h3.4l0.6,21.1h1.1H210v-21.1h2.9v26.9h-17.1c-3,0-1.7-10.1-1.7-13.1C194.1,405.9,193,398.5,194.6,395.9
			 M203.8,397.1c0,3.9,1.6,12.3-2.3,12.6v-12.6H203.8z M207.2,409.6h-2.9l0.6-12V397h2.3V409.6z M207.2,414.8h-2.9v-2.9
			c0-1.9,1-1.7,2.9-1.7V414.8z M201.5,410.2h2.3v4.6h-2.3V410.2z M276.8,359.3v35.4l-2.8-11.4l-0.7-0.2l-3.9,16.2l-0.6,0.2
			l-3.7-18.3l-1.3-0.1l-2.7,10.9l0.5-14.3l5.1,1.4l0.1-28.9l-2.8-0.6v-4c-3.9,0.1-2.9,1.9-2.9-4c2.8,0.2,17.1,6.3,17.1,8v2.9
			L276.8,359.3z M278,416.5v-24v-11.4v-21.7h1.1v34.9l0.2,4l-0.2,3.4v25.7H278V416.5z M254,401.6v21.7h-2.3L252,401L254,401.6z
			 M263.9,387.9h1v5.1h-1.7L263.9,387.9z M274.6,395.9c-3.8-0.3-1.8-1.2-1.7-4.6h1.1L274.6,395.9z M263.2,394.8h1.1l2.3,6.9
			l-4.7-2.3L263.2,394.8z M272.3,397.1h1.1l1.9,6.2c-1.2-0.6-1.2-1.1-2.5-1.1H271L272.3,397.1z M261.4,413.6l0.5-12l2.4,0.6
			l0.6,11.4V425l-3.4-0.5L261.4,413.6z M295.1,294.2l-0.6-1.1l10.3-1.1h1.7v1.1l-6.3,0.7L295.1,294.2z M298,302.2v-5.7h1.1v9.7
			C297.4,304.9,298,305.2,298,302.2 M294.5,302.2v-5.1h2.3v7.4h-1.7L294.5,302.2z M292.3,305.1h-3.4v-7.4h4v5.1L292.3,305.1z
			 M287.1,297.6l-0.6,9.7h1.1v-8.6L287.1,297.6z M290,294.8l-1.7,0.6v1.7h-1.1l-7.4,0.6h-1.1l-0.6-1.1c0.4-1.5,0-1.5,1.7-1.7
			l13.7-1.7C292.8,295.4,293,294.8,290,294.8 M332.8,232.5l0.6,3.4c0.1,3.2,1.8,8.9,2.4,12.5c1.3,6.6,0.6,4.1-7.4,5.4
			c-7.1,1.1-19.4,2.7-26.4,3.3l18.3-77.7l0.9-0.2l10,47L332.8,232.5z M328.2,293h-1.7v-11.4h2.3c1-2.5,2.3-0.9,2.3,0.6v9.6
			L328.2,293z M339.6,294.2v-17.1c-0.7-1-1.1-1-1.1-2.3v-6.9h-8v9.1h-1.1v1.7c1.4,0.4,2.9,1.1,2.9,2.9V293l-4,0.6H326v3L339.6,294.2
			z M351.6,285l-0.6-6.3l-2.2-2.4l-0.1,7.6L348,284l-0.6-8.6l-2.4-2.6l-0.2,6.6h-0.6v-7.5l-2.6-2.6l-0.2,7.7l-0.6,8l0.1,9l10.8,7.5
			V285H351.6z M306.5,259.3l18.8-1.7l0.7,3.7l21.1-3.2c-3.2-0.7-8.3-4.2-10.7-3.9c-3.8,0.5-9,1.1-12.8,1.5
			c-5.5,0.7-22.4,1.2-24.5,4.1L306.5,259.3z M315.7,274.2l-20,2.1l-2.8-5.5l-4.6-9.1l20.5-1.8l15.4-1.3c0,2.2-1.9,7.3-2.5,9.7
			C319.7,276.1,320.4,271.9,315.7,274.2L315.7,274.2z M324.8,280.5c-1.6-2.4-3.4-4-7.4-4c-4.7,0-6.8,1.1-10.8,1.2
			c-4.3,0.1-8.3,2.6-9.1-0.6l20-2.3h1.7c1.6,1.1,8.5,5,6.3,5.7L324.8,280.5L324.8,280.5z M324.8,281.6c-1.6,1.9-1.4-0.9-4.6-1.1
			v-2.3l4,2.9L324.8,281.6z M320.2,283.9h1.1v2.3h-1.1V283.9z M317.4,291.9c0-4.1-1.3-7.7,2.3-8v14.3
			C316.2,297.9,317.4,295.8,317.4,291.9 M304.8,282.8l9.7-0.6v1.1h1.7v10.3c-0.3,3-2.4,0.8-4.4-0.7c-1.6-1.2-3.3-2-4.7-3.3l-4.8-6.1
			L304.8,282.8z M316.8,282.2h-1.1v-2.3l-7.4,0.6l-8.6,0.7v-1.8h2.3l16.5-2.1v4.3L316.8,282.2z M268.8,247.9l4,6.3l1.7,2.9l4,5.7
			l0.4,1.5l7.1,11.1h0.6l2.9,4.6l2.3,4.8l-14.9,1.5v-1.1h-1.1c-0.8,3-14.8,3.4-19.4,3.4l-0.6-2.9l-2.9-16.5l0.6-0.1v0.1l-2.8,20.8
			l-16.6,0.3c-0.3-1.3-0.6-1.3-0.6-2.9v-1.1c0-1,9.2-10.7,10.8-13.7l6.9-7.4L268.8,247.9z M291.7,361.1h-2.3v23.4
			c0,2,4.7,3.4,6.9,3.4v-24c0-1.7-1-1.9-2.3-2.3v-3.4l-2.3-0.6L291.7,361.1L291.7,361.1z M290.5,362.2L290.5,362.2
			c1.9,3.7,3.4,0.3,3.4,3.4V385h1.1v-22.3L290.5,362.2z M291.1,383.3h1.7V365h-1.7V383.3z M324.5,264.5l-2.1,8.5l4.3,2.9l-1.8-11.4
			H324.5z M304.4,319.2l-1,3.5h-1.1l2.4-9.1l0.6,4.6l0.8-0.2l1.8-2.7l1.4,10.8h-1.1v-2.9c0-1.5-0.3-1.6-0.9-2.9l-0.8,4.1h-1.2
			L304.4,319.2z M321.9,330.2h-1.1v1.1c-2.3-0.6-1.7-0.4-1.7-3.4l-1.1,2.3h-1l-0.7-4.6h-0.6c0,3,0.6,2.8-1.7,3.4l1.2-6.9h1.7v4
			l0.9-0.1l1.4-2.8l0.5,3.4h1.1v-2.7h1l1.3,4.5l0.9-2.8l1.4,2.8v-1.1h1.4l0.5,4.1l1.5-2.9v4h1.1v-2.3h1l0.5,8.1l-1.5-3.5v2.3h-1.1
			v-1.7v-1.1h-1.1v1.1h-1.1l-0.1-3.5l-2.2,2.3l-0.3-4.1l-0.8,3h-1.1v-2.9H321.9z M332.7,348.5l0.8,9.7l-0.3,0.5l-19.8-9.1l0.2-5.6
			l8,3.6l-1.4-0.9v-10.8c3.5-0.3,2.9-1.1,2.9,4c0,2.9,0,5.7,0,8.6h0.6v-11.4h1.7l0.1,1.5l1.6,1.4c3.9-0.3,3.5-1.6,3.4,4
			c0,2.9,0,5.7,0,8.6h0.6v-12h1.7L332.7,348.5z M325.2,349.9l2.5-0.3l0.4,1.9L325.2,349.9z M314.5,342.2v-9.7
			c1.3,0.3,2.3,0.5,2.3,2.3v9.1C315.2,343.8,314.5,343.9,314.5,342.2 M317.4,343.3v-9.1h1.7v11.4C318.2,345,317.4,344.9,317.4,343.3
			 M140.9,141.3l11.1-20.1c5,0.3,5.5,3.6,7.5,7.5c1.1,2.1,5.2,8.5,5.3,10.1l-1.1-0.2l-3.1,19.6l-16.9,3.2l-0.1-18.6
			C143.8,140.6,142.9,141.3,140.9,141.3 M145,138.7c0-0.4,6.6-11.6,7.4-13.1c6.2,3.3,7.4,15.6,7.4,25.7v5.7h-1.7v-17.1
			c0-4.4-2.1-9.1-6.3-9.1c-4.4,0-4,9.3-4,14.3c0,3,0,6.1,0,9.1c0,4.3,1.1,5.6-2.9,5.7v-21.2H145z M149.5,134.2l1.7,2.3l-2.4,0.6
			L149.5,134.2z M160.9,137.6h1.1v3.4c0,2.7-0.6,1.8-0.6,4h-0.6v-7.4H160.9z M154.1,133.6l-0.6,1.1l-1.6,1.2l-1.4-2.9
			c1.7-0.8-0.3-0.6,1.9-0.6h1.7V133.6z M155.8,135.3h-1.7l0.6-1.7L155.8,135.3z M149,158.8l0.1-19.2l7.2-1.9l0.8,19.5L149,158.8z
			 M130.1,225c10.6-0.9,25.8-6.3,34.8-6.3h1.7v41.7l-36.5,5.8V225z M156.4,227.4h2.3l-1.3,2.2c-2.1-0.1-1.7-0.1-2.6-1.5L156.4,227.4
			z M139.1,230.6l0.1,1.3l-1.3-0.1L139.1,230.6z M152.9,230.8l1.7,1.1h-1.7V230.8z M158.1,231.3c0-0.8,1.2-1.4,1.7-1.7v3.4
			C159.3,232.7,158.1,232.1,158.1,231.3L158.1,231.3z M148.9,233c-2.2,0-1.1,0.4-3.4,0.6v-4h5.1v1.7
			C150.7,232.6,150.3,233,148.9,233 M139.8,234.7c0.5-1.9,1.5-2.9,3.4-3.4v2.7L139.8,234.7z M136.4,235.3V233h1.1
			C137.3,236,136.5,235.1,136.4,235.3 M144.4,236.5l2.3-0.6v2.3C143.9,237.9,145.7,239,144.4,236.5 M150.7,237.6
			c0.1-2.7-0.6-2.2,1.7-2.9C152.3,238.2,152.8,236.6,150.7,237.6 M141.5,236.5c1.7,1.2,1.1-0.1,1.1,2.9h-1.1V236.5z M138.9,235.8
			l0.3,4.7l-1.9-0.1L138.9,235.8z M146.5,246.2v0.6l0.1,2.9v2.3c-3.9-0.3-3.7-9.3,0-9.7L146.5,246.2z M137,242.2h2.3v5.7H137V242.2z
			 M138,250.2l1.3-0.1l-0.2,2.4L138,250.2z M136.4,253.6c1.8,1.3,0.9-0.4,1.1,2.3h-1.1V253.6z M141.5,255.9c0-1.3,1.6-1.1,2.9-1.1
			v2.9C143.4,257.4,141.5,257,141.5,255.9 M158.1,246.2h1.7l-1.4,4.5l-0.3,0.1L158.1,246.2L158.1,246.2z M154.1,256.5
			c-0.6-0.5-0.6,0.7-0.6-1.7c0-1.1,0.2-1,0.6-1.7h2.9C156.2,255.1,155.3,254.9,154.1,256.5 M156.4,239.3l-6.9,1.4l0.1,11.2l-1.7,0.6
			V241l-7.4,0.7v-1.1h1.7c2.5,0,4.1-0.8,5.7-1.7c0-3.3-0.8-3.9,1.7-4.6v4.6h2.9c2,0,2.2-0.4,4-0.6v1H156.4z M159.8,244.5h-2.3v-1.7
			v-4h1.8L159.8,244.5z M147.2,259.9l-11.4,1.7h-1.7V229l28.5-5.3v19.1l0.1,13.7l-1.3,1.1l-2.9,0.6l-2.3,0.4L147.2,259.9z
			 M151.2,253.6v1.1v2.9l-3.4,0.6h-1.7v-4h2.3C149.9,254.2,150,253.9,151.2,253.6 M150.7,241.6c2.2,0.2,2.9,1.7,2.9,4v1.1
			c0,2-0.4,2.2-0.6,4h-2.3V241.6z M138.1,256.5l1.7,1.7h-1.7V256.5z M131.3,264.7v-38.2l33.6-6.6v39.6L131.3,264.7z M193.5,264.5
			v-42.9l15.3,9.8l0.1,41L193.5,264.5z M194.9,224.8c1.7-0.3,6.1,2.6,7.3,3.5c1.7,1.3,5.4,3,5.4,5.5L194.9,224.8z M204.3,236.5h1.1
			v1.1h-1.1V236.5z M200.9,234.2c0.9,0.7,1.1,0.1,1.1,1.7v2.3h-1.1V234.2z M201.5,247.3c-0.2-2.9-0.4-0.8-1.1-3.4h1.7
			c0.2,2.9,0.4,0.8,1.1,3.4H201.5z M200.9,261.6v-2.3l1.7,0.5v4C201.7,263.3,200.9,263.1,200.9,261.6 M203.8,261.6h1.1v1.1h-1.1
			V261.6z M195.2,261.6l12.2,6.8l0.3-0.6v2.9c-1.1-0.3-5.7-3.2-6.9-4C198.3,265.1,195.6,265.1,195.2,261.6 M197.5,269l2.4,5.2
			l2.8-2.4l1.7,4.8l2.7-1.4l1.5,0.1l2.1,31.5l-0.8,0.5l-16.4-6.1C193.5,290.9,191.3,273.2,197.5,269 M195.8,280.5
			c0-2.7,0.6-4.1,1.1-6.3c1,1.4,1.7,3.3,1.7,5.7v20.6c-1.8,0-2.9,0.2-2.9-1.7L195.8,280.5L195.8,280.5z M200.9,300.5l-0.3-13.8
			l1.3-9.2l0.7,0.1c0.3,1.3,0.6,1.3,0.6,2.9v21.7C201.6,302.1,200.9,302.2,200.9,300.5 M206,280.5h1.1l0.7,24l-1.8-0.6V280.5z
			 M55.9,283.9l3.4,0.6V273h-1.7l0.1,9.3L55.9,283.9z M55.9,273.6L55.9,273.6c-7.9,0-5.7-1.4-5.7,9.7h5.1l0.6-8.6V273.6z
			 M113.5,274.8v1.1v6.3l-4,0.6L85,285.7c0.7-2.6,6.1-6.7,8.4-8.2c2.5-1.7,8.7-3.8,12.7-3.8h3.4
			C111.7,273.6,112.3,273.9,113.5,274.8 M113,286.8l-28.5,4l-0.1,1.9l7.9-1.4l0.1,0.6v-1.1h2.2l0.3,0.6l2.6-1.2v1.1h1.1
			c0.2-0.9,0.1-1.7,1.1-1.7c2.2,0,0.2-0.2,1.8,0.7l1.7-1.3l1.6,1.2c0.2-0.9,0.1-1.7,1.1-1.7c1.3,0,1.3,0.5,2.3,1.1
			c0.3-0.5,0.4-1.1,1.1-1.1c1.3,0,1.3,0.5,2.3,1.1v-1.7h1.7v-1.1H113z M276.3,426.8v-18.9l-0.7-1.7h1.2L276.3,426.8z M269.4,426.8
			l5.1,0.6l2.3,0.6l23.9,3.7v1.5c-4.1-0.1-17.3-1.9-21.3-2.7c-6.5-1.3-13.7-1.8-20.2-3.3c-5.3-1.2-15.1-2-20.7-2.7
			c-3.1-0.4-7.8-0.8-10.5-1.5c-4.8-1.2-7.8,0.9-7.9-3.6l1.8-0.3c-1.3-0.7-1.8-0.4-1.8-2v-24.6l3.6,2.7l-0.7,0.2l0.5,13.1v9.1
			c0,1.5-0.3,1.6-0.6,2.9l28.5,3.4L269.4,426.8z M268.8,425.1v0.6l-2.3-0.6V416l0.5-12h1.3L268.8,425.1z M274,411.9v14.3h-3.4v-1.7
			v-14.3l1.2-1.6c-0.5-1-0.7-0.9-0.7-2.4v-2.3l3,2.1L274,411.9z M349.9,286.8v1.1h-1.7l1.4,2l0.3,7.7l-7.2-3.7l-0.6,0.3l0.4-11.4
			l1.7,0.1L349.9,286.8z M127.8,296.5l-5.8,1.9l0.1,0.6l32.5-3.6c-3-4.1-8.9-2.1-9.1-14.9l-2.3,0.6
			C143.2,288.7,134.3,295,127.8,296.5 M42.8,296.5h1.1c0.3-1.5,0.5-2.9,2.3-2.9h0.6c1.6,0,1.4,0.4,1.7,1.7h1.1l0.6-1.7l2.8-1.1
			l1.7,5.1c0-2.4,0.7-5.7,2.9-5.7c1.9,0,1.6,1.5,2.9,2.9c0.2-1.1,1.2-4,2.3-4c2.4,0,2.8,1.6,3.1,4.1l1.5-4.7h1.7c2,0,2.2,2,2.6,4.1
			l2-4.7h2.8l0.6,2.9c1.1,3.7,0.5-4,3.4-4c1.9,0,1.7,1,1.7,2.9h1.1v-4.6c-9.8,0-21.2,3.9-30.8,4c-3.6,0-11.4,1.2-15.8,1.9
			c-1.9,0.3-14.4,1.2-14.4,3.3v1.7h2.3c1.5,0,1.6,0.3,2.9,0.6c0.8-1.6,0.3-2.9,2.3-2.9s1.5,1.3,2.3,2.9c1.6,0.6,0.8-3.4,2.9-3.4
			c1.9,0,2.1,1.2,2.3,2.9l0.8-0.1l2-3.4l1.7,0.7L42.8,296.5z M146.1,307.3l-1.2,8l-0.9,0.2l-1.3-7.1h-1.3l-0.4,7.5h-1.2l-1.1-7.4
			h-1.1l-1,8l-1,0.1l-0.9-7h-1.1c-0.3,1.3-0.6,1.3-0.6,2.9v4c0,2.6,4.1,1.9,5.1,5.7h1.1l-0.5-0.5l5.7-5.8c5.1,1.4,8.6,6.1,8.6,12.6
			v18.9h1.7c3.1,0,1.7-28.9,1.7-33.7l-1.7-7l-0.7,0.1l-0.9,7.5h-1.3l-1-7l-0.7,0.1l-1,7.5h-1.2L146.1,307.3z M152.9,306.8v1.1h-1.1
			v-1.1l-2.2-1.4l-0.7,2.5h-1.1l-0.9-1.9l-1.4,0.7l-1.3,1.6c-1-0.7-1.3-1.6-2.7-1.6c-1.2,0-1.1,1.2-1.1,2.3c-0.9-1-0.7-1.7-2.3-1.7
			c-1.6,0-1.4,0.4-1.7,1.7v1.7h-1.1V309l-2.2-1.4l-0.7,2.5l-1.3-1.6l-2.1-0.1l-0.6,2.3l-3-2.7l-1,2.7h-1.1l-0.9-1.9l-1.9,1.4
			l-0.1-2.4l36-4v2.3h-1.1V305L152.9,306.8z M196.3,313.1v-5.7c0-3.8,10.3,1.7,10.3,3.4v5.7c0,5.6-3.6,2-4,6.3h-1.1
			C201.1,317.8,196.3,318.7,196.3,313.1L196.3,313.1z M198,307.3c1.3,0.3,7.4,2.6,7.4,4v4c0,2-0.4,2.2-0.6,4h-3.4
			c-1.1-3-3.4-1-3.4-5.1V307.3z M95.9,323.3L95.9,323.3c0-1.3,0.4-1.7,1.7-1.7h2.9v4h6.3c0.3,1.3,0.6,1.3,0.6,2.9v30.9l-17.1,1.3
			v-31.6c0-1.3,0.9-2.3,2.3-2.3H96L95.9,323.3L95.9,323.3z M97.6,325.1h1.7v1.7h5.1c1.3,0,1.7,0.4,1.7,1.7v29.7l-12,0.7l-2.9-0.1
			v-29.1c0-2.2,4.1-2.3,6.3-2.3L97.6,325.1L97.6,325.1z M247.1,342.2v-3.4c1.6,0.1,2.3,0,2.3,1.7v2.9c1.7,0.1,2.9,0.4,2.9,2.3v26.2
			c0,1.3-0.4,1.7-1.7,1.7c-0.8,0-4.4-1.9-6.3-2.3v-29.1L247.1,342.2L247.1,342.2z M245.4,343.3l5.1,1.1c0.3,1.3,0.6,1.3,0.6,2.9
			v22.9h-1.7v-24C246.2,345.4,245.8,346.4,245.4,343.3 M246.6,366.8v-20h1.7v21.7C247,368.1,246.6,368.4,246.6,366.8 M98.1,357.6
			h-5.7v-22.3c0-1.5,3-4.6,4.6-4.6h2.9c2.6,0,5.1,2.6,5.1,4.6v20C105,357.6,100.5,357.6,98.1,357.6 M99.8,339.3h3.4v16.6l-3.4,0.6
			V339.3z M97,338.8h-2.9v-4.6c1.6-1.1,2-2.3,4.6-2.3h1.1c1.8,0,3.4,1.8,3.4,4v2.3L97,338.8z M99.1,339.4l0.1,3.6l-5.4,0.2l0.1-3.5
			L99.1,339.4z M34.8,333.1c0-7.6,12.7-12.6,21.1-12.6h2.3c9.1,0,13.7,4,13.7,13.1v29.1l-37.1,3.2L34.8,333.1z M70.2,361.6
			l-14.3,1.1l-20,1.9v-29.9c0-3.1,1-5,2.9-6.3c-0.7,3.1-2.3,2.8-2.3,6.9v1.7c3.1-0.8,3.6-4.5,9-2.8c4.2,1.3,4.1,3.6,4.1,9.1
			c0,4.4,0,8.8,0,13.1c0,8.7-0.5,5.7,6.3,5.7c0-10.1-3.3-30.3,6.9-30.3h0.6c2.3,0,3.1,0.9,4,2.3c-2-0.5-1.9-1.1-4-1.1h-1.7
			c-7.1,0-4.6,20-4.6,27.4l11.4-0.6v-22.3c0-1.5-0.3-1.6-0.6-2.8l1.7,0.5c0-9.3-1.9-11.6-10.2-12.6c-3.4-0.4-5.8,0.2-9.7,0.7
			c-4.3,0.5-5.6,2.6-8.6,2.8c3.5-3,9-4.6,15.4-4.6h1.7c9.4,0,12.6,4.7,12.6,14.3C70.7,341.2,72.2,358.4,70.2,361.6 M37.6,334.8
			c0.5-5.9,8.7-10.9,14.8-10.9H61c4.7,0,7.4,3.7,7.4,8.6c-2.3-0.6-1.9-1.7-4.6-1.7c-4.5,0-8.2,2.1-8.6,6.3h-5.1l-2.9-3.9v-0.6
			L37.6,334.8z M50.7,339.3h4v17.1h-4V339.3z M63.9,343.3c0-1.3,0.4-1.7,1.7-1.7h1.7v17.1h-3.4L63.9,343.3L63.9,343.3z M58.2,346.8
			h5.1v12.6h-5.1V346.8z M63.9,341.1l-5.7,0.7v-3.5v-1.7c2.7-0.7,1.9-2.3,5.1-2.3c3.2,0,4,2,4,5.1v1.7L63.9,341.1L63.9,341.1z
			 M58.7,342.8l4.6-0.6c0,2,0.3,3.4-1.7,3.4h-3.4L58.7,342.8z M50.7,358.8h4v2.3h-4V358.8z M37,361.1v-21.2c0-1.8,3.4-5.1,5.1-5.1
			h1.7c3.5,0,5.1,2.7,5.1,6.3v19.4C49,363,37,363.4,37,361.1 M38.8,339.9c0-1.6,1.6-2.2,2.3-4H44c2.1,0,4,2.8,4,5.1
			c0,2.3-6.9,2.3-9.1,2.3L38.8,339.9L38.8,339.9z M38.8,344.5h4.6v2.9h-1.7c-1.5,0-1.6,0.3-2.9,0.6L38.8,344.5L38.8,344.5z
			 M44.5,345.1c0-1.3,0.4-1.7,1.7-1.7h1.7v17.1h-3.4V345.1z M38.8,350.2c0-1.3,0.4-1.7,1.7-1.7h2.9v12.6h-4.6L38.8,350.2L38.8,350.2
			z M268.3,379.9v-25.1c0-2.3,1.4-2,2.9-1.7v-3.5l2.3,0.6v3.4c1.3,0.7,2.3,0.5,2.3,2.3l-0.1,26.4L268.3,379.9z M269.4,355.3v-1.1
			l5.2,1.1v23.5c-0.9-0.7-1.1-0.1-1.1-1.7v-20.6L269.4,355.3z M271.2,357.6h1V377h-1.7l-0.1-7.4L271.2,357.6z M155.2,381.6
			c-0.7-1.5-0.6,0.5-0.6-1.7v-2.3l6.3,0.6v3.4H155.2z M188.9,383.9c-1.8,0-2.9,0.2-2.9-1.7v-1.7l2.9,0.6V383.9z M164.9,386.2h-5.7
			v-2.3c0-1.3,0.4-1.7,1.7-1.7h4V386.2z M188.3,387.9c-1.6-0.1-2.3,0-2.3-1.7v-1.8l2.3,0.6V387.9z M121,388.5v-4h8.6v2.3
			c0,1.3-0.4,1.7-1.7,1.7H121z M164.9,391.9v-4.6h5.1c1.3,0,1.7,0.4,1.7,1.7v2.9H164.9z M156.4,387.3h6.9v4h-6.9V387.3z M35.9,387.3
			h6.9v5.1h-6.9V387.3z M186.6,392.5v-1.1l0.1-3.1l3.9,1.4v1.1l-0.1,3.1L186.6,392.5z M160.9,395.9c-2.8,1.8-6.9,0.3-4.6-3.4h4.6
			V395.9z M188.3,395.9v2.9c-2.8-0.2-2.3-0.5-2.3-3.4L188.3,395.9z M46.2,398.8c0-3.2,1.8-6.9,4.6-6.9h2.9c2.6,0,5.7,1.1,5.7,3.4
			v26.3l-8.6,0.7l-4.6-0.1L46.2,398.8L46.2,398.8z M57.6,419.9h-2.9v-18.3h-6.9v-3.4c0-2.1,0.7-2,1.1-4c1.8-0.1,2-0.6,4-0.6H54
			c1.9,0,4,1,4,2.9v3.9l-2.3,0.6H58L57.6,419.9z M47.9,402.2h5.7v3.4l-5.7,0.6L47.9,402.2L47.9,402.2z M47.9,407.4
			c1.3-0.3,1.3-0.6,2.9-0.6h2.9v13.7H48L47.9,407.4L47.9,407.4z M190.6,406.8l-2.3-0.6l0.5-3.4l2.4,0.6L190.6,406.8z M118.7,403.4
			h5.7v4.6h-5.7V403.4z M71.3,408.5c0-1.3,0.4-1.7,1.7-1.7h4c1.3,0,1.7,0.4,1.7,1.7v3.4H73c-1.3,0-1.7-0.4-1.7-1.7V408.5z
			 M117,413.1v-4.6h4c1.3,0,1.7,0.4,1.7,1.7v2.9L117,413.1L117,413.1z M36.5,410.8c0-1.3,0.4-1.7,1.7-1.7h3.4c1.3,0,1.7,0.4,1.7,1.7
			v2.9h-6.9v-2.9H36.5z M164.4,409.6c0.7,1.4,1.5,4-1.1,4h-6.9v-2.3c0-2.2,1.9-1.7,4-1.7c-0.4-0.7-0.6-0.6-0.6-1.7v-2.3h6.3v2.3
			C166.1,409.5,165.6,409.3,164.4,409.6 M130.1,414.2h-4.6v-4.6h5.7h1.7v4.6H130.1z M172.4,410.2v4h-5.1c-1.3,0-1.7-0.4-1.7-1.7
			v-2.3c1.3-0.3,1.3-0.6,2.9-0.6h1.1C171,409.6,171.1,409.9,172.4,410.2 M186.1,415.4v-2.3h2.3v3.4h-2.3V415.4z M139.2,401.6
			c1.3-0.3,1.3-0.6,2.9-0.6h3.4v16h-6.3V401.6z M152.4,417.6l-14.8,1.3v-19c0-8.1-0.7-14.9,7.4-14.9h0.6c7.5,0,6.9,5.7,6.9,13.1
			v19.5H152.4z M148.9,395.4h1.7v21.1h-1.7h-2.3v-21.1L148.9,395.4L148.9,395.4z M139.2,395.4c0-5.6,0.7-8.6,6.3-8.6h1.1
			c1.6,0,4,2.4,4,4v3.4l-1.7,0.6L139.2,395.4z M139.2,400.5v-4c1.5-0.7-0.5-0.6,1.7-0.6h4.6v4L139.2,400.5z M171.8,416.5v2.3h-6.9
			c-1.3,0-1.7-0.4-1.7-1.7v-2.3h6.9C171.4,414.8,171.8,415.2,171.8,416.5 M158.1,382.8l0.6,3.3l-4,0.7l0.6,5.1v27.4
			c0,3-7.2,1.3-10.6,1.9c-2.9,0.5-9.9,1.7-9.9-0.8v-1.7h-4.6v-4h4.6V409h-3.4c-0.4-0.7-0.6-0.6-0.6-1.7v-1.7c-1.6-0.1-2.3,0-2.3-1.7
			v-0.6c0-1.7,0.7-1.6,2.3-1.7V397h4v-5.1c0-10.8,11-12.1,18.8-6.9l0.6-2.3L158.1,382.8L158.1,382.8z M135.8,393.6
			c0-6.1,3.8-10.9,9.7-10.9c4,0,8,3.4,8,8v29.2h-4.6l-13.1,0.7V393.6z M166.1,423.4v-4.1l5.7,0.6v3.4L166.1,423.4L166.1,423.4z
			 M172.4,419.9c0.7-1,0.1-1.1,1.7-1.1h3.4c1.3,0,1.7,0.4,1.7,1.7v2.3h-6.3L172.4,419.9z M186.1,422.2v-4.6h2.3v5.1L186.1,422.2z
			 M119.3,422.2l0.6-2.3h5.1v4.6h-5.7V422.2z M62.7,397.6l5.1-0.6v4.1l-5.7,0.6v1.1c2.9,0,7.4-0.9,7.4,1.7v1.1
			c0,1.3-0.4,1.7-1.7,1.7h-5.7v14.9c0,3.2-15,2.8-18.3,2.9v-25.7l0.7-6.3c2.1-1.5,4-4.6,7.9-4.6h1.1C61.9,388.5,60.5,394,62.7,397.6
			 M45.6,393.6c2-1.4,3.5-4,6.9-4c3.3,0,8,2.3,8,5.1v28l-8.6,0.7l-6.9-0.1v-23.4L45.6,393.6z M97.8,369.2c0.4,0.7,8.4,17.1,9.1,19.1
			c1.2,3.2,0.4,23.1,0.4,28.2h-1.1c0-10.8,1.6-38.3-7.4-38.3c-6.1,0-8,11.8-8,18.9v18.3H89v-16.6l0.3-9L97.8,369.2z M98.7,379.4
			c4.3,2.9,4.4,5.7,5.7,11.4c-1-0.5-3.8-1.7-5.1-1.7h-1.1c-1.5,0-4.3,1.6-5.7,2.3l3.5-10.7L98.7,379.4z M93.6,392.5
			c2.3-0.5,2.9-1.7,5.1-1.7h1.1c1.9,0,4.6,2.6,4.6,5.1v1.7l-12,1.4v-3.1C92.4,393.7,93.3,395.9,93.6,392.5 M92.4,399.9h6.9v2.9
			c0,2.3-4.4,2.3-6.9,2.3V399.9z M98.7,405.6v9.7h-6.3v-9L98.7,405.6z M99.8,399.4h4.6v16.5h-4.6V399.4z M94.7,418.8l2.3-0.7v1.8
			h0.6v-1.7h1.1l0.6,3.4l1.1-1.7v-1.1h1.7l0.6,4.6l-1.2-0.6l-0.7,1.1h-1.6l-0.3-1.8l-0.9,1.8c-2.2,0-6.6,0.9-6.3-1.7l0.7-5.1h4.4
			v0.6h-2.9L94.7,418.8z M80.4,424.5l-0.6,5.1c-0.9-0.6-1.7-0.8-1.7-2.3v-0.6c0-2,0.4-2.2,0.6-4l3.1-3.7l0.6,0.4l-1.9,3.3v1.8H80.4z
			 M103.8,418.8l0.7,5.1h-0.6l-1.5-5L103.8,418.8z M84.4,424.5v0.6c0,2.7,0.6,4.1,1,6.4l-2.2-1.8v-5.8c0-1.9,1.2-4.3,2.3-5.1
			C85.6,422.7,84.4,421.8,84.4,424.5L84.4,424.5z M86.6,426.2l0.1,2.9h-1l-0.8-2.9l2.5-7.4L86.6,426.2z M88.4,418.8l2.2,1.3l0.1,5.5
			h-1.1v-1.1l-1.1,0.6v-6.3H88.4z M106.1,424v-1.2v-1.7c1,0.7,1.1,0.1,1.1,1.7l-0.2,3L106.1,424z M110.1,424.5
			c0,3.7-0.3,3.6-1.7,5.8l-1.1-0.6l-1.1,1.7H105v-1.7h-1.1v1.1h-1.7H101l1.2-4h1.1l3.4,0.6l1.6-0.6l0.7,1.7v-1.7
			c0-2-0.4-2.2-0.4-4.1L110.1,424.5z M80.4,424.5l1.1-1.1v5.1h-1.1V424.5z M89.5,426.8h1.1l1.2,4h-1.6L89.5,426.8z M87.9,426.8H89
			v2.3h-1.1V426.8z M94.1,426.8h4l1.1,1.1v-1.1h1.8l-0.6,2.3l-1.7,1.7c-1.3-0.3-1.7-0.6-3.4-0.6h-2.9l-0.5-3.4H94.1z M86.1,429.6
			h1.1v1.1h-1.1V429.6z M74.2,428.5l-0.6-1.1l0.6-4l2.9-2.3v-1.7h1.7c2.2,0.8,0.7,0.5,0,3.4l-1,0.6l-0.5,3.4l0.4,2.9
			c-3.1-2-1.8-3.8-1.1-6.9C73.4,425,75.7,426,74.2,428.5 M112.4,406.8l0.6-89.7l-29.7,3.5v28v67.6l4-0.7v-22.9
			c-4.7-0.4,1.7-10.5,3.1-14c1.8-4.4,5.7-11.9,6.6-15.7l1,0.1l13.4,28.1l-2.9,0.4v25.7h4v-10.4H112.4z M88.4,429.6h1.1v1.1h-1.1
			V429.6z M172.4,427.4v-3.5h11.4v1.7C183.8,428.6,175.3,427.4,172.4,427.4L172.4,427.4z M186.1,426.8v-3.4c1.6,0.1,2.3,0,2.3,1.7
			v1.7H186.1z M130.7,426.8v4h-6.3v-2.3c0-1.1,0.2-1,0.6-1.7H130.7z M164.4,431.4H161c-1.3,0-1.7-0.4-1.7-1.7v-2.9h6.9v2.9
			C166.1,431,165.7,431.4,164.4,431.4 M186.1,431.9v-4h4v5.7h-2.3C186.5,433.6,186.1,433.2,186.1,431.9 M137,433.1h-5.7v-2.3
			c0-1.1,0.2-1,0.6-1.7C135.3,429.1,139.8,428.5,137,433.1 M201.5,439.4l-4-7.4l14.1,0.3l-5.5,7.1l-3.2,2.1L201.5,439.4z
			 M195.8,433.1l5.1,6.9l1.3,2.2c-3.1-0.7-6.3-5.3-7-8.4l-0.6-0.6l-1.1-3.4v-1.9h21.7l-1.1,4l-2.1,3.7l-1.9,2.6l-6,5.5l-0.6-0.6
			l3.1-3.2l6.3-7.4v-1.1c-2.2-1-6.6-0.6-9.7-0.6C199.1,430.8,196.1,429.5,195.8,433.1 M166.6,435.4l-3.4,0.2l-8-0.2v-2.9h11.4V435.4
			z M129.5,438.8v-4.6h5.7v5.2L129.5,438.8z M168.4,436.5v-2.9l6.3,0.6v4.6h-6.3V436.5z M127.8,438.8h-6.3v-4l6.9-0.6v4.6H127.8z
			 M59.3,437.1l0.6-3.4h7.4v4.6h-7.4l-0.6,2.9h-5.7v-4L59.3,437.1L59.3,437.1z M167.8,439.4c-1.2,0.8-9.1,1.7-9.1-1.1v-1.7h1.1h8
			V439.4z M192.9,441.1v-1.7l4,0.5v2.9h-2.3C193.3,442.8,192.9,442.4,192.9,441.1 M176.9,446.8c1.1,2.2,2.9,5.7-1.7,5.7h-5.7v-5.1
			l5.2-0.7L176.9,446.8z M186.6,439.4v12.5V439.4z M188.9,452.5v-17.7v4.6h-2.3v-4.6h2.3l0.6,9.7c0.7,1,1.1,1,1.1,2.3v5.7H188.9z
			 M188.9,452.5c0.7,1,1.1,1,1.1,2.3v2.7h-3.4v-5.6h0.3h0.8l0.2,1.8L188.9,452.5z M217.5,435.9l-8,4.6l1.1-1.1
			c0.9-1.2,5.9-10.3,6.9-10.3h5.1l0.5,0.4l-4.5,5.3L217.5,435.9z M208.9,442.2l-4,1.7c0.1,5.7,2.3,2.5,4.7,6.2
			c1.4,2.1,2.2,5.7,3.9,7v-0.6l0.6-1.1h2.9v-1.1h-4l-0.5-3.6l4.5,1.4l-0.1-13.9L208.9,442.2z M74.2,457.5h-4
			c-2.9-7.5-11.4-11.3-20.7-11.3c-8.6,0-17.9,4.7-20.3,11.3h-3.6c0.5-2.3,1.3-4.4,2.5-5.9c2.3-3.1,6.1-6.3,9.9-7.9
			c1.8-0.7,4.7-1.3,7-2.1c3.4-1.2,2.4-2.1,5.2-3.9l2.3,3.4l5.1,1.1c5,2.4,9.5,3,12.9,7.6c1.4,1.9,3,4.5,3.5,6.8
			C74.1,456.9,74.2,457.2,74.2,457.5 M107.2,457.5h-2.8c-0.7-0.3-1.4-0.6-1.8-0.9c-2-1.4-0.7-1.6-3.1-3l-1.4-4.5
			c-1.9,1.4-1.5,4-3.5,6.2c-1,1-2.1,1.7-3.2,2.3h-2.8c3.1-1.8,7.2-2.4,7.2-9.6l1.6-1.2c4.6,3.1-0.4,4.9,6.6,8.9
			C105.2,456.2,106.3,456.8,107.2,457.5 M30.8,451.4l-3.2,4.7l2.6-5.3c6.8-7.9,15.1-5.8,20-11.4l2.3,3.4l0.2-0.6l12.9,5.2h1.1
			c1.7,2.6,3.8,2.9,4.6,6.3c-1.9-1.3-4.4-4-6.3-5.7c-4.6-1.2-7.7-4-14.8-4h-0.6C40.6,443.9,36,447.8,30.8,451.4 M54.7,449.6h-3.4
			v7.9h-2.9v-7.9h-2.9c-3.9,0-10,3.7-13,7.9h-1.6c0-0.1,0.1-0.1,0.1-0.2c3.1-5.6,18.1-12.9,25.4-8.3c4.5,0.1,9.6,3.7,12.1,8.4h-1.3
			C64.7,453.3,59.7,450.8,54.7,449.6 M66.2,173.6l0.3-1.2l0.9,3.5l-2.9,0.6l-0.7-4.5l1.5,1.6H66.2z M93.7,343.9c1.8-0.2,1.9,0,3.9,0
			h1.7v12.6h-5.7L93.7,343.9z"/>
	</g>
</g>
</svg>
