<?xml version="1.0" encoding="utf-8"?>
<!-- Generator: Adobe Illustrator 27.4.1, SVG Export Plug-In . SVG Version: 6.00 Build 0)  -->
<svg version="1.1" id="Слой_1" xmlns="http://www.w3.org/2000/svg" xmlns:xlink="http://www.w3.org/1999/xlink" x="0px" y="0px"
	 viewBox="0 0 364.9 442.6" style="enable-background:new 0 0 364.9 442.6;" xml:space="preserve">
<style type="text/css">
	.st0{opacity:0.1;}
	.st1{enable-background:new    ;}
</style>
<g class="st0">
	<g>
		<path class="st1" d="M153.5,419.9v-29.2c0-4.6-4-8-8-8c-5.9,0-9.7,4.8-9.7,10.9v27l13.1-0.7H153.5z M145,385h0.6
			c7.5,0,6.9,5.7,6.9,13.1v19.5h-0.1l-14.8,1.3v-19C137.6,391.8,136.9,385,145,385z"/>
		<path class="st1" d="M130.1,225v41.2l36.5-5.8v-41.7h-1.7C155.9,218.7,140.7,224.1,130.1,225z M164.9,259.5l-33.6,5.2v-38.2
			l33.6-6.6V259.5z"/>
		<path class="st1" d="M113.6,441.8c0-0.1,0-0.1,0-0.2c0-0.6,0.1-1.1,0.1-1.7h-0.2v-1.1h0.2c-0.1-3.4-0.4-6.7-0.2-10.1
			c0-0.3,0-0.5,0.1-0.8H113v-5.7c-2.1,3.3-0.6,8.3-0.6,13.1l-0.2,6.5C112.7,441.8,113.2,441.8,113.6,441.8z"/>
		<path class="st1" d="M45.6,393.6l-0.6,6.3v23.4l6.9,0.1l8.6-0.7v-28c0-2.8-4.7-5.1-8-5.1C49.1,389.6,47.6,392.2,45.6,393.6z
			 M59.4,395.3v26.3l-8.6,0.7l-4.6-0.1v-23.4c0-3.2,1.8-6.9,4.6-6.9h2.9C56.3,391.9,59.4,393,59.4,395.3z"/>
		<path class="st1" d="M99.9,330.7H97c-1.6,0-4.6,3.1-4.6,4.6v22.3h5.7c2.4,0,6.9,0,6.9-2.3v-20C105,333.3,102.5,330.7,99.9,330.7z
			 M93.9,339.7l5.2-0.3l0.1,3.6l-5.4,0.2L93.9,339.7z M99.3,356.5h-5.7l0.1-12.6c1.8-0.2,1.9,0,3.9,0h1.7V356.5z M103.2,355.9
			l-3.4,0.6v-17.2h3.4V355.9z M103.2,338.2l-6.2,0.6h-2.9v-4.6c1.6-1.1,2-2.3,4.6-2.3h1.1c1.8,0,3.4,1.8,3.4,4V338.2z"/>
		<path class="st1" d="M47.8,398.2v3.4h6.9v18.3h2.9L58,401h-2.3l2.3-0.6v-3.9c0-1.9-2.1-2.9-4-2.9h-1.1c-2,0-2.2,0.5-4,0.6
			C48.5,396.2,47.8,396.1,47.8,398.2z"/>
		<path class="st1" d="M47.9,407.4l0.1,13.1h5.7v-13.7h-2.9C49.2,406.8,49.2,407.1,47.9,407.4z"/>
		<path class="st1" d="M43.8,334.8h-1.7c-1.7,0-5.1,3.3-5.1,5.1v21.2c0,2.3,12,1.9,11.9-0.6v-19.4C48.9,337.5,47.3,334.8,43.8,334.8
			z M43.4,361.1h-4.6v-10.9c0-1.3,0.4-1.7,1.7-1.7h2.9V361.1z M43.4,347.4h-1.7c-1.5,0-1.6,0.3-2.9,0.6v-3.5h4.6V347.4z M47.9,360.5
			h-3.4v-15.4c0-1.3,0.4-1.7,1.7-1.7h1.7V360.5z M38.9,343.3l-0.1-3.4c0-1.6,1.6-2.2,2.3-4H44c2.1,0,4,2.8,4,5.1
			S41.1,343.3,38.9,343.3z"/>
		<path class="st1" d="M107.4,328.5c0-1.6-0.3-1.6-0.6-2.9h-6.3v-4h-2.9c-1.3,0-1.7,0.4-1.7,1.7l0.1,3.5h-3.4c-1.4,0-2.3,1-2.3,2.3
			v31.6l17.1-1.3V328.5z M106.1,358.2l-12,0.7l-2.9-0.1v-29.1c0-2.2,4.1-2.3,6.3-2.3l0.1-2.3h1.7v1.7h5.1c1.3,0,1.7,0.4,1.7,1.7
			V358.2z"/>
		<polygon class="st1" points="53.6,402.2 47.9,402.2 47.9,406.2 53.6,405.6 		"/>
		<path class="st1" d="M71.9,333.6c0-9.1-4.6-13.1-13.7-13.1h-2.3c-8.4,0-21.1,5-21.1,12.6v32.8l37.1-3.2V333.6z M50.7,356.4v-17.1
			h4v17.1H50.7z M54.7,358.8v2.3h-4v-2.3H54.7z M50.1,337.1l-2.9-3.9v-0.6l-9.6,2.2c0.5-5.9,8.7-10.9,14.8-10.9H61
			c4.7,0,7.4,3.7,7.4,8.6c-2.3-0.6-1.9-1.7-4.6-1.7c-4.5,0-8.2,2.1-8.6,6.3H50.1z M70.2,361.6l-14.3,1.1l-20,1.9v-29.9
			c0-3.1,1-5,2.9-6.3c-0.7,3.1-2.3,2.8-2.3,6.9v1.7c3.1-0.8,3.6-4.5,9-2.8c4.2,1.3,4.1,3.6,4.1,9.1v13.1c0,8.7-0.5,5.7,6.3,5.7
			c0-10.1-3.3-30.3,6.9-30.3h0.6c2.3,0,3.1,0.9,4,2.3c-2-0.5-1.9-1.1-4-1.1h-1.7c-7.1,0-4.6,20-4.6,27.4l11.4-0.6v-22.3
			c0-1.5-0.3-1.6-0.6-2.8l1.7,0.5c0-9.3-1.9-11.6-10.2-12.6c-3.4-0.4-5.8,0.2-9.7,0.7c-4.3,0.5-5.6,2.6-8.6,2.8
			c3.5-3,9-4.6,15.4-4.6h1.7c9.4,0,12.6,4.7,12.6,14.3C70.7,341.2,72.2,358.4,70.2,361.6z M63.9,341.1l-5.7,0.7v-5.2
			c2.7-0.7,1.9-2.3,5.1-2.3s4,2,4,5.1v1.7H63.9z M67.3,341.6v17.1h-3.4v-15.4c0-1.3,0.4-1.7,1.7-1.7H67.3z M61.6,345.6h-3.4l0.5-2.8
			l4.6-0.6C63.3,344.2,63.6,345.6,61.6,345.6z M63.3,346.8v12.6h-5.1v-12.6H63.3z"/>
		<path class="st1" d="M249.4,343.4v-2.9c0-1.7-0.7-1.6-2.3-1.7v3.4l-2.8,0v29.1c1.9,0.4,5.5,2.3,6.3,2.3c1.3,0,1.7-0.4,1.7-1.7
			v-26.2C252.3,343.8,251.1,343.5,249.4,343.4z M248.3,368.5c-1.3-0.4-1.7-0.1-1.7-1.7v-20h1.7V368.5z M251.1,370.2h-1.7v-24
			c-3.2-0.8-3.6,0.2-4-2.9l5.1,1.1c0.3,1.3,0.6,1.3,0.6,2.9V370.2z"/>
		<path class="st1" d="M147.2,259.9l9-1.3l2.3-0.4l2.9-0.6l1.3-1.1l-0.1-13.7v-19.1l-28.5,5.3v32.6h1.7L147.2,259.9z M144.4,257.7
			c-1-0.3-2.9-0.7-2.9-1.8c0-1.3,1.6-1.1,2.9-1.1V257.7z M146.6,242.3l-0.1,3.9v0.6l0.1,2.9v2.3
			C142.7,251.7,142.9,242.7,146.6,242.3z M151.2,257.6l-3.4,0.6h-1.7v-4h2.3c1.5,0,1.6-0.3,2.8-0.6V257.6z M150.7,250.7v-9.1
			c2.2,0.2,2.9,1.7,2.9,4v1.1c0,2-0.4,2.2-0.6,4H150.7z M154.1,256.5c-0.6-0.5-0.6,0.7-0.6-1.7c0-1.1,0.2-1,0.6-1.7h2.9
			C156.2,255.1,155.3,254.9,154.1,256.5z M158.4,250.7l-0.3,0.1v-4.6h1.7L158.4,250.7z M157.5,244.5v-5.7h1.8l0.5,5.7H157.5z
			 M159.8,233c-0.5-0.3-1.7-0.9-1.7-1.7c0-0.8,1.2-1.4,1.7-1.7V233z M156.4,227.4h2.3l-1.3,2.2c-2.1-0.1-1.7-0.1-2.6-1.5
			L156.4,227.4z M152.9,230.8l1.7,1.1h-1.7V230.8z M156.5,238.3v1h-0.1v0l-6.9,1.4l0.1,11.2l-1.7,0.6V241l-7.4,0.7v-1.1h1.7
			c2.5,0,4.1-0.8,5.7-1.7c0-3.3-0.8-3.9,1.7-4.6v4.6h2.9C154.5,238.9,154.7,238.5,156.5,238.3z M141.5,239.4v-2.9
			c1.7,1.2,1.1-0.1,1.1,2.9H141.5z M152.4,234.7c-0.1,3.5,0.4,1.9-1.7,2.9C150.8,234.9,150.1,235.4,152.4,234.7z M145.5,229.6h5.1
			v1.7c0.1,1.3-0.3,1.7-1.7,1.7c-2.2,0-1.1,0.4-3.4,0.6V229.6z M146.7,235.9v2.3c-2.8-0.3-1,0.8-2.3-1.7L146.7,235.9z M143.2,231.3
			v2.7l-3.4,0.7C140.3,232.8,141.3,231.8,143.2,231.3z M138.1,258.2v-1.7l1.7,1.7H138.1z M138,250.2l1.3-0.1l-0.2,2.4L138,250.2z
			 M139.3,247.9H137v-5.7h2.3V247.9z M137.3,240.4l1.6-4.6l0.3,4.7L137.3,240.4z M139.1,230.6l0.1,1.3l-1.3-0.1L139.1,230.6z
			 M136.4,233h1.1c-0.2,3-1,2.1-1.1,2.3V233z M136.4,253.6c1.8,1.3,0.9-0.4,1.1,2.3h-1.1V253.6z"/>
		<path class="st1" d="M273.5,353.6v-3.4l-2.3-0.6v3.5c-1.5-0.3-2.9-0.6-2.9,1.7v25.1l7.4,2.4l0.1-26.4
			C275.8,354.1,274.8,354.3,273.5,353.6z M272.2,377h-1.7l-0.1-7.4l0.8-12h1V377z M274.6,378.8c-0.9-0.7-1.1-0.1-1.1-1.7v-20.6
			l-4.1-1.2v-1.1l5.2,1.1V378.8z"/>
		<path class="st1" d="M145.5,401h-3.4c-1.6,0-1.6,0.3-2.9,0.6V417h6.3V401z"/>
		<path class="st1" d="M145.5,395.9h-4.6c-2.2,0-0.2-0.1-1.7,0.6v4l6.3-0.6V395.9z"/>
		<path class="st1" d="M150.6,394.2v-3.4c0-1.6-2.4-4-4-4h-1.1c-5.6,0-6.3,3-6.3,8.6l9.7-0.6L150.6,394.2z"/>
		<rect x="146.6" y="395.4" class="st1" width="4" height="21.1"/>
		<path class="st1" d="M152,121.2l-11.1,20.1c2,0,2.9-0.7,2.7,1.5l0.1,18.6l16.9-3.2l3.1-19.6l1.1,0.2c-0.1-1.6-4.2-8-5.3-10.1
			C157.5,124.8,157,121.5,152,121.2z M160.8,137.6h1.2v3.4c0,2.7-0.6,1.8-0.6,4h-0.6V137.6z M152.4,132.4h1.7v1.2h0l-0.6,1.1
			l-1.6,1.2l-1.4-2.9C152.2,132.2,150.2,132.4,152.4,132.4z M154.7,133.6l1.1,1.7h-1.7L154.7,133.6z M151.2,136.5l-2.4,0.6l0.7-2.9
			L151.2,136.5z M149,158.8l0.1-19.2l7.2-1.9l0.8,19.5L149,158.8z M159.8,157h-1.7v-17.1c0-4.4-2.1-9.1-6.3-9.1c-4.4,0-4,9.3-4,14.3
			v9.1c0,4.3,1.1,5.6-2.9,5.7v-21.2h0.1c0-0.4,6.6-11.6,7.4-13.1c6.2,3.3,7.4,15.6,7.4,25.7V157z"/>
		<path class="st1" d="M332.8,340.6h-1.7v12h-0.6V344c0.1-5.6,0.5-4.3-3.4-4l-1.6-1.4l-0.1-1.5h-1.7v11.4h-0.6v-8.6
			c0-5.1,0.6-4.3-2.9-4v10.8l1.4,0.9l-8-3.6l-0.2,5.6l19.8,9.1l0.3-0.5l-0.8-9.7L332.8,340.6z M325.2,349.9l2.5-0.3l0.4,1.9
			L325.2,349.9z"/>
		<path class="st1" d="M315.7,325.6h0.6l0.7,4.6h1l1.1-2.3c0,3-0.6,2.8,1.7,3.4v-1.1h1.3v2.9h1.1l0.8-3l0.3,4.1l2.2-2.3l0.1,3.5h1.1
			v-1.1h1.1v2.8h1.1v-2.3l1.5,3.5l-0.5-8.1h-1v2.3h-1.1v-4l-1.5,2.9l-0.5-4.1h-1.4v1.1l-1.4-2.8l-0.9,2.8l-1.3-4.5h-1v2.7h-1.1
			l-0.5-3.4l-1.4,2.8l-0.9,0.1v-4h-1.7L314,329C316.3,328.4,315.7,328.6,315.7,325.6z"/>
		<path class="st1" d="M306.1,318l-0.8,0.2l-0.6-4.6l-2.4,9.1h1.1l1-3.5l0.9,5.2h1.2l0.8-4.1c0.6,1.3,0.9,1.4,0.9,2.9v2.9h1.1
			l-1.4-10.8L306.1,318z"/>
		<path class="st1" d="M314.5,342.2c0,1.7,0.7,1.6,2.3,1.7v-9.1c0-1.8-1-2-2.3-2.3V342.2z"/>
		<path class="st1" d="M317.4,343.3c0,1.6,0.8,1.7,1.7,2.3v-11.4h-1.7V343.3z"/>
		<path class="st1" d="M365.4,276.6l0.7-0.7l-1.8-1.6c-2.3-3.4-10.7-11.4-14.3-15.4l-2.9-1.1c-4.9-4.2-4.5,0.6-7.1-9.5
			c-1-3.8-2-10.9-3.8-13.4l-0.6-3.4l-2.3-8.6c-0.3-4-7.5-31.2-9.1-36c-3.7-11.1-3.4-24.2-3.4-40h-1.1c0,30.4-2.4,35.5-7.9,60.1
			c-2.1,9.4-5,18.4-6.7,28.1c-1.6,8.6-2.5,22.8-10.7,24.9l-1-24.6H293l-1.3,17.7l-0.6,2.3H290v-8.6l-0.6,7.4h-0.5l-0.6-8.6v7.4h-1.1
			l0.2-3.4l-0.2-4.6h-0.6v6.9H286l-0.6-8v7.4l-2.3-1.1v-8l-0.6,7.4H282v-2.8c0,1.6-0.2,1-1.1,1.7v-2.3l-0.4-5.2l-0.2,4v2.9l-2.3-0.7
			v-9l-0.6,7.4h-0.5v-8h-0.6v7.4h-1.1l0.5-2.3l-0.5-6.3l-0.6,7.4H274l-0.6-8v7.4h-0.6v-4l-1.5,2.4l-0.2-7.5h-0.6v7.4H270v-8
			l-1.7,6.3v-1.7c-0.4-0.7-0.6-0.6-0.6-1.7v-16.5h-1.1v17.7l-0.6,4.6l-1.1,0.6c0.8,9-0.3,4-5.3,11.2c-2.8,4-6.3,6.6-9,10.5l-6.9,7.4
			l-10.3,11.3l-1.1-1.1v2.9h-1l-5-29.2l-5,33l-4.4-2v-77.6l12.5-2.4l4.6-0.6l3.5-3.3l0.5,0.4c-0.8-2.9-22.2-19.3-26.1-23
			c-7.4-7-6.9-2.4-10.5-14.1c-1.8-5.9-4.3-13.6-5.6-19.4l2.8-0.7c-2.5-5.3-1.1-20-8.5-20l-2.9-9.1l-0.6-1.7l-0.6-1.7l-2.3-8l-4.6-16
			l-6.3-21.1l-1.1-3.4c0-3.9-3.9-15.2-4.5-20.6l-0.7-6.3h-1.6l-0.1-36h-1.1l-0.1,36l-0.8-0.1l-0.8,5.3v1.1
			c0,11.4-18.9,63.5-23.2,79.7c-3.4,12.9-8.4,26.7-12.2,39.8c-3.8,12.8-1.4,8.7-12.5,13.8c-4.8,2.2-14.3,5.4-18.3,7.9
			c-2.2,1-6.2,1.6-6.5,3.6l3.1,3.2l10.8,5.7l1.7,1.1l8.6,5.7l0.6,8.6v36.6c0,7.9,0.9,17.7-6.9,17.7h-1.1c-10.2,0-10.4-8.6-11.7-18
			c-1.3-8.9-3.5-16.8-5.2-24.5c-4.6-20.6-7.1-27-7.1-52.9h-0.4l-2.5,36l-1-0.1h-0.9l-5.9-24l-4.8-19.3l-1.5,0.4v-9.2
			c-1.3-0.3-1.7-0.1-1.7-1.7v-19.5c0-3.9,1.4-14-1.7-14.9l-0.2,25.1l0.2,4.6v6.3h-0.9l-0.3,5.1v0.6c0,1.5,0.1,1.4,0.6,2.3l-0.6,1.1
			c-4.4,2.3-16.8,55.8-19.8,65.4c-3.3,10.8-5.1,23.8-11.5,31.4c-5.1,6-18.3,14.1-28.7,14.1l0.2,2l2.1,2l12,4l1.7,0.6h1.1v1.1h1.1
			l1.7,1.1l1.1,5.1l-0.9,151.4c0.3-0.1,0.7-0.2,1.1-0.3l0.4-103.2v-41.7h2.3c2.1,0,2,0.7,3.9,1.1l0.7-3.4h1l1.2,4l0.6,5.1h1l0.7-6.8
			l1.1-2.3h1.3l1,8.6h1.7c0-3,0-8.9,2.3-9.7l1.7,9.1h1.7V299c0-2.5,0.9-1.8,1.1-4.6h1.3l1,8.6h1.7v-2.3c0-3.1,1.1-3.1,1.1-6.3
			c2.4-2.6,2.9,4.8,2.9,8l1.4-0.1l2-9.7c4.3,1.1-0.6,8.1,4.6,8.6v-5.3c0-2.3,0.5-3,2.5-3.5l0.9,8.6h1.7v-4c0-1.7,1.2-3.7,1.7-5.7
			c2.5,0.7,2.3,6.7,2.9,9.1c2.1-0.6,2.7-7.5,2.9-9.7h1l1.2,4l0.6,4.6l1.3-0.1l1.6-9.3l1.4,0.2l0.9,9.2v2.3c0,1.4-0.9,1.7-1.7,2.9
			h1.4l0.3,45.2v66.2l-11.3,0.7l-2,1.7l1.8,1.6l2.3-1.2l0.9,1.9l0.6-1.4l-0.3,4.1l-1.1,0.6l-0.6-1.8l-0.2-1.8l-1.5,2.4l-1.1-0.6
			l-0.6,0.6c-0.7,0.8-1.7,1.5-1.7,2.9v1.7c0,1.5,0.8,1.7,1.7,2.3l12.3,5l0.3-1v10.8h1.7l0-10.7l5.1-0.6l17.1-0.1l5.3,0.7l0.4-3.4
			l-0.9-0.6l-0.1-3.5c-0.1,2.1-0.5,2.3-1.7,4.1l-1.1-0.6l-1.1,1.7H105v-1.7h-1.1v1.1H101l1.2-4h1.1l3.4,0.6l1.6-0.6l0.7,1.7v-1.7
			c0-2-0.4-2.2-0.4-4.1l1.3,1.6l-1.9-5.4l0.6-0.2l0.8,1.8l0.7-1.1l2.3-0.6c0,1.8-0.2,2.8,1.6,2.9c0.1-1.3,0.1-2.6,0.2-3.9l-0.6-0.1
			v-17.1h0.2c0-0.6,0.1-1.2,0.2-1.7c-0.1-1,0-2,0.4-2.9c-0.1,0-0.2,0-0.2,0l0.6-88.6v-3.5l4.2,0.7l-0.5,48h-0.8
			c5.5,0.1,0.3,8.7,1.7,10.9c1.4,3.9,19,2.7,21.1,12c13.5,0,5.5-3.7,15.7-8.8c8.6-4.3,11.7,0.8,9.9-15.1
			c-1.6-14.5-1.1-32.3-1.1-48.6l3.8-0.6l0.7-5.1c-2.1-0.2-14-4.8-15.9-5.8c-4.3-2.5-6.4-9.7-6.4-14.8v-1.1c0-2.8-2.3-0.4-2.3-5.7
			c-1.6,0.4-2.9,4.4-2.9,5.1v2.3c0,1.5,0.3,1.6,0.6,2.9c-2.2,3.5-0.8,6.4-5.5,10c-2.8,2.1-1.5,1.5-4.8,3.2c-1,0.5-4.5,2.3-5.1,2.9
			l-12.6,2.9v-23.3l0.6-66.3h1.1l0.6-14.3h2.3c2.2,0,3.9-1.6,7.4-1.7l-0.1,13.3l3.5,1v-13.7c0-1.6,0.4-1.4,1.7-1.7l8-1.1l0.6,13.8
			l2.3-0.6l0.6-14.2l9.6-2.4l0.6,13.1l1.7,0.6h1.1v-14.5l9.7-1.5l0.6,12l1.2,1.2l1.1-0.7l1.1-13.7l4.6-1.1l7.4-1.1l2.3,167.5v24
			h-5.1c-1.3,0-1.7,0.4-1.7,1.7v0.6c0,1.6,0.2,1.1,1.1,1.7h5.7v2.3h-2.3v2.9h2.3v1.1h-5.1v2.9h3.4c1.7,0,1.6,0.7,1.7,2.3v5.7
			c-0.1-0.1-0.2-0.1-0.4-0.2c0.2,1.2,0.3,2.4,0.3,3.6h0v0.6c0,0,0,0,0,0c0,1.6-0.1,3.2-0.2,4.8c0,0.1,0,0.2,0,0.3h0.2v4.6h-0.4
			c0,1.1,0,2.3,0,3.4c0.1,0,0.3,0,0.4,0v0.6c-0.1,0-0.3,0-0.4,0c0,1.1,0,2.3,0,3.4h0.4v12.6c0,0-0.1,0-0.1,0
			c0.1,0.4,0.2,0.8,0.1,1.3c0,2.3-0.2,4.5-0.2,6.8c0.2,1.9,0.3,3.9,0.3,5.8c0.1,0,0.3,0,0.4,0c0.3,0,0.5,0,0.8,0l-0.3-20.2v-6.8
			l0.6-4h1.1v-6.3h-1.7V403l1.7,0.5v-3.6h-1.7V195.6l2.9-0.4l0.3-11.2l3.2,3.2v14.3c4.6-0.1,2.9-6.9,2.9-12l5.1,4.6l0.1,14.5
			l2.7-1.4v-10.3c7.6,2,1.9,12.1,4.7,17.9l2.2-1.4H207v-13.5c3.4,3.9,2.3,6.8,2.3,13.7l0.6-10.3c5.5,3.7,5.1,16.2,5.1,25.1v30.3
			c-0.1,18.9,0.6,40.1,0.6,60v53.2l-1.3,0.8l-10-15l1-0.7l6.2,1l0.5-1.1l-3-2.1l-0.3-25.9l-4.5-1.3l-0.9,25.4h-0.9l-3.4-0.7v-27.9
			c-1.3-0.3-1.3-0.6-2.9-0.6h-1.7v30.3c2.4,0,6.9,0.7,6.9,2.9v1.7c0,8.1-6.5,16.1-14.3,14.3v4c2.3,0.2,5.7-0.9,5.7,2.9v18.3h-2.9
			v3.4l2.8,0.7l-0.5,5.6l-1.7-0.6h-2.3v5.1l1.7,0.6h1.1l1.7,0.7c0,9.2-3.1,15,1.2,19.9l7.9,10.7c1.1,0,2.1,0,3.2,0
			c0-0.2,0-0.3,0-0.5l4-1.7l8-4l0,6.4c0.5,0,1,0,1.4,0l0.2-7.6c5.1,2.4,8-2.9,8,4.6l0,3c1.5,0,3.1,0,4.6,0v-11h1.1v11
			c1,0,1.9,0,2.9-0.1v-5.7c1.8,0.1,2,0.6,4,0.6h3.4l-0.6,2.2c-1.7,1.2-1.2,1.6-3.5,2.8c0,0,0,0,0,0c1.3,0,2.5-0.1,3.8-0.2
			c0.5-0.3,1.1-0.6,1.5-0.9h1.1c0.2,0.3,0.4,0.5,0.6,0.7c0.2,0,0.3,0,0.5,0c0.5,0,1-0.1,1.5-0.1c-0.6-0.4-1.2-0.7-2-1.2l-0.7-2.8
			h4.7c2-0.1,2.2,0.4,4,0.5v3.1c1.5-0.1,3-0.2,4.5-0.3v-7.8h1.1v4.6l-0.1,3.2c1-0.1,2-0.1,3.1-0.2v-1.5h5.1c0,0.5-0.1,0.9-0.3,1.3
			c1,0,1.9-0.1,2.9-0.1c-0.1-0.2-0.2-0.4-0.3-0.6l4.3,0.5c2,0,3.9,0,5.9,0c0.2-1.9,0.5-3.2,1-3.6v3.6c2.1,0,4.2,0.1,6.3,0.2
			c3.3,0.2,6.6,0.4,9.9,0.5v-6.9h1.1v7c0.9,0,1.8,0.1,2.7,0.1c13.3-0.2,26.6-0.9,39.9-1c4.4,0,8.8,0,13.3,0.1l0.4-3.4v-63.9l5.7-2.3
			c-0.4-4.4,0.4-12.6-4.6-12.6H353l0.1-14.9l-0.7-9.7v-9.1l0.4,0.7l3.7-2.7l-4.2-1.9v-44.5L365.4,276.6z M106.1,273.7h3.4
			c2.2-0.1,2.8,0.2,4,1.1v7.4l-4,0.6L85,285.7c0.7-2.6,6.1-6.7,8.4-8.2C95.9,275.8,102.1,273.7,106.1,273.7z M56.6,265.7l-3.7,3.3
			l-0.3,2.4l-3.6,2.8v9.8l2.9,1.7h-4.4l-0.7-26.9v-1.7h2.3l9.7-1.1v7.5L48,264.6C46.2,268.5,52.3,265.7,56.6,265.7z M57.6,273h1.7
			v11.5l-3.4-0.6l1.8-1.6L57.6,273z M55.9,274.7l-0.6,8.6h-5.1c0-11.1-2.2-9.7,5.7-9.7V274.7z M47.4,288.5l14.8-1.7l8-2.3
			c1.1,0.2,1.7,0.6,2.3,0.7l6.8-1.3h2.9v1.2l-44,5.7L47.4,288.5z M82.1,268.5c-2.6,0.5-5.8,0.6-8.1,1c-2.9,0.5-14,1.6-15.3,2.4h-4.5
			v-1.7h1.7l32-5C87.8,269.3,86.2,267.6,82.1,268.5z M103.2,289l-1.7,1.3c-1.6-0.9,0.4-0.7-1.8-0.7c-1,0-0.9,0.8-1.1,1.7h-1.1v-1.1
			l-2.6,1.2l-0.3-0.6h-2.2v1.1l-0.1-0.6l-7.9,1.4l0.1-1.9l28.5-4h0.3v1.1h-1.7v1.7c-1-0.6-1-1.1-2.3-1.1c-0.7,0-0.8,0.6-1.1,1.1
			c-1-0.6-1-1.1-2.3-1.1c-1,0-0.9,0.8-1.1,1.7L103.2,289z M103.8,290.8v7.4h-1.1v-7.4H103.8z M100.4,291.3v7.4h-1.1v-4.5
			C99.3,292.3,99.6,292.3,100.4,291.3z M90.7,292.5v8h-1.1v-8H90.7z M113,301.5c-1.1,3.6-24.2,3.4-29.7,4.7v-1.1L113,301.5z
			 M83.3,301.1v-6.3h1.1v4.6C84.4,301,84.2,300.4,83.3,301.1z M112.4,297v-8h1.1v8H112.4z M102.3,269.8c-2.7,0.4-13.3-1.5-13.3-3.6
			v-2.3L102.3,269.8z M83.3,214.8c0-1.6,0.4-1.4,1.7-1.7c0.5,2,1.1,1.9,1.1,4c0,2.2,0.4,1.1,0.6,3.4l-1.7-0.7l-1.7,1.3V214.8z
			 M83.3,240.6v-1.7l0.3-0.4l-0.3-0.7v-8l1.8,1.7l3.4-1l2.2,11.7l1.7,2.9l3.6,19.5c-4.5-2.4-9.1-0.8-11.3-7.2
			C82.7,251.3,83.3,248.2,83.3,240.6z M65.3,173.6h0.9l0.3-1.2l0.9,3.5l-2.9,0.6l-0.7-4.5L65.3,173.6z M28.4,265.5
			c3.7-4.1,5.2-6.2,7.2-11.7c3.3-9.1,6-19.6,8.5-29.2c2.5-9.5,4.9-20.4,8-29.7c1.5-4.7,2.5-10,3.9-15c1.1-3.6,1.5-12.6,6.3-12.6
			l1.1,19.4l1.2,28.6h1.7l11.4-1l3.1-10.9l0.9-0.1c0,10.2-0.4,21.3,0,31.4c0.2,4.9,0.4,9.8,0.5,15.5c0,8.9,2.4,7.6,3.4,12L58.2,267
			l9.1-15.1l0.6-1.7c0.6-0.5,0.5,0.7,0.7-1.7c0-2.1,0.6-2,1.1-4H68l-5.1,0.6l-6.3,1.1l-8,1.7c-1,0.6-10.8,8-6.3,8h2.3v9.9
			c0,5.9-16.9,7.4-23.4,7.4C16.1,273.1,25.7,268.5,28.4,265.5z M61.6,259.3v-5.7c1.5-1.3,3.4-3.8,5.1-2.9
			C65.2,252.9,64.2,258.6,61.6,259.3z M13,278.8l-9.2,1v-1.6l15-2.3l15.9-1.8l9.2-5l0.6,5.7l-17.2,2.9h-4L13,278.8z M81.5,423.4v5.1
			h-1.1v-4l-0.6,5.1c-0.9-0.6-1.7-0.8-1.7-2.3v-0.6c0-1.9,0.4-2.2,0.6-3.8l-0.9,0.5l-0.5,3.4l0.4,2.9c-3.1-2-1.8-3.8-1.1-6.9
			c-3.2,2.2-0.9,3.2-2.4,5.7l-0.6-1.1l0.6-4l2.9-2.3v-1.7h1.7c2.1,0.8,0.8,0.5,0.1,3.1l2.9-3.5l0.6,0.4l-1.9,3.3v1.7L81.5,423.4z
			 M82.2,291.4c0-1.9,0.2-2.9-1.7-2.9c-2.9,0-2.3,7.7-3.4,4l-0.6-2.9h-2.8l-2,4.7c-0.4-2.1-0.6-4.1-2.6-4.1h-1.7l-1.5,4.7
			c-0.3-2.5-0.7-4.1-3.1-4.1c-1.1,0-2.1,2.9-2.3,4c-1.3-1.4-1-2.9-2.9-2.9c-2.2,0-2.9,3.3-2.9,5.7l-1.7-5.1l-2.8,1.1l-0.6,1.7h-1.1
			c-0.3-1.3-0.1-1.7-1.7-1.7h-0.6c-1.8,0-2,1.4-2.3,2.9h-1.1l-1-1.5l-1.7-0.7l-2,3.4l-0.8,0.1c-0.2-1.7-0.4-2.9-2.3-2.9
			c-2.1,0-1.3,4-2.9,3.4c-0.8-1.6-0.3-2.9-2.3-2.9s-1.5,1.3-2.3,2.9c-1.3-0.3-1.4-0.6-2.9-0.6h-2.3V296c0-2.1,12.5-3,14.4-3.3
			c4.4-0.7,12.2-1.9,15.8-1.9c9.6-0.1,21-4,30.8-4v4.6H82.2z M83.2,429.7v-5.8c0-1.9,1.2-4.3,2.3-5.1c0.1,3.9-1.1,3-1.1,5.7v0.6
			c0,2.7,0.6,4.1,1,6.4L83.2,429.7z M87.2,430.7h-1.1v-1.1h1.1V430.7z M86.6,426.2l0.1,2.9h-1l-0.8-2.9l2.5-7.4L86.6,426.2z
			 M87.9,429.1v-2.3H89v2.3H87.9z M90.6,420.1l0.1,5.5h-1.1v-1.1l-1.1,0.6v-6.2l-0.1-0.1h0.1v0.1L90.6,420.1z M89.5,430.7h-1.1v-1.1
			h1.1V430.7z M90.2,430.8l-0.7-4h1.1l1.2,4H90.2z M100.4,429.1l-1.7,1.7c-1.3-0.3-1.7-0.6-3.4-0.6h-2.9l-0.5-3.4h6.2l1.1,1.1v-1.1
			h1.8L100.4,429.1z M101.5,422.8l-0.7,1.1h-1.6l-0.3-1.8l-0.9,1.8c-2.2,0-6.6,0.9-6.3-1.7l0.7-5.1h4.4v0.6h-2.9l0.8,1.1l2.3-0.7
			v1.8h0.6v-1.7h1.1l0.6,3.4l1.1-1.7v-1.1h1.7l0.6,4.6L101.5,422.8z M93.6,392.5c2.3-0.5,2.9-1.7,5.1-1.7h1.1c1.9,0,4.6,2.6,4.6,5.1
			v1.7l-12,1.4v-3.1C92.4,393.7,93.3,395.9,93.6,392.5z M92.5,391.4l3.5-10.7l2.7-1.3c4.3,2.9,4.4,5.7,5.7,11.4
			c-1-0.5-3.8-1.7-5.1-1.7h-1.1C96.7,389.1,93.9,390.7,92.5,391.4z M104.4,399.4v16.5h-4.6v-16.5H104.4z M99.3,399.9v2.9
			c0,2.3-4.4,2.3-6.9,2.3v-5.2H99.3z M98.7,405.6v9.7h-6.3v-9L98.7,405.6z M103.9,423.9l-1.5-5l1.4-0.1l0.7,5.1H103.9z M107,425.8
			l-0.9-1.8v-2.9c1,0.7,1.1,0.1,1.1,1.7L107,425.8z M107.3,416.5h-1.1c0-10.8,1.6-38.3-7.4-38.3c-6.1,0-8,11.8-8,18.9v18.3H89v-16.6
			l0.3-9l8.5-20.6c0.4,0.7,8.4,17.1,9.1,19.1C108.1,391.5,107.3,411.4,107.3,416.5z M112.4,406.8L112.4,406.8l0.1,10.4h-4v-25.7
			l2.9-0.4L98,363l-1-0.1c-0.9,3.8-4.8,11.3-6.6,15.7c-1.4,3.5-7.8,13.6-3.1,14v22.9l-4,0.7v-95.6l29.7-3.5L112.4,406.8z M113,315.9
			l-29.7,3.6v-9.9l2.3,0.2l27.4-3V315.9z M83.3,309v-1.6l28.6-2.8l1.6-1.3l0.1,2.4L83.3,309z M113.5,273c-1.9-0.4-5.3-2.3-5.7-2.3
			h-1.7v-1.1h1.7c1.1,0,1,0.2,1.6,0.4l4.1-3.3l0.2,4.6L113.5,273z M147.2,373.6H141c-1-3.8-8.5-8-13.7-8v-1l24.5-0.7
			C151,367,147.2,367,147.2,373.6z M154.6,362l-25.1,1.5l-8-0.2c-1.6,0-1-0.2-1.7-1.1c7.8,0,43.7-5.3,45.1,0L154.6,362z
			 M125.1,317.6v-4.5H125c0-1.5,0.3-1.6,0.6-2.9l0.7-0.1l1.4,6.9l1.4,0.1v-2.9c0-2,0.4-2.2,0.6-4h1.1l0.7,6.8
			c0,0.6-6.5,4.6-6.4,14.3c0,3.6,1.3,18.9-1.7,18.9h-2.9v-25.1l0.9-14.3h1.4l0.7,5.1l-0.1,1.7H125.1z M147.8,321.1l-3.1-2.6
			l-4.3,5.4v1.7c-0.3,1.3-0.6,1.4-0.6,2.9v20h-1.7v-18.9c0-5.4-2.6-7.9-6.3-9.7c-3,4.5-4.6,4.2-4.6,12.6v17.2h-1.1
			c0-13-2.2-25.6,5.7-30.9l0.6-0.6l6.5,6.1l5.1-6.9c10.3,2.6,7.8,17.7,7.8,30h-1.1C150.7,339.6,152.2,324.3,147.8,321.1z
			 M145.5,342.2v-13.7h4v13.7H145.5z M149.5,343.3v3.4l-4,0.6v-4H149.5z M147.2,327.3c-1.1,0-1,0.2-1.7,0.6v-7l1.7,0.7l2.3,5.7
			H147.2z M141,343.4v-14.3h3.4v13.7L141,343.4z M144.4,343.9v3.4l-3.4,0.6v-4H144.4z M141.5,327.9c0-3.5,0.8-5.5,2.9-6.9v6.9H141.5
			z M133,343.3v-13.1h1.7c1.4,0,2.3-1.3,2.3,1.1v12H133z M137,344.5v2.3c0,1.3-0.4,1.7-1.7,1.7H133v-4H137z M133,329v-7.4
			c2.1,1.4,3.7,4.3,4,7.4H133z M128.4,343.9v-13l3.4-0.7v13.7H128.4z M131.8,344.9v3.6l-3.4,0.5v-3.4L131.8,344.9z M128.4,329.6
			c0.1-2.9,1.6-6.2,3.4-7.4v7.4H128.4z M121,355.9c0-3.5,31.6-4.1,36-5.1v7.5l-36,2.6V355.9z M154.7,347.4H153v-18.9
			c0-6.5-3.5-11.2-8.6-12.6l-5.7,5.8l0.5,0.5h-1.1c-1-3.8-5.1-3.1-5.1-5.7v-4c0-1.6,0.3-1.6,0.6-2.9h1.1l0.9,7l1-0.1l1-8h1.1
			l1.1,7.4h1.2l0.4-7.5h1.3l1.3,7.1l0.9-0.2l1.2-8l1.8,7.6h1.2l1-7.5l0.7-0.1l1,7h1.3l0.9-7.5l0.7-0.1l1.7,7
			C156.4,318.5,157.8,347.4,154.7,347.4z M139.3,304.5c-6.3,0-10.8,1.7-18.3,1.7c1-1.5,29.3-5.1,33.7-5.1h1.7
			C155.7,303,142.6,304.5,139.3,304.5z M156.4,303.8v2.3h-1.1V305l-2.4,1.8v1.1h-1.1v-1.1l-2.2-1.4l-0.7,2.5h-1.1l-0.9-1.9l-1.4,0.7
			l-1.3,1.6c-1-0.7-1.3-1.6-2.7-1.6c-1.2,0-1.1,1.2-1.1,2.3c-0.9-1-0.7-1.7-2.3-1.7c-1.6,0-1.4,0.4-1.7,1.7v1.7h-1.1V309l-2.2-1.4
			l-0.7,2.5l-1.3-1.6l-2.1-0.1l-0.6,2.3l-3-2.7l-1,2.7h-1.1l-0.9-1.9l-1.9,1.4l-0.1-2.4L156.4,303.8z M163.7,305.8v42.7l-6.3-1.7
			l0.1-42.3L163.7,305.8z M157.5,302.8v-1.2l6.3,1.7v1.2L157.5,302.8z M159.8,296.5l7.9,2.5l0.1,1.5l-8-2.9V296.5z M127.8,296.5
			c6.5-1.5,15.4-7.8,15.4-15.4l2.3-0.6c0.2,12.8,6.1,10.8,9.1,14.9l-32.5,3.6l-0.1-0.6L127.8,296.5z M115.3,301.1l42.8-5.1
			c-0.4,3.3-6,2.2-9.8,2.7c-3.8,0.5-7.5,1.1-10.9,1.7c-7,1.1-15.6,1.9-22.1,2.4V301.1z M163.1,49h2.3l1.7,16l1.1,5.7l2.9,22.3v0.6
			h0.1l1.7,12.6l6.8,56.5l-9.7,1.8l-44.5,9.2L163.1,49z M171.8,172.4c0.3-2.4,2.5-2.8,5.2-2.8l3,0.4L171.8,172.4z M100.4,185.6
			c-0.9-2.1,26.3-10.8,32-12c4.9-1,34.8-6.8,36.5-8c4.1,0,8.5-1.7,9.7-1.7c2.6,0,4.6,0.7,5.8,2.5L100.4,185.6z M187.3,153.7
			l-2.5-13.2h3L187.3,153.7z M183.2,139.9l-1.1-11.3l10.2-1.3C189,134.3,192.6,139.1,183.2,139.9z M193.5,163.9l-4.6-1.1v-2.3
			c3,0.6,1.8,1.4,4.6,1.7V163.9z M189.4,158.2V145h0.1l3,2.1l-0.2,13.4C190.7,159.7,189.4,160.3,189.4,158.2z M189.1,143l-0.2-3.1
			c1.8-0.6,1.7-1,1.7-3.4h1.1l2,9.1L189.1,143z M191.8,133.6l1.3-3.6l3.8,15.6h-2.2L191.8,133.6z M205.5,329.6
			c1.6,0.1,2.3,0,2.3,1.7v5.1h-2.3V329.6z M205.5,338.8c1.6,0.1,2.3,0,2.3,1.7v13.7c-1.6-0.1-2.3,0-2.3-1.7V338.8z M198.1,350.8
			h-2.3v-16c1.6,0.1,2.3,0,2.3,1.7V350.8z M198.1,332.5l-2.3-0.6v-6.8c1.6,0.1,2.3,0,2.3,1.7V332.5z M320.3,179.4l0.9-0.2l10,47
			l1.6,6.3l0.6,3.4c0.1,3.2,1.8,8.9,2.4,12.5c1.3,6.6,0.6,4.1-7.4,5.4c-7.1,1.1-19.4,2.7-26.4,3.3L320.3,179.4z M323.6,255.7
			c3.8-0.4,9-1,12.8-1.5c2.4-0.3,7.5,3.2,10.7,3.9l-21.1,3.2l-0.7-3.7l-18.8,1.7l-7.4,0.5C301.2,256.9,318.1,256.4,323.6,255.7z
			 M339.6,277.1v17.1l-13.6,2.4v-3h2.3l4-0.6v-11.4c0-1.8-1.5-2.5-2.9-2.9V277h1.1v-9.1h8v6.9C338.5,276.1,338.9,276.1,339.6,277.1z
			 M328.9,372.4l-1.1-4.8l-5.2,1.3l-1.1-4.2l-5.7,2.1l-1.2-4.4l-6.4,1.8l-2-8l-0.9-0.1h-0.9l-1.3,31.5h1.1c2,1.1,3.3,0.7,4,2.3
			l-5.1-1.3v2.5l3.8,1.9l1.2-0.8l1.1,17.2l-0.6,0.3l-2.3-2.8l-1.8,0.2l-1.1,26.9h-2.3l-0.4-90.9l10.2,4.9l-2.1-19.7l-1.2-0.1v12
			h-1.7v-13.1l-1.1-0.7v12.7h-1.1l-0.3-14.3h-1.3l-0.4,16.6h-0.9v-33.1c6.2-0.5,5.9,0,9.7,5.7c2.9-0.3,6.9-1.3,7.4,4.6h2.3v-1.1
			l1.1-0.6l-0.6-1.6l3,1.1v-1.1h1.7v2.3c0,1.6-0.3,1.6-0.6,2.9l0.9,1.9c4,0,3.4-0.1,5.6,1.9c3.1,2.8,1.1,0.5,4.6,2.3
			c3.9,2,3.6,4.5,3.6,10.1l-2.2,1.8l-0.1-3.5h-1.1l-1.2,6.9l0.8-0.8l2,2l1-2.5l0.2,4.1h0.1v0.9l0.7,11.7H339v-11.7l-0.1-0.9h-1.6
			v10.9h-1.1v-12l-1.7-0.7v16.7l5.1,1.8l0.1,11.9l-4.4,2l-1.2-4.9L328.9,372.4z M333.9,377.1v4.6h-1.1v-4.6H333.9z M327.7,424v-5.2
			c1.4,0.5,1.7,0.7,1.7,2.9v2.3H327.7z M329.4,425.6v2.3h-1.7V425L329.4,425.6z M327.7,414.2v-14.3l1.8,1.6l-0.1,13.8L327.7,414.2z
			 M329.3,394.1c-1.1-0.3-1.6-0.1-1.6-1.7v-6.8h0.6v2.8l1.7,0.7L329.3,394.1z M328.9,380.4v-1.1l-0.1-1.7c1.8,1.2,2.2,1.1,2.3,4
			l-1.7,0.5L328.9,380.4z M329.4,374.8c0-1.1,1.9-1.5,2.9-1.7l-1.1,3.5C330.6,376.1,329.4,375.6,329.4,374.8z M322.3,391.9h-1.6
			v-8.6h1.2v1.7c0,1.3,0.5,1.3,1.1,2.3L322.3,391.9z M322.5,398.2v15.4h-1.1v-15.4H322.5z M309.1,419.9l-0.5,9.2h-1l-0.5-16l1.9,5.1
			l0.9,0.1c-0.3-1.3-0.6-1.3-0.6-2.9v-1.1l0.5-10.3l0.1-4.6l0.1-15.5h0.5V401c0,5.1-1.2,12.7,1.7,14.3v-34.9h0.9l0.3,29.7h0.5v-15.4
			h1.1l0.1,1.8l0.6,0.6l0.6,14.9l-2.9-0.7v17.8h-0.8l-0.5-12.6h-1l-0.7,12h-0.5v-8.6H309.1z M308.3,367.9c1.4,0.4,3.3,1.6,3.3,3.5
			v2.9l-4,1V372l1.3-1.7L308.3,367.9z M316.1,384v5.7c-1.6-0.1-2.3,0-2.3-1.7v-6.9h1.2v2.9H316.1z M314.5,374.7
			c-1.3-0.3-1.7-0.1-1.7-1.7v-2.8c0-1.9,0.3-1.9,1.1-2.9c0.1,1.8,0.6,2,0.6,4V374.7z M313.4,377v2.4h-1.7c-1.5,0-1.6,0.3-3,0.5
			l0.7-3.4L313.4,377z M311.9,367.4l-1.8-2.2l2.2-0.6L311.9,367.4z M307.7,381.1c3.1,0.8,1.1,1.2,1.1,4.6v1.7h-1.1V381.1z
			 M314.5,414.8c2.8,2,1.7,10.2,1.7,14.9l-1.7-1.7V414.8z M316.3,377.1c-0.3-1.4-0.6-1.4-0.6-2.9v-2.9c1.4,0.4,2.9,1.1,2.9,2.9v2.3
			L316.3,377.1z M316.7,369.6V368h1.7l0.1-1.2h1.1l-1.1,3.5L316.7,369.6z M316.8,379.3h1.7c1.7,0,1.6,0.7,1.7,2.3h-3.4V379.3z
			 M319.7,375.4v-3.5l0.9-1.8l0.2,7C319.9,376.4,319.7,377,319.7,375.4z M322.5,380v-5.2c2.3,0.6,2.3,1.7,2.3,4.6L322.5,380z
			 M324.8,381.6c1.7,0,1.6,0.7,1.7,2.3l-3.4,0.6C323.1,382.7,322.9,381.6,324.8,381.6z M323.1,371.3c0-1.1,1.9-1.5,2.9-1.7l-0.7,3.4
			C324.4,372.8,323.1,372.4,323.1,371.3z M306.6,368.5h-1.9l0.8-5.1h0.4L306.6,368.5z M307,430.7l0.1,3.5c-2-0.5-1.8-0.6-2.3-2.8
			L307,430.7z M304.8,429.1v-14.9c0.9,0.6,1.7,0.8,1.7,2.3v12.6H304.8z M295.6,421l0.1,8.6c-4.4-0.1-2.9-4.2-2.9-9.1
			c0-3.4,0.6-8.4-0.6-10.9l0.3-0.5l3.3,2.4l-0.7,0.4L295.6,421z M292.8,406.8c0-1.1,0.8-1.9,1.2-3.4h1.1l1.3,5.1
			C295.2,408.3,292.8,407.9,292.8,406.8z M294.2,401.1l0.5-2.9c0.7,0.7,1,0.1,1.1,1.7v2.3L294.2,401.1z M295.5,390.9h-1l-3.6,15.4
			l-4.1-18.2l-1.4-0.1l-2,10.8l-0.3,0.1v-15c1.1,0.6,1.7,1.1,3.4,1.1h1.7v-24.6c0.1-1.8-1-1.6-2.8-1.6v-2.3c0-1.7-0.7-1.6-2.3-1.7
			v-3.4c3.9,0.3,10.4,4.6,12,4.6h1.7v39.4L295.5,390.9z M290.7,421.7l-0.2,6.9l-2.2-0.1l-0.1-7.4l0.7-12h0.8L290.7,421.7z
			 M285.4,405.7h-1.6l1.2-4.6l1.6,0.1l1.4,5.6C286.7,406.2,286.7,405.7,285.4,405.7z M286.6,408.6V428h-2.9l-0.1-7.4l0.8-13.2
			L286.6,408.6z M284.9,398.8l1.2-4l0.4-0.1l0.7,4.6L284.9,398.8z M279.3,398.3l-0.2,3.4v25.7H278v-68h1.1v34.9L279.3,398.3z
			 M277.7,355.2l-0.9,4.1v35.4l-2.8-11.4l-0.7-0.2l-3.9,16.2l-0.6,0.2l-3.7-18.3l-1.3-0.1l-2.7,10.9l0.5-14.3l5.1,1.4l0.1-28.9
			l-2.8-0.6v-4c-3.9,0.1-2.9,1.9-2.9-4c2.8,0.2,17.1,6.3,17.1,8v2.9l-0.5,2.3h2v1.1C277.2,355.7,278.5,356.4,277.7,355.2z
			 M275.6,406.2h1.2l-0.5,20.6v-18.9L275.6,406.2z M271.1,406.2v-2.3l3,2.1l-0.1,5.9v14.3h-3.4v-16l1.2-1.6
			C271.3,407.6,271.1,407.7,271.1,406.2z M272.8,402.2H271l1.3-5.1h1.1l1.9,6.2C274.1,402.7,274.1,402.2,272.8,402.2z M272.9,391.3
			h1.1l0.6,4.6C270.8,395.6,272.8,394.7,272.9,391.3z M261.9,399.4l1.3-4.6h1.1l2.3,6.9L261.9,399.4z M264.9,413.6V425l-3.4-0.5
			l-0.1-10.9l0.5-12l2.4,0.6L264.9,413.6z M263.2,393l0.7-5.1h1v5.1H263.2z M266.5,416l0.5-12h1.3l0.5,21.1v0.6l-2.3-0.6V416z
			 M256.9,314.7v5.7h-2.3v-5.7c0-1.7-0.3-2.1-0.6-3.4c0.8-1.5,2-6.8,4-6.9h2.3C259.8,306.6,256.9,313.1,256.9,314.7z M258.5,325.6
			v20h-1.1v-20H258.5z M253.9,344.9v52l-4.4-20l-0.8-0.1l-4.5,19l-4.7-21.1h-1l-4.1,17.2l-0.4-23.5l7.9,2.5
			c0.1-6.4,2.4-31.2-2.8-31.6v-4l-2.8-0.7l-1.5,3.6l-0.3-8l20.5,8.5v6.2H253.9z M254,401.6v21.7h-2.3L252,401L254,401.6z M250,407.4
			v15.4l-4-0.5V412c0-3.5,0.2-4.9,0.5-7.5c0.4-3.5-1.4-5.7,1.2-5.7c1.3,0,2.2,2.5,2.3,4h-1.1v4.6H250z M250,403.4h1.1v1.1H250V403.4
			z M246.9,396.6l-0.3,0.5l0.4-3.2l1.4-2.5l0.5-0.2l2.6,8.1L246.9,396.6z M247.7,390.2c0.1-2.4,0.6-4.4,1.7-5.7c0.1,1.8,0.6,2,0.6,4
			v1.7H247.7z M243.7,421.7h-2.3v-9.8l0.5-13.1l1.8,0.6l-0.1,7.4L243.7,421.7z M239.7,411.4v9.7h-3.4v-12.6l0.8-11.8l2.8,1.8
			l-0.6,0.3L239.7,411.4z M239.1,394.9l-1-0.1l-1.9-0.1l1.9-5.6l1.6,1.2l1.4,6.2L239.1,394.9z M240.3,388.5l-2.4-1.2l0.7-4.5h1.1
			v1.7C239.7,386.5,240.1,386.7,240.3,388.5z M235.7,398.2v1.1h-1.1v-1.1H235.7z M233.5,334.8l-0.1,1.3l-1.8-1.1L233.5,334.8z
			 M231.2,333.1v-18.9h1.1v18.9H231.2z M232.3,306.3v-3.4c0-2.8,0.6-4.3,1.1-6.4l1.1-1.1l0.6,4l-0.7,9.7
			C232.5,308.9,232.3,308.4,232.3,306.3z M235.2,341.7v-1.8l5.2,1.1v26.3c-3.3-2.3-1.2-19.4-1.2-24.5L235.2,341.7z M238,365.6h-1.7
			v-22.3h1.7v4.6l-0.2,6.3L238,365.6z M234.5,326.8v-6.9h0.1l20.4,9.4l0.1,6.6L234.5,326.8z M244,321.4c-2.4-1-9-3.3-9.3-6.1
			c2.5,0.7,8.5,3.6,11,5c2.7,1.5,9.2,2.7,9.5,5.9C252.5,325.6,247.4,322.8,244,321.4z M236.3,299.9c1-2.4,4.1,1,6.9,1.7
			c2.1,1.5,10.2,4.8,10.8,6.9L236.3,299.9z M252.9,311.3c-2.9-0.7-15.8-6.4-16.6-8.6c0.9,0.2,7.6,3.3,8.7,3.9
			C247,307.8,252.1,309.4,252.9,311.3z M250,302.7v-1.1l0.6-6.3l2.2-10.9l1.9,21.7C252.9,305.3,250,305.1,250,302.7z M250,293.1
			l-0.7,4l-2.2,0.5l-7.4,1.3l-2.3-1.3l-1.7-1.7v-3.5l14.3-1.6V293.1z M236.8,306.8l0.6,1.1l0.5-1.1l0.5-0.7c1.4,0.7,1.5,0.8,2.4,1.8
			l1.1,2.3v-1.7c0.9,1,0.4,1.1,1.7,0.6v1.1l4,0.5v1.2l1.1-0.6v2.9h0.6v-2.3l3.3,1.4l0.1,2.1l0.7,5.1l-17.8-7.9L236.8,306.8z
			 M322.5,297v-4h1.7v4H322.5z M324.2,298.2v4c-0.9-0.6-1.7-0.8-1.7-2.3v-1.7H324.2z M322.5,291.3V289l-0.6,2.9h-1.1v-4.6h1.1v-1.7
			c0-1.1,0.2-1,0.6-1.7l0.9,1.6l0.8,0.1v1.1l1.7-0.7v1.2h-1.1l-0.6,4.1H322.5z M321.3,283.9v2.3h-1.1v-2.3H321.3z M320.2,280.5v-2.3
			l4,2.9l0.6,0.5C323.2,283.5,323.4,280.7,320.2,280.5z M325.9,316.5h1.1v4h-1.1V316.5z M325.5,280.5l-0.7,0c-1.6-2.4-3.4-4-7.4-4
			c-4.7,0-6.8,1.1-10.8,1.2c-4.3,0.1-8.3,2.6-9.1-0.6l20-2.3h1.7C320.8,275.9,327.7,279.8,325.5,280.5z M317.4,291.9
			c0-4.1-1.3-7.7,2.3-8v14.3C316.2,297.9,317.4,295.8,317.4,291.9z M319.6,309.6v7.4h-1.1v-7.4H319.6z M311.8,292.9
			c-1.6-1.2-3.3-2-4.7-3.3l-4.8-6.1l2.5-0.7l9.7-0.6v1.1h1.7v10.3C315.9,296.6,313.8,294.4,311.8,292.9z M316.2,310.2
			c-1.8,0-4,1.1-4-0.6c0-2.2,0.4-1.1,0.6-3.4C314.8,306.7,316,307.8,316.2,310.2z M311.1,303.9v8.6c-0.8-1-1.1-1-1.1-2.9v-5.7H311.1
			z M308.8,303.9v4.6l-6.2-2.8l0.9-6.4C304.7,300,308.8,302.8,308.8,303.9z M315.7,282.2v-2.3l-7.4,0.6l-8.6,0.7v-1.8h2.3l16.5-2.1
			v4.3l-1.7,0.6H315.7z M300.2,288.5l1.7,0.6l1.2,1.1l-26.3,3.4v-5.7l14.8-1.7h1.7C295.3,286.2,298,288,300.2,288.5z M295.2,326.8
			l-4.7-1.7l2.6-17.7l2.2,15.4L295.2,326.8z M296.8,332.5v8.6l-12.4-5.5l-0.1-6l1.1,0.6c1.8-1.1,6.2,1.6,6.8,3.4l1-1.2l0.2,1.8h1.7
			v-1.7H296.8z M287.2,297.1l-7.4,0.6h-1.1l-0.6-1.1c0.4-1.5,0-1.5,1.7-1.7l13.7-1.7c-0.7,2.2-0.5,1.6-3.5,1.6l-1.7,0.6v1.7H287.2z
			 M287.6,298.7v8.6h-1.1l0.6-9.7L287.6,298.7z M284.8,298.8v7.4h-5.1c-0.3-1.3-0.6-1.3-0.6-2.9v-4.5H284.8z M288.9,297.7h4v5.1
			l-0.6,2.3h-3.4V297.7z M295.1,304.5l-0.6-2.3v-5.1h2.3v7.4H295.1z M277.8,318.2l-4.3-2l-0.1-1.5l1.7-14.3v-2.3l-6.8,0.7
			c-0.1-0.1-1.1-0.5-1.7-0.7c-3.1,0-5.6-0.8-4.6,1.7c-2.7,0.2-2.8,1.3-2.9-2.3l10.3-1.2l5.2-0.4l1.5,1.4l0.2,0.9L277.8,318.2z
			 M268.5,332.8c-2.4-1.4-7.4-2.4-7.6-5.5c3.7,0.9,16.8,6.2,17.1,9.7C276.2,336.8,270.2,333.8,268.5,332.8z M278,340v5.7l-17.1-6.9
			v-6.3L278,340z M266.6,319.9v1.2l1.7-0.7v1.3l3.4,1.1l3.4,1.2c0.3,2.7,1.2,2,1.2,4.5v2.9l-1.1-0.6l-13-5.9l0.4-3.8v-2.3l0.7,1.1
			l2.2-0.7v1.3L266.6,319.9z M262.6,315.3l13.7,6.9C273.4,322.1,263.3,317.2,262.6,315.3z M275.1,319l-10.8-4.8v-1.1l11.1,5.2
			L275.1,319z M272.8,307.9c-0.1,1.8-0.5,2-0.5,4v2.8c-2.8,0-9.7-3.5-10.3-5.7h3.4c0.3,1.3,0.1,1.7,1.7,1.7h2.3v-2.1L272.8,307.9z
			 M269.4,306.7v-5.1c0-1.3,0.4-1.7,1.6-1.8h2.9l-0.6,6.9H269.4z M265.4,307.9h-4l-0.4-4.3l-1.6-2.4l6-0.2V307.9z M275.7,293.6
			l-18.3,2.2l-0.7-5.6l2.4-0.6l12-1.1h4.6V293.6z M258.6,346.8h1.1v1.1h-1.1V346.8z M258.6,319.3v-3.4c0-3.1,1-3.1,1.2-6.3h1.1v12.6
			C259.9,321.5,258.6,320.9,258.6,319.3z M262,350.2c1.1,0,1.9,0.8,3.4,1.1v24h-1.1v-21.1c0-2-1.7-1.9-3.4-2.3
			C260.9,351,261.2,350.2,262,350.2z M263.1,353.6v20.6h-1.7v-20.6H263.1z M277.4,331.9v-8c0-1.5,1.6-4.3,2.3-5.7h2.9
			c-0.5,0.8-2.9,8.1-2.9,9.1v4.6H277.4z M280.8,327.9c0-1.9,1.2-4.3,2.3-5.2V333c-1.6-0.1-2.3,0-2.3-1.7V327.9z M280.8,310.4l-0.7-3
			h4.2c2,0,0.9,1.1,2.9,1.1h1.7v-1.7h2.8v1.7l-2.4,15.4h-1.6l-3.3-2.5L280.8,310.4z M283.1,360.5v-1.2l3.5,1.1v21.2H286v-20
			L283.1,360.5z M284.8,363.9v16.6h-1.7v-18.3C284.4,362.5,284.8,362.3,284.8,363.9z M283.1,348.5v-5.7l13.5,6l0.2,4.8L283.1,348.5z
			 M288.7,342.8c-2.4-1.1-5.5-2.1-5.6-5.2l13.7,5.8v2.8C294.8,345.7,290.8,343.8,288.7,342.8z M295.6,306.2l4,1.4l0.1,22.6h-0.3
			L295.6,306.2z M298,302.2v-5.7h1.1v9.7C297.4,304.9,298,305.2,298,302.2z M295.1,294.2l-0.6-1.1l10.3-1.1h1.7v1.1l-6.3,0.7
			L295.1,294.2z M300.2,297.6h1.1v8.6h-1.1V297.6z M302.5,343.3v-1.1c2.3,0.2,6.3,2.1,6.9,4C308.2,345.5,303.9,343.5,302.5,343.3z
			 M331.1,319.3v1.7l-2.9-0.6v-2.3C331.3,319.3,327.4,318.9,331.1,319.3z M328.8,302.8c1.3,0,2.3,0.9,2.3,2.3l-0.1,1.8l-3.9-1.8
			C327.3,304.1,327.7,302.8,328.8,302.8z M327.1,298.5v-0.7l12.5-2.1v1.4L327.1,298.5z M334,321.6v-1.7l4.5,2.4l-0.6,3.8l-4.1-1.8
			l1.3-0.4C334.4,322.9,334,322.9,334,321.6z M338,376l-0.7,3.3c-2.2-0.6-1.6-0.1-1.6-2.7L338,376z M337.4,384.5h-1.6l-0.7-3.4
			C337.3,381.7,337.3,381.8,337.4,384.5z M336.2,386.8h3.4v2.3l-3.4,0.6V386.8z M338.5,384v-3.5c0-1.6,0.2-1,1.1-1.7
			c0.3,1.3,0.6,1.3,0.6,2.9v2.3H338.5z M339.6,312.7l-6.1-3.6c-0.1-2.8,0.8-7.5,3.3-7.5c1.8,0,2.9,4.3,2.9,5.7L339.6,312.7z
			 M331.1,282.2v9.6l-2.9,1.2h-1.7v-11.4h2.3C329.8,279.1,331.1,280.7,331.1,282.2z M322.4,273l2.1-8.5h0.4l1.8,11.4L322.4,273z
			 M308.8,259.9l15.4-1.3c0,2.2-1.9,7.3-2.5,9.7c-2,7.8-1.3,3.6-6,5.9l-20,2.1l-2.8-5.5l-4.6-9.1L308.8,259.9z M233.5,286.3
			c0-1,9.2-10.7,10.8-13.7l6.9-7.4l17.6-17.3l4,6.3l1.7,2.9l4,5.7l0.4,1.5l7.1,11.1h0.6l2.9,4.6l2.3,4.8l-14.9,1.5v-1.1h-1.1
			c-0.8,3-14.8,3.4-19.4,3.4l-0.6-2.9l-2.6-14.6l-2.5,18.9l-16.6,0.3c-0.3-1.3-0.6-1.3-0.6-2.9V286.3z M233.9,291.9l-1,4
			c-0.5,0.8-2.3,6.3-2.3,7.4v4.6c-3.7-0.3-2.3-7.1-2.3-11.4l2.3-4.6H233.9z M228.3,334.8v-1.1h1.7v1.1H228.3z M230,338.7v81.2h-1.1
			v-81.2H230z M225.5,378.8h1.1v-1.7h1.7v14.8L225.5,378.8z M228.3,395.4V420l-2.8-0.7v-13.1l0.3-11.4L228.3,395.4z M224.4,375.2
			l-1-6.2c-1.3,0.9-1.9,1.3-1.9,3.5v1.7l-4-1.2v-9.6l8.4,3.2l0.1-31.8c0-1.8-1.4-1.9-2.9-2.3v-4.6c-1.5-0.3-2.9-1.2-2.9,1.1v2.3
			l-2.9,1.1v10.4h-0.6v-20h0.2l11.9,4.2l0.1,4.3c0,1.6-0.4,1.4-1.7,1.7h0.6l0.8,43.4L224.4,375.2z M219.1,418.1v5.2l-5.1-0.6v-5.1
			L219.1,418.1z M214,390.7v-5.1h2.3L214,390.7z M216.9,386.2c1.6,0.1,2.3,0,2.3,1.7v2.3C218.1,388.9,218,387.8,216.9,386.2z
			 M218,425.6c-1.6,0-1.4-0.4-1.7-1.7c1.5,0.7-0.5,0.6,1.7,0.6h0.6c1.6,0,1,0.2,1.7,1.1H218z M221.5,427.4l-2.8,0.6l-1.1-0.1
			l-2.3-1.2h-1.7l2.8-0.6C217.5,426.1,221.5,426.6,221.5,427.4z M216.3,379.3c1-1.4,2.2-1.7,4.6-1.7c1.2,0,0.8,0.2,2.3,0.6l-3.4,2.4
			L216.3,379.3z M223.7,380.5v2.9l-1.7-0.6v-2.3H223.7z M221.4,384.5c2.6,0.7,2.9,4.1,2.9,7.4C219.4,388.6,219.5,392.6,221.4,384.5z
			 M219.2,333.1l5.7,1.2v27.9h-1.7V336C220.8,335.8,219.5,335.4,219.2,333.1z M220.3,343.4v-6.9l1.7,0.7v6.2H220.3z M222,347.4v13.1
			h-1.7v-14.3c0-1.6,0.2-1,1.1-1.7C221.7,345.8,222,345.9,222,347.4z M216.9,315.9l0.1-4.8l10.2,4.7l1.7,0.7v7.4l-11.9-4.7
			L216.9,315.9z M226,267.9l1.6,24.4l-5.2-2.8L226,267.9z M217.1,288.1l11.4,6.2l-1.3,1l-4-1.7l-6.3-2.9L217.1,288.1z M220.3,294.2
			c1.6,2.2,5.5,1.8,6.3,4.6l-4-1.8c-2.5-1.8-4.9-0.9-5.7-3.9L220.3,294.2z M216.9,300.5l0.1-4.2l2.8,1.4l1.1-0.6v1.7h2.2l2.3,1.1
			l1.5,1.4l0.2,7.2l-7.9-4l-2.3-1.7V300.5z M217.5,307.3l11.4,5.1v1.2l-12.1-5.2L217.5,307.3z M202.6,177.6
			c1.8,1.5,49.3,39.4,23.4,20.6c-1.8-1.3-6.4-5.1-8.1-6.7C215.5,189.3,202.1,178.9,202.6,177.6z M219.1,383.5l0.1,1
			c-2.6-0.2-4-0.2-4.6-2.3L219.1,383.5z M202.6,360.5c1.9,0.5,3.5,5.3,5.6,7.6c2.5,2.8,4.4,3.9,7,6.1l-20.6-0.6
			C197.3,369.5,202.6,369.2,202.6,360.5z M215.2,377.7c-1,0.9-1,1.1-2.9,1.1h-17.1c-1.5,0-1.7-0.8-2.3-1.7L215.2,377.7z
			 M194.6,395.9h3.4l0.6,21.1H210v-21.1h2.9v26.9h-17.1c-3,0-1.7-10.1-1.7-13.1C194.1,405.9,193,398.5,194.6,395.9z M203.8,397.1
			c0,3.9,1.6,12.3-2.3,12.6v-12.6H203.8z M201.5,396.5c0-2.5,0.9-5.9,2.3-6.9v6.9H201.5z M203.8,410.2v4.6h-2.3v-4.6H203.8z
			 M204.9,397.6V397h2.3v12.6h-2.9L204.9,397.6z M204.3,396.5v-6.9c1.5,1.1,2.7,4.4,2.9,6.9H204.3z M207.2,410.2v4.6h-2.9v-2.9
			C204.3,410,205.3,410.2,207.2,410.2z M209.5,393.7c-0.1-3.9-2.5-7.7-6.3-8c-2.3,3.5-3.3,2.4-4.6,8h-4v-8.6h18.3v8.6H209.5z
			 M194.6,424H214v1.1h-21.1C193,424.2,193.6,424,194.6,424z M204.1,443.7l-0.6-0.6l3.1-3.2l6.3-7.4v-1.1c-2.2-1-6.6-0.6-9.7-0.6
			c-4.1,0-7.1-1.3-7.4,2.3l5.1,6.9l1.3,2.2c-3.1-0.7-6.3-5.3-7-8.4l-0.6-0.6l-1.1-3.4v-1.9h21.7l-1.1,4l-2.1,3.7l-1.9,2.6
			L204.1,443.7z M202.9,441.5l-1.4-2.1l-4-7.4l14.1,0.3l-5.5,7.1L202.9,441.5z M217.5,435.9l-8,4.6l1.1-1.1
			c0.9-1.2,5.9-10.3,6.9-10.3h5.1l0.5,0.4l-4.5,5.3L217.5,435.9z M226.1,434.8h-4.6l-0.6-1.1c1.8-1.2,2.7-3.8,5.2-4V434.8z
			 M228.3,427.9h-5.7v-1.1c1.5-0.7-0.5-0.6,1.7-0.6c2,0,2.2,0.4,4,0.6V427.9z M232.7,430.8c-3.2,0.3-1.3,2.3-3.2,5.1v-7.4l4,0.6
			l0.5,5.7L232.7,430.8z M253.4,437.6l-18.3-1.5l0.6-5.9l17.7,1.8V437.6z M248.4,430.1l-1.2,0.1l-11.4-1.1l-0.6-0.6
			c1.2-1.4,12.9,1.1,16,1.1h0.6c1.6,0,1,0.2,1.7,1.1L248.4,430.1z M260.3,434.8l-2-2l-1.4,3.1v-4.5h3.4V434.8z M275.7,440.5
			l-13.7-1.7v-5.7h2.9l10.8,1.3V440.5z M282,437.6c-0.6-0.7-1-1.7-1.7-1.7c-1.3,0-1.1,1.6-1.1,2.9h-0.6l0-4.6h3.4V437.6z
			 M295.7,442.8l-12-1.1v-6.3h4l8,1.1V442.8z M279.4,430.5c-6.5-1.3-13.7-1.8-20.2-3.3c-5.3-1.2-15.1-2-20.7-2.7
			c-3.1-0.4-7.8-0.8-10.5-1.5c-4.8-1.2-7.8,0.9-7.9-3.6l1.8-0.3c-1.3-0.7-1.8-0.4-1.8-2v-24.6l3.6,2.7l-0.7,0.2l0.5,13.1v9.1
			c0,1.5-0.3,1.6-0.6,2.9l28.5,3.4l18,2.9l5.1,0.6l2.3,0.6l23.9,3.7v1.5C296.6,433.1,283.4,431.3,279.4,430.5z M302.6,441l-1.7-3.4
			l-0.7,0.5l-0.5,0.7v1.7h-1.1v-4.6h4V441z M319.2,439.3l-2.9-0.4l-1.7,0.4l-1.1-0.6l-1.2,0.6l-6.9,0.5v-1l-1.6,1.8l-0.5-3.5
			l0.5-1.1l7.9,1.1l0.7,0.4l1-0.5l0.6,0.6h2.9l0.7,0.5l1.6-0.6V439.3z M319.3,436.5h-1.1v-3.4h-0.6v2.8l-1.1,0.6l-3.4-0.6v-1.1
			l-0.7,1.1l-1.1-0.5h-3.4c0.4-1.6,0.6-1,0.6-2.3c0-0.2-0.4-1-0.6-1.7h1.1v1.1l1.7-0.5v1.1h1c2.3-2.4,2,0.2,2.9-2.9l0.7,1.1l0.9-1.2
			l0.2,2.4h0.6l2.3-0.7V436.5z M320.8,439.3h-1.1v-1.1h1.1V439.3z M320.9,417.1h1.1c0.1,1.8,0.5,2,0.5,4v8h-1.1v-2.9
			c0-2,0.4-2.2,0.6-4h-1.1V417.1z M326,437.1l-1.1,0.6v-3.5h-0.6v2.9h-2.9v-5.7c0-1.6,0.2-1,1.1-1.7v2.3l2.3-0.6h1.9L326,437.1z
			 M327.6,379.4c-1.3-0.3-1.7-0.1-1.7-1.7v-1.2c0-2,0.4-2.2,0.6-4h1.1V379.4z M328.8,437.6h-1.1v-7.4c1,0.7,1.1,0.1,1.1,1.7V437.6z
			 M330.6,437.6l-1.2,0.6c0-1.9-0.5-5.9,0.6-6.9c0.3,1.3,0.6,1.3,0.6,2.9V437.6z M332.2,435.9c0,1.6-0.2,1-1.1,1.7v-5.7h1.1V435.9z
			 M333.4,386.8H330v-2.2l1.2-0.4l2.2,0.4V386.8z M333.9,394.8v-4.6c0-1.6,0.2-1,1.1-1.7l1,3.5l-0.5,4.5
			C334.4,396.2,333.9,396.4,333.9,394.8z M334.5,415.4v-14.3c0.8,1,1.1,1,1.1,2.9v13.1C334.7,416.4,334.5,417,334.5,415.4z
			 M335.6,421.1v4.6h-1.1v-4.6H335.6z M334.5,427.4h1.1v1.1h-1.1V427.4z M339.1,435.9c0,1.6-0.2,1-1.1,1.7c0.4-1.6,0.6-1,0.6-2.3
			c0-0.8-0.6-0.9-1.1-1.1v2.8l-2.2,1.8l-0.2-1.2l1.2-1.7v-3.5l0.5,0.7l1.2-0.1c0.7,1,1.1,1,1.1,2.3V435.9z M345.9,439.4
			c-1.1-4-1.3,0.6-1.7-3.4l1.9,0.9l1.5-0.5L345.9,439.4z M343.6,430.2v-6.3h1.7v6.3H343.6z M347.6,430.8h-1.1v-5.7
			c0.9,0.7,1.1,0.1,1.1,1.7V430.8z M347.6,422.2h-1.1v-1.7h1.1V422.2z M353.1,432l-2.8-0.7l-0.6-12.4l-0.7-1.1l-1.6,1.2l-1.2-0.7
			l-1.4,4.5l-1.5-1.1l-0.7,1.1h-1.1l-0.6-2.3h-1.1v1.7h-1.1l0.1-4.6h-0.7v-2.3h1.1v-1.1h-1.1l1.2-1.1c0-3.9-1.3-13.2,1.1-14.9
			l-0.1,15.4h0.6v-9.7h1.7l0.3-5.8l-1.5,0.1v-10.9h0.7l-0.4-6.2l-0.9-55.5l3.1,1.1l8,0.6v20l-1.1-2.3h-2l-0.9,0.2l-0.5-3l-1.4,0.2
			l-2.1,2.1v27.4l0.7-0.7l8.1,7.5l0.4-0.4l-0.5,8.8l-1.3-3.6h-1.7l-0.8,0.5l-0.9-2.2h-2.3c-0.5,4.8-1.6,9-1.1,16
			c0.4,4.6,4.3,9,8,6.8l0.6-2.3V432z M344.8,279.4l0.2-6.6l2.4,2.6l0.6,8.6l0.7-0.1l0.1-7.6l2.2,2.4l0.6,6.3h0.1v16.5l-10.8-7.5
			l-0.1-9l0.6-8l0.2-7.7l2.6,2.6v7.5H344.8z M351.6,303.9c-1.9-0.5-10.4-6.3-10.8-8L351.6,303.9z M341.1,303.9l1.2,4.5l0.5-5.7
			l0.6-0.1l1.7,7.6l0.8-5.2c2.5,0.7,2.3,4.4,2.7,7.5l0.7-5.2h1.3l0.9,13.9l-10.7-7v-10.3H341.1z M349.9,354.2v4.6
			c0,1.6-0.2,1.1-1.1,1.7v-10.9C350.2,350.7,349.9,352.6,349.9,354.2z M346.5,386.8v11.4h-1.1v-11.4H346.5z M354.3,372.3l-3.4,3.4
			V375l-3.3-3L354.3,372.3z M349.3,261.6l-22.3,2.7l-0.6-2.1l23.5-2.3l10.8,11.4L349.3,261.6z"/>
		<path class="st1" d="M294,361.6v-3.4l-2.3-0.6l0,3.5h-2.3v23.4c0,2,4.7,3.4,6.9,3.4v-24C296.3,362.2,295.3,362,294,361.6z
			 M292.8,383.3h-1.7V365h1.7V383.3z M295,385h-1.1v-19.4c0-3.1-1.5,0.3-3.4-3.4l4.5,0.5V385z"/>
		<path class="st1" d="M209.9,307.3l0.8-0.5l-2.1-31.5l-1.5-0.1l-2.7,1.4l-1.7-4.8l-2.8,2.4l-2.4-5.2c-6.2,4.2-4,21.9-4,32.2
			L209.9,307.3z M206,280.5h1.1l0.7,24l-1.8-0.6V280.5z M201.9,277.5l0.7,0.1c0.3,1.3,0.6,1.3,0.6,2.9v21.7c-1.6-0.1-2.3,0-2.3-1.7
			l-0.3-13.8L201.9,277.5z M195.8,280.5c0-2.7,0.6-4.1,1.1-6.3c1,1.4,1.7,3.3,1.7,5.7v20.6c-1.8,0-2.9,0.2-2.9-1.7L195.8,280.5z"/>
		<polygon class="st1" points="342.5,282.8 342.1,294.2 342.7,293.9 349.9,297.6 349.6,289.9 348.2,287.9 349.9,287.9 349.9,286.8 
			344.2,282.9 		"/>
		<path class="st1" d="M196.3,307.4v5.7c0,5.6,4.8,4.7,5.2,9.7h1.1c0.4-4.3,4-0.7,4-6.3v-5.7C206.6,309.1,196.3,303.6,196.3,307.4z
			 M205.4,315.3c0,2-0.4,2.2-0.6,4h-3.4c-1.1-3-3.4-1-3.4-5.1v-6.9c1.3,0.3,7.4,2.6,7.4,4V315.3z"/>
		<path class="st1" d="M208.8,231.4l-15.3-9.8v42.9l15.4,7.9L208.8,231.4z M202.2,228.3c1.7,1.3,5.4,3,5.4,5.5l-12.7-9
			C196.6,224.5,201,227.4,202.2,228.3z M204.3,237.6v-1.1h1.1v1.1H204.3z M204.9,261.6v1.1h-1.1v-1.1H204.9z M201.5,247.3
			c-0.2-2.9-0.4-0.8-1.1-3.4h1.7c0.2,2.9,0.4,0.8,1.1,3.4H201.5z M202.6,259.8v4c-0.9-0.5-1.7-0.7-1.7-2.2v-2.3L202.6,259.8z
			 M200.9,238.2v-4c0.9,0.7,1.1,0.1,1.1,1.7v2.3H200.9z M207.7,270.7c-1.1-0.3-5.7-3.2-6.9-4c-2.5-1.6-5.2-1.6-5.6-5.1l12.2,6.8
			l0.3-0.6V270.7z"/>
	</g>
</g>
</svg>
