<?xml version="1.0" encoding="utf-8"?>
<!-- Generator: Adobe Illustrator 27.4.1, SVG Export Plug-In . SVG Version: 6.00 Build 0)  -->
<svg version="1.1" id="_Слой_2" xmlns="http://www.w3.org/2000/svg" xmlns:xlink="http://www.w3.org/1999/xlink" x="0px"
	 y="0px" viewBox="0 0 2943.8 605.3" style="enable-background:new 0 0 2943.8 605.3;" xml:space="preserve">
<style type="text/css">
	.st0{fill:none;stroke:#000000;stroke-miterlimit:10;}
</style>
<path class="st0" d="M2613.6,44.4l-5.6,13.1l-27.6,130.9l-10.3,3.1l-1.7-6.8c-0.2-1-1.6-1.1-2-0.1l-9.4,25.3l0.2,121.5l-7.1-0.3
	l-4.3-9.4c-0.6-1-2.1-0.6-2.1,0.5l-2.6,93.9l-17.2-9.4c-1.2-0.6-2.6-0.6-3.7,0l-17.9,9.2l-8.8-21.5c-0.4-0.9-1.7-0.8-1.9,0.2
	l-3.1,21.5l-9.6-0.2V386c-2.5,1.1-6.7,3.3-10.6,7.6c-3.2,3.5-4.9,7.1-5.8,9.5c-1.1-2.5-3-5.9-5.9-9.3c-3.5-4-7.1-6.5-9.7-8
	c-0.1,9.8-0.2,19.6-0.2,29.4l-17.6,0.5v-30.4c-2.4,0.9-7.7,3.2-11.8,8.8c-2.7,3.6-3.8,7.2-4.3,9.5c-0.8-2.4-2.4-6.3-5.6-10.1
	c-3.7-4.4-7.8-6.8-10.3-8v29.7l-17.8,0.2V385c-2.2,0.8-7.7,2.9-11.9,8.6c-2.8,3.8-3.8,7.5-4.2,9.7c-0.8-2.4-2.4-6.1-5.5-9.7
	c-3.7-4.4-7.9-6.7-10.4-7.9l-0.5,29.7l-17.1,0.2c0.1-10,0.2-20.1,0.2-30.1c-2.3,0.8-6.9,2.8-11,7.4c-3.3,3.7-4.9,7.5-5.6,9.8
	c-0.6-2.2-2-6.4-5.6-10.5c-3.9-4.3-8.2-6.2-10.4-7c0,10.3-0.1,20.5-0.1,30.8l-7.7,0v16.6l0,0v1.8v0l-0.1,31.9l-8.5,0l-191.4-114
	l-0.1-24l-15.3-19.9c-1.2-1.6-3.8-0.7-3.8,1.3l0.2,41.5l-0.8,0l-188.3,115.8h-50.8L1639,355.1v-46.6c0-1.9-2.3-2.8-3.6-1.4
	l-16.3,17.4l0.3,28.4l-1.2-0.1l-179.9,114l-13.3,0l0,0l-8.6,0l-191.4-114l-0.1-24l-15.3-19.9c-1.2-1.6-3.8-0.7-3.8,1.3l0.2,41.5
	l-0.8,0L1017,467.6h-50.8L774.3,355.8v-46.6c0-1.9-2.3-2.8-3.6-1.4l-16.3,17.4l0.3,28.4l-1.2-0.1l-179.9,114l-13.5,0v-1.8l-0.2-8.9
	l-26,0.2l-0.1-8.3c0-0.4-0.2-1.7-1.4-2.8c-1.3-1.3-3-1.3-3.3-1.2c-1.9,0-3.8,0-5.7,0c-0.1-24.8-0.2-49.6-0.2-74.4c3.2,0,6.4,0,9.5,0
	c1,0,1.8-0.8,1.8-1.8l-0.1-7.1c-1.4-2-2.8-4-4.2-6.1c4.5,0.3,17.5,0.7,30.3-7.6c9.1-5.9,14-13.4,16.2-17.5c0-3.9-0.1-7.8-0.1-11.6
	l-2.7-2.7c-0.8-0.9-2.2-1.1-3.2-0.5l-14,7l-16.8,0.4c-6.8-1.5-15.1-4.1-24.2-8.4c-10.6-5.1-18.8-11-24.6-15.9c0-4.3,0.1-8.6,0.1-13
	c5.4,0.4,18.1,0.5,30.9-7.2c5.8-3.5,9.9-7.7,12.7-11c0.2-4.1,0.4-8,0.6-12.2l-2.5-3.8c-0.9-1.3-2.6-1.8-4-1l-9.7,5.4l-17.7-0.1
	c-8.9-2.3-26-8.2-42.1-23.2c-12.7-11.9-19.5-24.5-23-32.4c0-1.7,0-3.4-0.1-5.2l-4.1-4.6l-0.1-11.1l-4.3-8.1c-0.3-0.6-0.9-1-1.6-1
	l-3.6-0.1c-1.4,0-2.2,1.4-1.5,2.6l2.9,5.1c-1.5,1.7-3.8,4.1-7.3,6.1c-2.7,1.6-5.3,2.5-7.2,3c-0.5,0-2.5-0.1-4.2,1.3
	c-1.2,1-1.7,2.2-1.9,2.8c-79.6-0.1-159.2-0.1-238.8-0.2c0-0.2,0.2-1.1-0.3-2c-0.6-1.1-1.8-1.2-1.9-1.3c-2.1-0.2-5.7-0.9-9.6-3.2
	c-4.2-2.4-6.6-5.5-7.9-7.3l2.6-3.8c0.9-1.3-0.1-3-1.6-3l-3.3,0c-1.2,0-2.3,0.5-3.1,1.3l-3.9,4l0.1,15.4c-0.3,0-1.9,0.1-3.1,1.3
	c-1.3,1.3-1.3,3-1.3,3.3c0,1.8,0,3.7-0.1,5.5c-2,7.1-6.3,18.9-15.9,30.4c-13.8,16.6-30.6,23-38.1,25.4c-5.7,0.1-11.3,0.2-17,0.2
	c-3.8-1.5-7.1-2.8-10.9-4.4c-1.6-1.4-3.8-1.5-5.4-0.4c-1,0.7-1.7,1.2-3.1,2.2l-0.1,11.3c2.1,3.4,6.5,9.4,14,13.9
	c11.2,6.8,22.2,6.3,26.2,5.9c0.1,4.8,0.2,9.6,0.2,14.4c-3.6,4.2-9.4,10.1-18,15.1c-9.4,5.5-18.1,7.7-23.7,8.7l-15.2-0.1
	c-6.3-2-12.1-4-18.4-6c-1.6-1.1-3.7-0.6-4.7,0.9l-0.9,1.3c0,5,0.1,10,0.1,15c2.2,3.6,7,10.4,15.8,15.5c11.5,6.6,22.6,6,26.7,5.6
	l-3.8,4.8l0,8.9c0,1.1,0.9,2,2,2l7.9,0.1l-0.1,73.3h-6.5c-0.1,0-1.7-0.4-2.9,0.9c-1.1,1.2-0.8,2.7-0.8,2.8c0,3,0.1,6.1,0.1,9.1H17.6
	v9.2l-0.9,11.6h543.9v-0.1l158.1,0.5h95.8l0,0h445.4v0.1l164.3,0.4h0.9l0,0l158.3-1.1h95.8l0,0h445.4v0.1l165.1,0.4l-0.2,124.1
	h200.2V435h-195.4v-3.4h206.1v2.4h-1.8v168.5h59.4v-53.3c2.8-4.7,8.8-13.1,19.5-19.8c13.4-8.3,26.4-9,32-8.9
	c4.2,0.1,8.5,0.2,12.8,0.2c4.8-0.2,17,0,29.6,7.6c11.4,6.8,17.1,16.1,19.5,20.4v53.8h60.4l0.2-168.5h-5.7v-2.4h206.1v2.4h-191
	l-0.3,168.5l202.4,0.7l-0.4-187l-10.6-0.1l0.4-29.9c-2.1,0.6-6.3,2.1-10.1,6c-4.4,4.4-5.9,9.4-6.4,11.5c-1-2.6-2.9-6.9-6.8-11
	c-3.4-3.6-6.9-5.7-9.2-6.9l-0.2,30.7h-17.3v-30.7c-2.6,1.1-7.3,3.5-11.4,8.4c-3.1,3.6-4.7,7.3-5.6,9.7c-0.8-2.5-2.5-6.5-6-10.5
	c-3.3-3.8-6.8-5.9-9.1-7.1v30l-18.4,0.2l0.1-30.7c-2.2,0.7-7,2.6-11.1,7.3c-3.7,4.2-5.1,8.6-5.6,10.8c-0.6-2.4-2.2-6.7-5.8-10.9
	c-3.4-3.9-7.2-6-9.3-7c-0.2,10.2-0.3,20.4-0.5,30.6l-16.5-0.2l-0.1-30.5c-2.2,0.7-7.1,2.7-11.3,7.4c-3.6,4.1-5,8.3-5.6,10.5
	c-0.9-2.6-2.7-6.7-6.3-10.9c-3.3-3.8-6.8-6-9.1-7.2c-0.2,10.2-0.3,20.5-0.5,30.7l-9.6-0.4l-3.4-24.3c-0.1-0.9-1.4-1.1-1.8-0.3
	l-14.3,27.3l-13.7-11.1c-0.8-0.7-1.9-0.8-2.9-0.3l-20.2,10.8l0.3-94.3c0-0.5-0.7-0.8-1-0.3l-5.7,8.4l-6.7,0.1l1-122.8l-9.2-24.5
	c-0.3-0.9-1.6-0.8-1.8,0.1l-2.2,7.4l-9.9-3.1l-28.1-131.7l-6-12.9 M2828.5,470.7l-25.8-0.3c-0.1-5.4-0.1-10.8-0.1-16.2
	c0.6-1.7,1.8-4.9,4.6-7.8c3.3-3.5,7-4.9,8.8-5.4c1.8,0.6,5.7,2.2,8.9,6.1c2.3,2.8,3.3,5.7,3.8,7.4L2828.5,470.7L2828.5,470.7z
	 M2880.6,471.4l-25.8-0.3c-0.1-5.4-0.1-10.8-0.1-16.2c0.6-1.7,1.8-4.9,4.6-7.8c3.3-3.5,7-4.9,8.8-5.4c1.8,0.6,5.7,2.2,8.9,6.1
	c2.3,2.8,3.3,5.7,3.8,7.4L2880.6,471.4L2880.6,471.4z M136.2,194.4H433v1.2c0,1.3-1.1,2.4-2.4,2.4h-292c-1.3,0-2.4-1.1-2.4-2.4
	L136.2,194.4L136.2,194.4z M84.8,286.3h402.9v12.5H84.8C84.8,298.8,84.8,286.3,84.8,286.3z M574.6,323.9
	C574.6,323.9,574.6,323.9,574.6,323.9c0.1,1-0.4,2-1.2,2.6c-5.5,3.5-12.5,7.4-21.1,10.7c-7.4,2.9-14.2,4.7-20,5.8
	c-1.8,0.3-3.5,0.5-5.3,0.5c-160.3-0.1-320.5-0.1-480.8-0.2c-1.6,0-3.3-0.1-4.9-0.4c-5.4-1-11.8-2.6-18.8-5.4
	c-7.1-2.8-12.9-6.1-17.4-9.2c-0.7-0.5-1.2-1.3-1.2-2.2c0,0,0-0.1,0-0.1 M522.6,367.8h-473 M509.8,444l-11.7,0.2l-0.1-68.7l11.7-4.2
	L509.8,444L509.8,444z M460.7,445.1V375 M409.5,445.1v-70.3 M358.6,445.3v-70.1 M307.4,445.3v-70.3 M265.6,375.2v70.1 M214.6,374.9
	v70.3 M163.5,375.4v70.1 M112.4,375.1v70.3 M75.7,376.9l-0.1,67.9H62.4l0.1-71.2L75.7,376.9z M48.5,446.7H524 M754.7,355.7l0.1,10
	l-1.4-0.1L607.3,467.4l-27.8,0.1 M754.9,368l0.1,14h-1.1l-117.5,85.3l-25.5,0.1 M755,384.6l0.4,42.2l-6.6,40.1l-108.8,0.4
	 M760.8,467.8c-0.4-4.5-0.3-11.4,2.4-18.9c0.9-2.5,1.9-4.6,3-6.5c1.5,2,3.1,4.5,4.5,7.6c3.3,7,4,13.4,4.1,17.7
	C770.2,467.7,765.5,467.7,760.8,467.8L760.8,467.8z M898.3,467.6H786l-11.7-40.8v-40.7 M930.2,467.6h-27.5l-128.3-84.1v-12.4
	 M961,467.6h-26.4l-160.3-99.1v-9.8 M1206.1,354.9l0.1,10.3l-1.6-0.1L1053,467.6h-29.6 M1206.2,367.1l0.1,17.1l-1.5-0.1l-123.6,83.5
	H1057 M1206.3,386l0.3,45.3l-11.6,36.2h-107.3 M1206,467.7c0.4-3.6,1.5-8.9,4.6-14.6c1.6-2.9,3.3-5.3,4.9-7.1
	c1.2,2.3,2.4,5.1,3.4,8.3c1.6,5.2,2.1,9.8,2.2,13.3C1216,467.7,1211,467.7,1206,467.7L1206,467.7z M1349.8,467.4l-116.2,0.1
	l-8.4-36.2l-0.1-43.4 M1382,467.4l-27.3,0l-129.6-81.6l0-16.8 M1411.7,467.3l-25.7,0L1225,366.9l0-10.6 M1619.4,354.9l0.1,10
	l-1.4-0.1L1472,466.7l-27.8,0.1 M1619.6,367.3l0.1,14h-1.1l-117.5,85.3l-25.5,0.1 M1619.8,383.9l0.4,42.2l-6.6,40.1l-108.8,0.4
	 M1625.5,467.1c-0.4-4.5-0.3-11.4,2.4-18.9c0.9-2.5,1.9-4.6,3-6.5c1.5,2,3.1,4.5,4.6,7.6c3.3,7,4,13.4,4.1,17.7
	C1634.9,467,1630.2,467,1625.5,467.1L1625.5,467.1z M1763.1,466.9h-112.3l-11.7-40.8v-40.7 M1794.9,466.9h-27.5L1639,382.8v-12.4
	 M1825.7,466.9h-26.4L1639,367.8v-9.8 M2070.8,354.2l0.1,10.3l-1.6-0.1l-151.6,102.5h-29.6 M2070.9,366.4l0.1,17.1l-1.5-0.1
	l-123.6,83.5h-24.2 M2071,385.3l0.3,45.3l-11.6,36.2h-107.3 M2070.7,467c0.4-3.6,1.5-8.9,4.6-14.6c1.6-2.9,3.3-5.3,4.9-7.1
	c1.2,2.3,2.4,5.1,3.4,8.3c1.6,5.2,2.1,9.8,2.2,13.3C2080.7,467,2075.7,467,2070.7,467L2070.7,467z M2214.5,466.7l-116.2,0.1
	l-8.4-36.2l-0.1-43.4 M2246.7,466.6l-27.3,0l-129.6-81.6l0-16.8 M2276.4,466.6l-25.7,0l-160.9-100.4l0-10.6 M2405.4,447.9
	c3.3-3.5,7-4.9,8.8-5.4c1.8,0.6,5.7,2.2,8.9,6.1c2.3,2.8,3.3,5.7,3.8,7.4l-0.2,16.2l-25.8-0.3c-0.1-5.4-0.1-10.8-0.1-16.2
	C2401.3,454,2402.6,450.9,2405.4,447.9L2405.4,447.9z M2356.6,448.1c3.3-3.5,7-4.9,8.8-5.4c1.8,0.6,5.7,2.2,8.9,6.1
	c2.3,2.8,3.3,5.7,3.8,7.4l-0.2,16.2l-25.8-0.3c-0.1-5.4-0.1-10.8-0.1-16.2C2352.6,454.2,2353.8,451.1,2356.6,448.1L2356.6,448.1z
	 M2656.5,204.7l5.9-14.7l5.7,19.1l0.3,28.5l-11.9-2.9L2656.5,204.7L2656.5,204.7z M2619,62.1l20.5,127.8l-9.6-9l-13,11.4L2619,62.1
	L2619,62.1z M2610.4,60.2l0.3,132.1l-11.7-13.2l-9.8,10.4C2589.2,189.6,2610.4,60.2,2610.4,60.2z M2567.2,188.8l5.1,17.3l0.1,28.3
	l-11.1,3.8l-0.1-29.2L2567.2,188.8 M2566.7,493.1l-4.1-3.7l-0.2-63.5c1.8,0,3.5-0.1,5.3-0.1c0.9-0.2,2.6-0.7,4.3-2.2
	c2.2-1.9,2.8-4.3,3-5.2c-0.1-1.3-0.1-4.4,1.8-7.6c2.9-5,8.1-6.1,9-6.3c2.3-0.6,6.4-2.1,10.4-5.7c4.8-4.4,6.8-9.4,7.5-11.7
	c0.3-5.4,0.6-10.9,0.8-16.3c0-1,0.1-3,1.3-5.2c1.2-2.2,3.3-3.3,4.1-3.9h4.9c0.8,0.3,3,1.2,4.6,3.7c1.6,2.5,1.6,5.1,1.5,5.9
	c0.2,5.4,0.5,10.9,0.7,16.3c0.9,2.4,3.1,7.1,8.1,11.2c4.1,3.4,8.2,4.8,10.6,5.4c1.5,0.4,4.6,1.6,7.3,4.6c3.6,3.9,4.1,8.3,4.2,9.8
	c0.2,0.8,0.7,3,2.6,4.9c1.6,1.6,3.4,2.2,4.2,2.4h5.2l-0.4,63.3l-3.9,4.2L2566.7,493.1L2566.7,493.1z"/>
<path class="st0" d="M16.4,480.9L6.6,602.8h138.5c0.8-17.6,1.6-35.1,2.4-52.7c0.4-1.7,2.7-11.7,12-16.5c3.6-1.9,7.1-2.3,9.4-2.4
	c2.3,0.1,6.2,0.7,10.3,3.1c8.5,5.1,10.2,14.5,10.5,16.1l1.4,52.3h66c0.9-19.5,1.8-39,2.7-58.5c0.1-1.5,1.1-11.7,9.8-17.6
	c4.6-3.1,9.3-3.7,11.6-3.7c1.9,0.1,8,0.7,13.3,5.5c6.8,6.1,7.1,14.4,7.1,15.9l1.6,58.5h66c0.8-17.5,1.6-35,2.4-52.5
	c0.4-1.7,2.7-11.7,12-16.5c3.6-1.9,7.1-2.3,9.4-2.4c2.3,0.1,6.2,0.7,10.3,3.1c8.5,5.1,10.2,14.5,10.5,16.1l1.4,52.2h160.7l-15-121.9
	L16.4,480.9L16.4,480.9z"/>
<polygon class="st0" points="737.7,491.4 743.3,491.8 743.5,604.8 753,604.8 752.7,492 779,492.2 779.5,604.8 789,604.8 789,491.8 
	807,482.5 724.3,482.5 "/>
<polygon class="st0" points="1189.8,494.5 1189.4,604.8 1198.9,604.8 1198.7,494.2 1226.8,494.5 1226.4,604.8 1236.2,604.8 
	1236.2,493.7 1253.8,482 1170.8,482 "/>
<rect x="466.1" y="288.3" class="st0" width="13.8" height="8.2"/>
<rect x="432.1" y="288.2" class="st0" width="13.8" height="8.2"/>
<rect x="397.8" y="288.2" class="st0" width="13.8" height="8.2"/>
<rect x="364.1" y="288.2" class="st0" width="13.8" height="8.2"/>
<rect x="330" y="288.2" class="st0" width="13.8" height="8.2"/>
<rect x="295.7" y="288.2" class="st0" width="13.8" height="8.2"/>
<rect x="262.5" y="288.3" class="st0" width="13.8" height="8.2"/>
<rect x="228.5" y="288.2" class="st0" width="13.8" height="8.2"/>
<rect x="194.1" y="288.2" class="st0" width="13.8" height="8.2"/>
<rect x="160.4" y="288.2" class="st0" width="13.8" height="8.2"/>
<rect x="126.4" y="288.2" class="st0" width="13.8" height="8.2"/>
<rect x="92.1" y="288.2" class="st0" width="13.8" height="8.2"/>
<polygon class="st0" points="1602.3,490.7 1608,491.1 1608.1,604.1 1617.6,604.1 1617.4,491.3 1643.7,491.6 1644.2,604.1 
	1653.7,604.1 1653.7,491.1 1671.7,481.8 1589,481.8 "/>
<polygon class="st0" points="2054.5,493.8 2054.1,604.1 2063.6,604.1 2063.4,493.5 2091.5,493.8 2091.1,604.1 2100.8,604.1 
	2100.8,493 2118.5,481.3 2035.5,481.3 "/>
<path class="st0" d="M2615.3,256.9c-21.6,0-39.1,17.5-39.1,39.1s17.5,39.1,39.1,39.1s39.1-17.5,39.1-39.1S2636.9,256.9,2615.3,256.9
	L2615.3,256.9z M2615.5,331.5c-19.7,0-35.6-16-35.6-35.6s15.9-35.6,35.6-35.6s35.6,16,35.6,35.6S2635.1,331.5,2615.5,331.5z"/>
<polygon class="st0" points="2614.5,1.1 2622.9,18.1 2641.7,20.9 2628.1,34.1 2631.3,52.8 2614.5,44 2597.7,52.8 2600.9,34.1 
	2587.3,20.9 2606.1,18.1 "/>
</svg>
