<?xml version="1.0" encoding="UTF-8"?>
<svg id="_Слой_2" data-name="Слой 2" xmlns="http://www.w3.org/2000/svg" viewBox="0 0 2942.77 620.24">
  <path d="m2740.67,449.46l-.32,168.5,202.42.71-.36-187-10.59-.12.36-29.9c-2.08.6-6.26,2.12-10.1,5.95-4.45,4.43-5.89,9.42-6.38,11.53-.97-2.63-2.91-6.9-6.78-11.05-3.36-3.6-6.86-5.72-9.22-6.91l-.24,30.74h-17.32v-30.74c-2.61,1.11-7.27,3.52-11.39,8.36-3.1,3.64-4.72,7.29-5.57,9.73-.8-2.45-2.47-6.51-5.97-10.53-3.29-3.77-6.82-5.93-9.06-7.07v30.02l-18.41.24.12-30.74c-2.18.7-6.97,2.57-11.12,7.26-3.71,4.21-5.08,8.61-5.61,10.82-.65-2.36-2.17-6.66-5.81-10.85-3.42-3.93-7.16-5.99-9.34-6.99-.16,10.21-.32,20.42-.48,30.62l-16.48-.24-.12-30.5c-2.25.74-7.09,2.68-11.27,7.43-3.57,4.06-4.99,8.27-5.57,10.53-.9-2.59-2.69-6.74-6.3-10.85-3.29-3.75-6.77-5.99-9.1-7.23-.16,10.25-.32,20.5-.48,30.74l-9.62-.36-3.43-24.31c-.13-.92-1.36-1.13-1.79-.31l-14.27,27.28-13.69-11.08c-.82-.66-1.95-.77-2.88-.28l-20.24,10.76.29-94.26c0-.55-.71-.77-1.01-.31l-5.66,8.43-6.74.06,1.04-122.78-9.17-24.54c-.33-.87-1.57-.83-1.84.06l-2.22,7.36-9.94-3.13-28.15-131.74-6.03-12.93,22.33,11.77-4.43-25.9,18.77-18.34-25.94-3.78-11.6-23.56-11.6,23.56-25.94,3.78,18.77,18.34-4.43,25.9,22.4-11.8-5.6,13.12-27.59,130.85-10.27,3.05-1.74-6.75c-.25-.99-1.63-1.06-1.98-.1l-9.43,25.34.16,121.53-7.06-.32-4.28-9.37c-.56-.99-2.06-.61-2.09.52l-2.61,93.88-17.24-9.44c-1.16-.63-2.55-.65-3.72-.05l-17.94,9.24-8.76-21.53c-.37-.92-1.71-.75-1.85.23l-3.1,21.54-9.62-.24v-29.9c-2.49,1.08-6.72,3.31-10.59,7.64-3.17,3.54-4.87,7.11-5.77,9.48-1.13-2.52-2.97-5.89-5.93-9.32-3.47-4.02-7.12-6.54-9.7-8.04-.08,9.81-.16,19.61-.24,29.42l-17.56.48v-30.38c-2.35.88-7.66,3.24-11.79,8.84-2.68,3.63-3.81,7.22-4.33,9.48-.8-2.44-2.39-6.28-5.61-10.13-3.71-4.43-7.84-6.8-10.27-7.96v29.66l-17.8.24v-30.38c-2.2.75-7.7,2.94-11.87,8.6-2.77,3.77-3.82,7.51-4.25,9.73-.83-2.39-2.42-6.06-5.53-9.73-3.74-4.41-7.9-6.74-10.35-7.88l-.48,29.66-17.08.24c.08-10.05.16-20.09.24-30.14-2.34.82-6.95,2.81-11.03,7.36-3.31,3.7-4.85,7.5-5.57,9.76-.6-2.22-2.04-6.43-5.65-10.49-3.85-4.32-8.17-6.25-10.35-7.05-.04,10.27-.08,20.54-.12,30.8l-7.7.02v16.61h0v1.81s0,.02,0,.02l-.05,31.87-8.51.03-191.39-113.97-.06-24.02-15.29-19.93c-1.23-1.6-3.77-.72-3.76,1.29l.25,41.47-.76-.02-188.34,115.84h-50.83l-191.87-111.75v-46.56c0-1.91-2.33-2.83-3.63-1.44l-16.29,17.36.3,28.4-1.19-.07-179.93,114-13.27.05h0s-8.61.03-8.61.03l-191.39-113.97-.06-24.02-15.29-19.93c-1.23-1.6-3.77-.72-3.76,1.29l.25,41.47-.76-.02-188.34,115.84h-50.83l-191.87-111.75v-46.56c0-1.91-2.33-2.83-3.63-1.44l-16.29,17.36.3,28.4-1.19-.07-179.93,114-13.47.05v-1.81l-.16-8.88-25.96.18-.06-8.26c-.04-.37-.23-1.71-1.36-2.79-1.34-1.28-2.98-1.26-3.29-1.25-1.9-.01-3.79-.03-5.69-.04-.07-24.82-.15-49.63-.22-74.45,3.18-.02,6.36-.03,9.54-.05.99,0,1.79-.82,1.78-1.81l-.09-7.11c-1.38-2.02-2.77-4.04-4.15-6.06,4.51.33,17.48.7,30.35-7.6,9.1-5.87,13.99-13.4,16.24-17.47-.04-3.88-.08-7.76-.12-11.64l-2.73-2.73c-.85-.85-2.15-1.07-3.22-.53l-13.96,6.95-16.83.36c-6.75-1.54-15.12-4.08-24.21-8.44-10.61-5.08-18.79-10.99-24.63-15.92.04-4.32.08-8.63.12-12.95,5.37.39,18.15.54,30.91-7.22,5.81-3.53,9.92-7.68,12.68-11.02.21-4.14.42-8.02.63-12.17l-2.49-3.83c-.87-1.33-2.62-1.77-4.01-1l-9.74,5.4-17.66-.12c-8.85-2.34-25.99-8.17-42.08-23.17-12.71-11.85-19.52-24.53-23-32.44-.02-1.72-.04-3.45-.06-5.17l-4.09-4.57-.12-11.05-4.34-8.12c-.32-.6-.94-.98-1.61-.99l-3.59-.05c-1.36-.02-2.22,1.45-1.54,2.63l2.91,5.05c-1.46,1.73-3.82,4.12-7.28,6.15-2.73,1.6-5.27,2.48-7.2,2.99-.48-.03-2.48-.1-4.22,1.34-1.21,1-1.69,2.21-1.87,2.76-79.6-.07-159.21-.15-238.81-.22.04-.2.21-1.1-.33-1.99-.64-1.06-1.77-1.25-1.93-1.28-2.1-.23-5.74-.91-9.63-3.18-4.16-2.42-6.63-5.5-7.85-7.28l2.58-3.82c.87-1.28-.06-3.02-1.61-3l-3.3.03c-1.18.01-2.31.49-3.14,1.34l-3.92,4,.14,15.35c-.32,0-1.87.07-3.12,1.32-1.34,1.34-1.33,3.02-1.32,3.31-.02,1.84-.04,3.68-.06,5.52-2,7.15-6.3,18.88-15.94,30.42-13.84,16.55-30.58,23.04-38.05,25.43-5.68.08-11.35.16-17.03.24-3.79-1.51-7.14-2.84-10.93-4.35-1.58-1.37-3.79-1.47-5.44-.41-1.02.66-1.68,1.23-3.08,2.17l-.09,11.26c2.14,3.43,6.48,9.35,14.05,13.93,11.19,6.77,22.25,6.28,26.25,5.91.08,4.81.16,9.62.24,14.44-3.55,4.2-9.39,10.1-17.96,15.15-9.36,5.51-18.08,7.71-23.71,8.67l-15.17-.12c-6.27-2.05-12.1-3.96-18.37-6.01-1.6-1.1-3.66-.65-4.69.85l-.89,1.3c.03,4.99.06,9.98.09,14.97,2.18,3.57,7.02,10.4,15.8,15.45,11.49,6.6,22.59,6.05,26.67,5.64l-3.79,4.75.05,8.87c0,1.08.87,1.95,1.95,1.97l7.9.1-.12,73.28h-6.54c-.09-.02-1.71-.35-2.89.86-1.14,1.17-.83,2.72-.8,2.84.03,3.04.06,6.09.09,9.13h-21.34v9.18l-.94,11.64h543.91v-.12s158.07.47,158.07.47h95.75s0,0,0,0h445.38v.12l164.28.35h.93s0,0,0,0l158.32-1.15h95.75s0,0,0,0h445.38v.12l165.1.35-.18,124.05h200.18v-168.47h-195.43v-2.41h206.09v2.41h-1.75v168.47h59.43v-53.3c2.84-4.69,8.82-13.14,19.49-19.77,13.4-8.33,26.45-8.97,32-8.92,4.25.08,8.5.16,12.75.24,4.83-.19,17,0,29.62,7.59,11.36,6.83,17.13,16.09,19.46,20.39v53.79h60.39l.24-168.5h-5.71v-2.41h206.09v2.41h-191Zm87.21,30.62l-25.83-.32c-.05-5.41-.1-10.82-.15-16.23.56-1.74,1.83-4.85,4.65-7.8,3.33-3.47,7.03-4.85,8.82-5.39,1.76.59,5.68,2.18,8.9,6.11,2.32,2.82,3.32,5.68,3.77,7.39l-.16,16.24Zm52.18.72l-25.83-.32c-.05-5.41-.1-10.82-.15-16.23.56-1.74,1.83-4.85,4.65-7.8,3.33-3.47,7.03-4.85,8.82-5.39,1.76.59,5.68,2.18,8.9,6.11,2.32,2.82,3.32,5.68,3.77,7.39l-.16,16.24Zm48.43-.7l-25.83-.32c-.05-5.41-.1-10.82-.15-16.23.56-1.74,1.83-4.85,4.65-7.8,3.33-3.47,7.03-4.85,8.82-5.39,1.76.59,5.68,2.18,8.9,6.11,2.32,2.82,3.32,5.68,3.77,7.39l-.16,16.24ZM135.68,209.79h296.78v1.16c0,1.33-1.07,2.41-2.4,2.41H138.08c-1.33,0-2.4-1.08-2.4-2.41v-1.16Zm-51.39,91.96h402.94v12.48H84.29v-12.48Zm-38.59,56.97c-1.64,0-3.29-.13-4.9-.43-5.38-.98-11.83-2.62-18.83-5.44-7.07-2.84-12.88-6.15-17.43-9.16-.73-.48-1.18-1.3-1.21-2.17,0-.03,0-.06,0-.09,4.85,3.27,11.27,6.98,19.22,10.13,7.68,3.04,14.67,4.72,20.35,5.67.49.08.99.12,1.49.12,161.33-.04,322.65-.08,483.98-.12.48,0,.94-.04,1.41-.13,6.22-1.18,13.59-3.07,21.59-6.17,9.29-3.59,16.89-7.83,22.76-11.64,0,0,0,.01,0,.02.09,1.01-.38,2-1.23,2.55-5.51,3.55-12.54,7.43-21.06,10.74-7.36,2.87-14.18,4.66-20.01,5.8-1.76.34-3.54.51-5.33.51-160.26-.06-320.53-.13-480.79-.19Zm3.38,24.47v-1.6h473v1.6H49.08Zm460.2,76.22l-11.74.24-.12-68.67,11.74-4.16.12,72.59Zm-46.94-69.03v70.1h-2.13v-70.1h2.13Zm-51.09-.24v70.34h-2.25v-70.34h2.25Zm-51.04.46v70.1h-2.13v-70.1h2.13Zm-51.09-.24v70.34h-2.25v-70.34h2.25Zm-43.96.22v70.1h-2.13v-70.1h2.13Zm-51.09-.24v70.34h-2.25v-70.34h2.25Zm-51.04.46v70.1h-2.13v-70.1h2.13Zm-51.09-.24v70.34h-2.25v-70.34h2.25Zm-36.69,1.72l-.09,67.9h-13.25l.09-71.2,13.25,3.3Zm448.29,71.29H48.01v-1.43h475.49v1.43Zm55.46,19.36l175.26-111.85.1,10.03-1.4-.11-146.14,101.83-27.82.11Zm31.43-.12l143.96-99.42.14,14.02h-1.09s-117.47,85.31-117.47,85.31l-25.53.1Zm137.97-.53l-108.8.41,114.95-82.68.42,42.16-6.58,40.1Zm11.91.89c-.4-4.55-.34-11.37,2.4-18.86.89-2.45,1.94-4.6,3-6.45,1.52,2.03,3.13,4.54,4.55,7.56,3.27,6.96,4.01,13.43,4.11,17.69-4.68.02-9.37.04-14.05.06Zm25.25-.18l-11.74-40.81v-40.66l124.04,81.47h-112.3Zm116.59,0l-128.32-84.08v-12.41l155.86,96.49h-27.53Zm31.97,0l-160.29-99.11v-9.83l186.66,108.94h-26.37Zm88.81,0l182.72-112.69.06,10.29-1.56-.08-151.62,102.48h-29.61Zm33.63,0l149.16-100.51.1,17.06-1.51-.08-123.58,83.52h-24.17Zm30.73,0l118.55-81.52.27,45.34-11.56,36.18h-107.26Zm118.2.18c.42-3.64,1.52-8.94,4.55-14.6,1.56-2.92,3.3-5.29,4.88-7.14,1.19,2.28,2.43,5.06,3.43,8.33,1.59,5.17,2.08,9.8,2.17,13.33-5.01.03-10.02.06-15.03.09Zm27.65-.27l-8.45-36.18-.11-43.43,124.76,79.51-116.2.09Zm121.04-.1l-129.61-81.58-.04-16.83,156.98,98.39-27.33.02Zm31.24-.02l-160.9-100.44-.03-10.65,186.65,111.07-25.72.02Zm58.25-.54l175.26-111.85.1,10.03-1.4-.11-146.14,101.83-27.82.11Zm31.43-.12l143.96-99.42.14,14.02h-1.09s-117.47,85.31-117.47,85.31l-25.53.1Zm137.97-.53l-108.8.41,114.95-82.68.42,42.16-6.58,40.1Zm11.91.89c-.4-4.55-.34-11.37,2.4-18.86.89-2.45,1.94-4.6,3-6.45,1.52,2.03,3.13,4.54,4.55,7.56,3.27,6.96,4.01,13.43,4.11,17.69-4.68.02-9.37.04-14.05.06Zm25.25-.18l-11.74-40.81v-40.66l124.04,81.47h-112.3Zm116.59,0l-128.32-84.08v-12.41l155.86,96.49h-27.53Zm31.97,0l-160.29-99.11v-9.83l186.66,108.94h-26.37Zm88.81,0l182.72-112.69.06,10.29-1.56-.08-151.62,102.48h-29.61Zm33.63,0l149.16-100.51.1,17.06-1.51-.08-123.58,83.52h-24.17Zm30.73,0l118.55-81.52.27,45.34-11.56,36.18h-107.26Zm118.2.18c.42-3.64,1.52-8.94,4.55-14.6,1.56-2.92,3.3-5.29,4.88-7.14,1.19,2.28,2.43,5.06,3.43,8.33,1.59,5.17,2.08,9.8,2.17,13.33-5.01.03-10.02.06-15.03.09Zm27.65-.27l-8.45-36.18-.11-43.43,124.76,79.51-116.2.09Zm121.04-.1l-129.61-81.58-.04-16.83,156.98,98.39-27.33.02Zm31.24-.02l-160.9-100.44-.03-10.65,186.65,111.07-25.72.02Zm154.75-25.73c3.33-3.47,7.03-4.85,8.82-5.39,1.76.59,5.68,2.18,8.9,6.11,2.32,2.82,3.32,5.68,3.77,7.39l-.16,16.24-25.83-.32c-.05-5.41-.1-10.82-.15-16.23.56-1.74,1.83-4.85,4.65-7.8Zm-48.73.23c3.33-3.47,7.03-4.85,8.82-5.39,1.76.59,5.68,2.18,8.9,6.11,2.32,2.82,3.32,5.68,3.77,7.39l-.16,16.24-25.83-.32c-.05-5.41-.1-10.82-.15-16.23.56-1.74,1.83-4.85,4.65-7.8Zm-52.4-.08c3.33-3.47,7.03-4.85,8.82-5.39,1.76.59,5.68,2.18,8.9,6.11,2.32,2.82,3.32,5.68,3.77,7.39l-.16,16.24-25.83-.32c-.05-5.41-.1-10.82-.15-16.23.56-1.74,1.83-4.85,4.65-7.8Zm230.37,9.03l-31.6.16v-19.77c.54-2.28,1.65-5.67,4.09-9.16,3.83-5.48,8.74-8.09,11.15-9.16,2.44,1.04,7.02,3.38,10.99,8.2,3.18,3.86,4.66,7.73,5.37,10.13v19.61Zm121.87-245.41l5.85-14.71,5.69,19.05.32,28.53-11.87-2.89v-29.98Zm-37.45-142.59l20.53,127.8-9.62-9-12.99,11.41,2.09-130.21Zm24.62,141.95l-.16,31.51-25.5-.16.08-30.79,12.27-20.26,13.31,19.69Zm-33.28-143.88l.32,132.14-11.71-13.18-9.78,10.45,21.17-129.41Zm-24.89,144.79l12.27-20.26,13.31,19.69-.16,31.51-25.5-.16.08-30.79Zm27.41,42.49l.13,46.13-34.37-28.18c8.18-10.2,20.41-16.99,34.24-17.95Zm-34.3,18.03l-4.43,6.59c1.3-2.32,2.78-4.52,4.43-6.59Zm33.22,37.75h9.62l-.26-55.65-8.16-.13c1.07-.07,2.14-.12,3.23-.12,26.63,0,48.22,21.64,48.22,48.33s-21.59,48.33-48.22,48.33-48.22-21.64-48.22-48.33c0-8.52,2.21-16.53,6.08-23.48l37.71,31.06Zm-44.59-114.46l5.13,17.28.08,28.29-11.07,3.78-.08-29.18,5.93-20.17Zm8.14,323.46l-24.46-.08v-9c.78-.99,2.1-2.41,4.09-3.62,2.3-1.4,4.46-1.89,5.77-2.09h4.81c1.34.26,3.46.83,5.69,2.25,1.97,1.25,3.29,2.68,4.09,3.7v8.84Zm34.53-.16l-24.46-.08v-9c.78-.99,2.1-2.41,4.09-3.62,2.3-1.4,4.46-1.89,5.77-2.09h4.81c1.34.26,3.46.83,5.69,2.25,1.97,1.25,3.29,2.68,4.09,3.7v8.84Zm33.83.3l-24.46-.08v-9c.78-.99,2.1-2.41,4.09-3.62,2.3-1.4,4.46-1.89,5.77-2.09h4.81c1.34.26,3.46.83,5.69,2.25,1.97,1.25,3.29,2.68,4.09,3.7v8.84Zm-74.97-23.47l-4.09-3.74-.24-63.54c1.76-.04,3.53-.08,5.29-.12.88-.19,2.65-.69,4.33-2.17,2.2-1.94,2.83-4.33,3.01-5.18-.08-1.31-.08-4.42,1.8-7.6,2.94-4.95,8.13-6.09,9.02-6.27,2.27-.63,6.39-2.11,10.35-5.67,4.84-4.35,6.75-9.39,7.46-11.69.28-5.43.56-10.85.84-16.28,0-.96.12-3,1.32-5.18,1.18-2.16,3.29-3.34,4.09-3.86h4.93c.75.27,3.02,1.21,4.63,3.68,1.65,2.53,1.56,5.06,1.5,5.85.24,5.43.48,10.85.72,16.28.92,2.37,3.15,7.13,8.06,11.21,4.08,3.39,8.21,4.81,10.59,5.43,1.47.44,4.61,1.6,7.34,4.58,3.55,3.88,4.09,8.32,4.21,9.77.17.85.72,3.04,2.65,4.94,1.6,1.59,3.36,2.18,4.21,2.41h5.17l-.36,63.3-3.85,4.22-92.99-.36Zm109.5,23.31l-24.46-.08v-9c.78-.99,2.1-2.41,4.09-3.62,2.3-1.4,4.46-1.89,5.77-2.09h4.81c1.34.26,3.46.83,5.69,2.25,1.97,1.25,3.29,2.68,4.09,3.7v8.84Zm43.6-62.21l-31.6.16v-19.77c.54-2.28,1.65-5.67,4.09-9.16,3.83-5.48,8.74-8.09,11.15-9.16,2.44,1.04,7.02,3.38,10.99,8.2,3.18,3.86,4.66,7.73,5.37,10.13v19.61Z"/>
  <path d="m15.85,496.32l-9.8,121.85h138.51c.8-17.56,1.6-35.12,2.4-52.68.37-1.69,2.74-11.69,11.98-16.45,3.64-1.87,7.11-2.3,9.44-2.36,2.31.11,6.25.65,10.27,3.08,8.47,5.14,10.25,14.46,10.53,16.08l1.43,52.32h65.99c.89-19.49,1.78-38.98,2.67-58.47.12-1.49,1.08-11.71,9.78-17.64,4.6-3.13,9.28-3.65,11.62-3.74,1.9.11,7.97.72,13.28,5.52,6.78,6.14,7.08,14.42,7.11,15.86l1.6,58.47h66.04c.8-17.51,1.6-35.02,2.4-52.53.37-1.69,2.74-11.69,11.98-16.45,3.64-1.87,7.11-2.3,9.44-2.36,2.31.11,6.25.65,10.27,3.08,8.47,5.14,10.25,14.46,10.53,16.08l1.43,52.17h160.7l-14.95-121.85H15.85Z"/>
  <polygon points="737.16 506.76 742.85 507.24 742.97 620.24 752.45 620.24 752.22 507.42 778.53 507.66 779.01 620.24 788.49 620.24 788.49 507.18 806.48 497.91 723.83 497.91 737.16 506.76"/>
  <polygon points="1189.3 509.91 1188.94 620.24 1198.43 620.24 1198.19 509.62 1226.29 509.91 1225.93 620.24 1235.65 620.24 1235.65 509.08 1253.31 497.44 1170.3 497.44 1189.3 509.91"/>
  <rect x="465.62" y="303.71" width="13.78" height="8.2"/>
  <rect x="431.62" y="303.67" width="13.78" height="8.2"/>
  <rect x="397.3" y="303.67" width="13.78" height="8.2"/>
  <rect x="363.55" y="303.63" width="13.78" height="8.2"/>
  <rect x="329.55" y="303.58" width="13.78" height="8.2"/>
  <rect x="295.23" y="303.58" width="13.78" height="8.2"/>
  <rect x="261.97" y="303.71" width="13.78" height="8.2"/>
  <rect x="227.97" y="303.67" width="13.78" height="8.2"/>
  <rect x="193.65" y="303.67" width="13.78" height="8.2"/>
  <rect x="159.91" y="303.63" width="13.78" height="8.2"/>
  <rect x="125.9" y="303.58" width="13.78" height="8.2"/>
  <rect x="91.58" y="303.58" width="13.78" height="8.2"/>
  <polygon points="1601.83 506.08 1607.52 506.56 1607.64 619.56 1617.12 619.56 1616.89 506.74 1643.2 506.97 1643.68 619.56 1653.16 619.56 1653.16 506.5 1671.15 497.23 1588.5 497.23 1601.83 506.08"/>
  <polygon points="2053.97 509.23 2053.61 619.56 2063.1 619.56 2062.86 508.93 2090.96 509.23 2090.6 619.56 2100.32 619.56 2100.32 508.4 2117.98 496.76 2034.97 496.76 2053.97 509.23"/>
</svg>