<?xml version="1.0" encoding="UTF-8"?><svg id="_Слой_2" xmlns="http://www.w3.org/2000/svg" viewBox="0 0 2316.63 350.54"><defs><style>.cls-1{fill:none;stroke:#000;stroke-miterlimit:10;}</style></defs><path class="cls-1" d="m17.14,86.04c86.94,5.98,201.92,22.94,330.06,68.08,97.13,34.22,177.08,75.91,239.17,114.06,43.63-.56,87.27-1.13,130.9-1.69,25.8-22.79,82.37-68.35,159.39-95.15,63.28-22.02,119.12-23.99,129.59-23.99,9.72,0,20.32.36,20.32.36,11.34.45,23.08,1.13,35.18,2.1,14.39,1.15,28.22,2.62,41.46,4.31,26.82,4.88,68.34,15.9,112.28,43.13,34.62,21.45,59.01,45.68,74.85,64.16,25.18.43,50.37.85,75.55,1.28,8.1-11.97,28.5-38.54,65.31-53.87,22.72-9.46,43.24-11.13,56.37-11.09,8.24,1.43,16.48,2.85,24.71,4.28,11.82,3.68,34.46,12.52,55.13,33.5,15.77,16.01,24.09,32.7,28.4,43.37h65.58c2-5.03,8.43-19.25,24.19-29.14,13.26-8.31,26.16-9.19,31.77-9.24,7.37,1.39,22.61,5.33,36.83,17.82,20.61,18.1,24.73,41.57,25.66,48.24,15.63,0,31.26-.01,46.89-.02"/><path class="cls-1" d="m19.75,64.9c99.19,5.03,229.64,21.57,375.92,68.2,123.47,39.36,224.32,89.35,301.09,134.45,7.2-.61,14.19-1.2,21.39-1.8,38.02-32.1,92.99-70.12,165.36-97,23.91-8.88,82.04-30.9,149.47-32.08,23.72-.41,49.94.35,78.18,3.09,19.63,1.9,38.04,4.54,55.13,7.6,27.43,4.95,69.78,16.05,115.01,43.25,40.07,24.1,67.55,51.91,84.58,72.09,13.68-16.86,40.01-44.29,81.64-61.51,17.82-7.37,34.38-11.19,48.12-13.19,9.92-.68,21.73-.73,34.93.71,10.28,1.13,19.49,2.95,27.45,4.99,14.54,4.76,37.69,14.35,60.95,33.86,22,18.45,35.13,38.25,42.42,51.33,3.65-6.85,18.22-32.23,49.19-42.95,17.01-5.89,32.08-4.97,40.63-3.74,9.34,2.56,29.15,9.32,47.41,27.27,18.02,17.72,25.18,37.15,27.98,46.63.05.16.26.16.32.01,2.5-5.93,9.69-20.5,26.06-30.07,9.64-5.64,18.82-7.41,24.59-8.02,23.71,7.12,48.49,13.94,74.32,20.32,13.76,3.4,27.31,6.54,40.63,9.45,13,2.84,24.03,4.15,31.72,5.17,21.73,3.57,44.49,6.8,68.21,9.56,22.39,2.6,110.5,11.41,142.57,11.76"/><path class="cls-1" d="m.03.5c239.49,14.58,478.54,33.59,717.15,57.03,223.98,22,447.59,47.9,670.81,77.7,102.23,14.98,213.1,36.84,330.42,68.44,55.52,14.96,108.5,31.02,158.85,47.76,27.5,9.11,57.28,17.84,89.23,25.66,23.09,5.65,45.35,10.35,66.65,14.26,22.29,4.65,44.94,7.51,69.99,11.16,24.9,3.63,180.36,14.61,213.5,14.61"/><path class="cls-1" d="m253.1,82.48l44.91-32.79,676.51,57.74,14.26,20.67c-45.87,10.51-100.63,26.93-159.92,53.23-49.48,21.94-91.47,46.05-125.94,68.67-58.18-33.2-128.43-68.07-210.3-99.09-88.43-33.5-169.9-54.72-239.52-68.44Z"/><path class="cls-1" d="m1213.69,150.02l17.94-22.16c44.38,5.56,89.95,12.01,136.63,19.49,36.83,5.9,72.8,12.18,107.88,18.77,1.68,6.34,3.37,12.67,5.05,19.01-14.71,2.36-37.23,7.77-61.6,21.39-25.27,14.12-42.06,31.2-51.8,42.77-16.51-16.8-38.32-36.16-66.06-54.65-32.6-21.73-63.42-35.62-88.04-44.61Z"/><path class="cls-1" d="m1583.5,197.79c.36-.53,10.87-13.54,10.87-13.54,19.58,3.79,39.8,8.1,60.59,13.01,22.48,5.31,44.05,10.94,64.68,16.78,1.02,4.45,2.03,8.89,3.05,13.34-8.74,2.08-23.28,6.76-37.96,18-11.27,8.63-18.57,18.03-22.99,24.77-7.29-11.5-18.12-26.1-33.68-40.63-16.23-15.15-32.22-25.2-44.55-31.72Z"/><path class="cls-1" d="m1782.03,241.63l10.87-8.55c12.29,2.97,25.28,6.54,38.85,10.87,11.61,3.7,22.55,7.6,32.79,11.58,1.13,3.56,2.26,7.13,3.39,10.69-5.01,1.08-13.88,3.68-22.81,10.51-10.48,8.02-15.51,17.63-17.64,22.46-2.85-8.21-8.12-20.33-18-32.79-9.74-12.28-20.17-20.13-27.45-24.77Z"/><rect class="cls-1" x="585.77" y="270.91" width="131.88" height="14.02"/><path class="cls-1" d="m579.24,289.21h149.47c7.93,0,14.38,6.44,14.38,14.38v46.46h-178.22v-46.46c0-7.93,6.44-14.38,14.38-14.38Z"/><rect class="cls-1" x="1288.49" y="265.99" width="78.24" height="9.59"/><path class="cls-1" d="m1290.46,278.5h76.98c7.93,0,14.38,6.44,14.38,14.38v27.22h-105.73v-27.22c0-7.93,6.44-14.38,14.38-14.38Z"/><rect class="cls-1" x="1594.58" y="281.61" width="67.23" height="7.33"/><path class="cls-1" d="m1593.51,291.17h71.67c5.29,0,9.59,4.3,9.59,9.59v22.19h-90.86v-22.19c0-5.29,4.3-9.59,9.59-9.59Z"/><rect class="cls-1" x="1779.33" y="308.67" width="48.54" height="5.29"/><path class="cls-1" d="m1777.79,315.57h53.27c3.4,0,6.16,2.76,6.16,6.16v10.14h-65.59v-10.14c0-3.4,2.76-6.16,6.16-6.16Z"/><path class="cls-1" d="m299.44,56.1l39.58,42.28c1.3,1.39,3.44,1.54,4.92.35l45.71-36.83c1.62-1.31,4.01-.98,5.22.72l45.24,63.3c1.45,2.03,4.47,2.02,5.91-.01l37.67-53.22c1.56-2.21,4.9-1.99,6.16.4l44.74,84.48c1.41,2.67,5.27,2.54,6.51-.21l32.82-72.88c1.34-2.98,5.63-2.8,6.72.28l37.95,106.88c1.16,3.27,5.8,3.2,6.87-.09,9.26-28.69,34.95-108.16,35.39-108.16s25.89,105.48,35.45,145.17c.9,3.72,6.19,3.7,7.06-.03l29.31-125.54c.84-3.6,5.9-3.78,6.99-.25l27.89,89.94c1.08,3.49,6.07,3.37,6.98-.17l22.54-88.04c.86-3.34,5.45-3.71,6.84-.55l27.53,63.03c1.27,2.91,5.41,2.9,6.66-.02l25.55-59.66c1.21-2.83,5.17-2.96,6.57-.22l19.67,38.67c1.26,2.48,4.74,2.67,6.26.35l24.52-37.35c1.34-2.04,4.28-2.2,5.83-.31l19.06,23.17c1.38,1.67,3.91,1.77,5.41.21l21.23-22.02"/><path class="cls-1" d="m1232.05,132.2l9.38,24.78c.26.69,1.18.81,1.61.22l15.62-21.45c.44-.6,1.36-.47,1.61.23l13.3,36.81c.27.76,1.32.82,1.69.1l16.46-32.44c.39-.76,1.51-.64,1.72.19l12.68,49.93c.23.9,1.49.94,1.77.05l14.11-44.04c.29-.91,1.61-.83,1.79.12l11.73,64.69c.18.99,1.58,1.02,1.81.04l13.61-58.6c.23-.99,1.65-.94,1.81.06l13.44,84.25c.17,1.05,1.68,1.03,1.82-.02l11.25-80.31c.14-1.02,1.6-1.07,1.82-.06l12.09,57.08c.21.97,1.6.97,1.8,0l11.25-53.16c.2-.97,1.58-.98,1.8-.02l8.82,37.96c.21.91,1.49.96,1.78.07l11.5-35.89c.27-.84,1.46-.86,1.75-.02l9.19,26.51c.28.79,1.38.84,1.72.06l10.08-23.32c.33-.77,1.43-.73,1.71.05l6.44,17.71c.26.7,1.2.83,1.63.21l10.93-15.82"/><path class="cls-1" d="m1594.9,187.45l2.83,12.81c.07.34.52.42.71.13l7.04-10.8c.18-.28.61-.22.7.11l6.43,22.58c.1.35.58.39.73.06l8.63-18.37c.16-.35.68-.27.74.11l4.23,28.61c.06.4.61.46.75.08l9.63-25.05c.14-.37.69-.32.75.08l6.54,41.71c.07.44.69.44.77,0l6.6-36.63c.08-.44.72-.42.77.02l6.42,55.4c.05.46.73.46.78,0l5.69-52.36c.05-.46.71-.47.78-.01l5.46,39.8c.06.44.7.45.77.01l6.65-38.18c.08-.44.7-.43.77,0l5.03,31.12c.07.42.66.45.77.03l7.05-27.88c.1-.38.63-.4.75-.03l6.16,18.49c.12.36.62.36.74,0l5.18-15.07c.12-.34.59-.36.73-.03l4.97,11.35c.13.3.55.32.71.02l5.15-9.79"/><path class="cls-1" d="m1791,236.7l3.85,10.77c.13.36.61.41.81.09l5.09-7.93c.22-.34.74-.25.83.14l3.45,14.95c.09.38.59.48.82.16l8.43-11.92c.25-.35.79-.2.83.23l1.86,24.17c.04.5.74.58.89.1l6.03-19.42c.15-.49.86-.4.89.11l2.23,40.35c.03.55.82.58.91.04l5.82-38.46c.08-.51.8-.52.9-.02l4.49,24.15c.09.48.76.5.89.04l5.62-20.47c.13-.46.79-.44.89.03l2.77,13.95c.09.44.7.5.87.08l4.92-12.26c.17-.42.78-.36.87.08l1.93,9.37c.09.42.66.5.85.12l4.28-8.35"/></svg>