<?xml version="1.0" encoding="UTF-8"?><svg id="_Слой_2" xmlns="http://www.w3.org/2000/svg" xmlns:xlink="http://www.w3.org/1999/xlink" viewBox="0 0 2950.62 146.48"><defs><style>.cls-1{stroke:url(#_Безымянный_градиент_4);}.cls-1,.cls-2,.cls-3,.cls-4,.cls-5,.cls-6,.cls-7{fill:none;stroke-miterlimit:10;}.cls-2,.cls-3,.cls-4{stroke:#000;}.cls-3{opacity:.4;}.cls-3,.cls-4{isolation:isolate;}.cls-4{opacity:.3;}.cls-5{stroke:url(#_Безымянный_градиент_3);}.cls-6{stroke:url(#_Безымянный_градиент);}.cls-7{stroke:url(#_Безымянный_градиент_2);}</style><linearGradient id="_Безымянный_градиент" x1="0" y1="61.54" x2="2950.62" y2="61.54" gradientTransform="translate(0 108.5) scale(1 -1)" gradientUnits="userSpaceOnUse"><stop offset=".46" stop-color="#000"/><stop offset="1" stop-color="#000" stop-opacity=".1"/></linearGradient><linearGradient id="_Безымянный_градиент_2" x1="42.64" y1="22.78" x2="2893.54" y2="22.78" gradientTransform="translate(0 108.5) scale(1 -1)" gradientUnits="userSpaceOnUse"><stop offset=".46" stop-color="#000"/><stop offset="1" stop-color="#000" stop-opacity=".1"/></linearGradient><linearGradient id="_Безымянный_градиент_3" x1="2009.6" y1="34.87" x2="2280.82" y2="34.87" gradientTransform="translate(0 108.5) scale(1 -1)" gradientUnits="userSpaceOnUse"><stop offset=".79" stop-color="#000" stop-opacity=".6"/><stop offset="1" stop-color="#000" stop-opacity=".4"/></linearGradient><linearGradient id="_Безымянный_градиент_4" x1="2022.76" y1="39.51" x2="2265.98" y2="39.51" gradientTransform="translate(0 108.5) scale(1 -1)" gradientUnits="userSpaceOnUse"><stop offset=".79" stop-color="#000" stop-opacity=".6"/><stop offset="1" stop-color="#000" stop-opacity=".4"/></linearGradient></defs><path class="cls-6" d="m2950.61,93.43c-113.17-1.78-185.7-6.42-356-18.15-83.27-5.74-165.04-11.61-245.17-18.58-53.01-4.35-137.16-11.01-240.64-18.13-303.57-20.88-525.38-28.61-593.22-30.82-95.35-3.1-237.16-6.72-411.95-7.25-48.08.03-120,.2-207.41.91-45.54.37-132.74,1.18-278.63,3.63C253.14,11.15,122.13,17.39,78.48,19.56L.03,24.63"/><path class="cls-7" d="m42.69,43c15.57-1.73,77.93,2.9,110.49,5.28,38.12,3.24,85.7,9.18,136.52,21.56,41.72,10.17,78.49,22.68,109.87,35.33-.62,3.19-.48,2.5-1.1,5.68h-8.84v19.26l-8.38.23.23,14.93,61.86.23-.45-15.38-11.1.23-.23-18.81-11.1-.68-.23-5.44c30.92-15.2,67.74-30.79,110.12-44.19,48.15-15.22,92.26-24.06,129.84-29.23,25.81-2.62,53.12-4.6,81.8-5.66,40.94-1.52,79.36-.97,114.88.91,34.5,2.3,76.68,7.99,123.49,20.85,40.13,11.02,74.44,24.77,102.42,38.07,2.19.15,4.38.3,6.57.45l-.23,4.99h-11.1l-.23,38.29-12.01.23v14.05l78.17.45v-13.14h-13.37l-.68-38.75-11.56-.23v-6.57h10.2c20.96-11.31,46.41-23.13,76.14-33.31,34.66-11.87,66.29-18.47,92.68-22.21,25.41-2.07,52.91-3.29,82.25-3.17,24.15.1,47.01,1.1,68.43,2.72,32.7,1.61,76.65,7.41,125.53,24.93,31,11.11,56.95,24.41,77.72,36.93h4.31v4.53h-8.16l-.23,35.35-14.28.23v12.29l83.16.23.23-12.74-13.82-.23-.45-34.22h-11.56l-.23-5.66h9.29c17.04-11.11,41.84-24.72,73.87-34.44,33.44-10.15,62.79-12.44,83.61-12.46,28.17,1.13,56.35,2.27,84.52,3.4,26.43,1.26,66.72,6.65,110.58,27.19,24.79,11.61,44.5,19.14,59.37,31.16,1.51.08,3.02.15,4.53.23v5.44h-9.52l-.23,21.64-14.96.23v11.75l83.61.23-.23-11.97h-14.73l-.23-21.64h-9.29v-4.99l4.53-.23c14.28-8.95,34.2-13.48,59.37-21.42,24.76-7.81,46.78-10.64,63.45-11.56,25.4,1.46,50.81,2.92,76.21,4.38l-.03,3.06c-.02,2.6,1.19,5,3.11,6.75.16.14.31.3.47.46,1.44,1.55,1.81,3.26,1.93,3.93l-.26,51.71c8.11.05,16.21.1,24.32.15.06-16.37.13-35.27.19-51.64.27-.93.89-2.58,2.38-4.08.87-.88,1.82-1.48,2.73-1.9,2.45-1.12,4.11-3.52,4.17-6.22,0-.31.02-.62.04-.95l104.55,7.55,4.97,11.26-.08,45.9,29.16.08-.3-45.52,3.85-9.97,92.9,5.97,3.78,9.44.08,41.25,26.28.08-.08-41.63,4.08-8.23,82.18,3.63,4.31,6.72v38.31l26.13.08-.15-38.38,5.14-6.04,61.3,1.2s21.7.73,52.37,1.39"/><path class="cls-2" d="m167.11,43.1l17.45-17.45,454.77-9.97,16.54,12.69c-37.04,3.41-81.62,10.44-130.82,24.55-43.97,12.61-81.65,28.02-112.54,42.9-32.8-12.13-70.82-23.97-113.6-33.54-48.68-10.89-93.21-16.51-131.8-19.18h0Z"/><path class="cls-2" d="m900.37,24.07l12.01-13.6,389.51,2.04,13.37,12.24c-30.56,1.62-68.29,6.18-110.35,17.22-39.22,10.29-72.29,23.62-98.57,36.25-24.57-11.07-53.2-22.12-85.65-31.5-44.97-13-85.93-19.52-120.32-22.66h0Z"/><path class="cls-2" d="m1516.32,30.41l14.8-13.29,307.87,10.88,11.78,12.99c-23.14-.65-55.46.93-92.45,10.88-33.14,8.91-59.46,21.69-78.25,32.63-18.05-10.37-39.84-21.14-65.26-30.51-37.33-13.76-71.29-20.37-98.49-23.57h0Z"/><path class="cls-5" d="m2010.68,51.94l13.14-12.01,245.4,18.58,10.42,11.56c-19.44-1.06-48.3-.32-81.42,9.29-26.54,7.7-47.36,18.65-62.01,27.87-12.44-9.5-27.94-19.75-46.6-29.08-29.97-14.98-57.72-22.37-78.93-26.21h0Z"/><path class="cls-3" d="m2376.63,121.2h-11.18v-30.36l3.52-3.5c1.16-1.15,3.04-1.15,4.19.01l3.46,3.49v30.36h.01Z"/><path class="cls-4" d="m2521.87,124.15h-11.18v-25.1l3.52-2.89c1.16-.95,3.04-.95,4.19.01l3.46,2.88v25.1h.01Z"/><path class="cls-2" d="m185.77,29.51l12.98,11.7c1.36,1.22,3.4,1.28,4.83.15l14.29-11.4c1.33-1.06,3.22-1.09,4.58-.06l24.32,18.43c1.39,1.05,3.32,1,4.65-.11l21.5-18.01c1.53-1.28,3.79-1.13,5.14.33l24.13,26.17c1.54,1.67,4.2,1.59,5.63-.17l20.22-24.76c1.63-2,4.74-1.78,6.08.42l20.89,34.41c1.49,2.45,5.06,2.38,6.45-.12l19.08-34.27c1.51-2.71,5.48-2.5,6.69.35l20.78,48.74c1.34,3.14,5.84,2.98,6.96-.24l17.25-49.88c1.05-3.04,5.19-3.42,6.77-.62l18.55,32.74c1.47,2.59,5.24,2.5,6.58-.16l17.37-34.4c1.22-2.42,4.53-2.77,6.23-.67l17.45,21.56c1.51,1.86,4.35,1.84,5.83-.04l19.11-24.29c1.25-1.59,3.53-1.89,5.15-.69l19.82,14.64c1.41,1.04,3.36.96,4.68-.2l19.89-17.45c1.13-.99,2.74-1.21,4.1-.55l22.52,10.97c1.1.54,2.4.5,3.46-.1l25.71-14.45"/><path class="cls-2" d="m915.1,14.25l6.16,6.94c1.27,1.43,3.33,1.82,5.03.95l14.69-7.51c1.37-.7,3.01-.59,4.27.28l20.72,14.23c1.39.96,3.22.98,4.64.06l18.17-11.76c1.75-1.13,4.07-.8,5.44.78l17.12,19.82c1.77,2.04,4.98,1.9,6.56-.29l12.37-17.16c1.83-2.55,5.71-2.24,7.13.56l12.42,24.64c1.4,2.78,5.25,3.11,7.1.6l17.73-24.01c1.89-2.56,5.85-2.15,7.17.75l17.44,38.24c1.61,3.53,6.74,3.15,7.82-.57l10.17-35.22c1.02-3.53,5.77-4.12,7.63-.95l14.87,25.45c1.65,2.82,5.76,2.75,7.3-.14l14.78-27.71c1.52-2.86,5.58-2.97,7.26-.21l10.28,16.89c1.56,2.56,5.22,2.7,6.97.26l14.14-19.71c1.5-2.1,4.53-2.34,6.35-.52l12.28,12.28c1.51,1.51,3.92,1.64,5.59.29l16.08-13.02c1.45-1.17,3.5-1.25,5.03-.18l10.21,7.15c1.4.98,3.25,1.01,4.68.08l11.97-7.8c1.31-.85,2.98-.9,4.34-.13l8.94,5.06c1.48.84,3.32.7,4.65-.36l10.03-7.92"/><path class="cls-2" d="m1531.2,20.22l6.76,7.94c1.6,1.88,4.47,1.97,6.19.2l3.95-4.08c1.82-1.88,4.9-1.64,6.41.49l4.79,6.74c1.41,1.98,4.2,2.35,6.07.8l9.23-7.63c1.93-1.59,4.81-1.15,6.17.95l7.31,11.26c1.46,2.25,4.64,2.56,6.51.63l10.93-11.29c1.93-1.99,5.23-1.59,6.62.81l12.63,21.8c1.54,2.66,5.33,2.8,7.07.26l12.66-18.52c1.76-2.57,5.61-2.39,7.11.34l21.1,38.3c1.54,2.79,5.5,2.91,7.2.22l23.47-37.14c1.72-2.72,5.74-2.56,7.24.29l9.46,18.01c1.38,2.63,4.98,3.02,6.89.76l16.02-18.93c1.69-1.99,4.77-1.97,6.42.05l7.98,9.72c1.5,1.82,4.2,2.05,5.98.5l12.81-11.15c1.55-1.35,3.84-1.37,5.42-.06l9.8,8.13c1.5,1.25,3.67,1.29,5.22.1l10.99-8.44c1.56-1.2,3.75-1.15,5.25.13l6.3,5.35c1.3,1.1,3.14,1.31,4.65.52l13.36-7"/><path class="cls-1" d="m2023.14,42.8l7,8.49c1.28,1.56,3.49,1.97,5.26,1l10.03-5.57c1.85-1.03,4.18-.51,5.42,1.2l8.38,11.58c1.51,2.09,4.54,2.33,6.36.49l7.87-7.95c2-2.02,5.4-1.5,6.69,1.04l8.28,16.21c1.39,2.72,5.14,3.08,7.02.67l11.17-14.31c1.91-2.44,5.71-2.04,7.06.75l17.51,36.24c1.49,3.08,5.84,3.17,7.45.15l16.8-31.5c1.53-2.88,5.62-2.97,7.29-.17l8.88,14.96c1.52,2.56,5.16,2.76,6.95.37l11-14.73c1.72-2.31,5.21-2.22,6.82.17l4.39,6.53c1.58,2.35,4.99,2.48,6.75.26l5.98-7.54c1.64-2.06,4.75-2.12,6.46-.11l4.64,5.45c1.4,1.65,3.83,1.95,5.6.7l8.88-6.29c1.49-1.06,3.49-1.02,4.95.08l6.26,4.76c1.24.94,2.91,1.12,4.32.45l11.15-5.26"/></svg>