<?xml version="1.0" encoding="UTF-8"?>
<svg id="_Слой_2" data-name="Слой 2" xmlns="http://www.w3.org/2000/svg" xmlns:xlink="http://www.w3.org/1999/xlink" viewBox="0 0 752.11 627.25">
  <defs>
    <style>
      .cls-1 {
        fill: #fff;
      }

      .cls-2 {
        fill: #fed0bd;
      }

      .cls-3 {
        fill: url(#_Безымянный_градиент_1963);
        stroke: #656565;
        stroke-miterlimit: 10;
        stroke-width: 6px;
      }

      .cls-4 {
        fill: url(#_Безымянный_градиент_1827);
      }
    </style>
    <linearGradient id="_Безымянный_градиент_1963" data-name="Безымянный градиент 1963" x1="20.19" y1="260.62" x2="576.11" y2="260.62" gradientUnits="userSpaceOnUse">
      <stop offset="0" stop-color="#88d3c9"/>
      <stop offset="1" stop-color="#abf6dd"/>
    </linearGradient>
    <linearGradient id="_Безымянный_градиент_1827" data-name="Безымянный градиент 1827" x1="254.98" y1="110.32" x2="696.83" y2="552.17" gradientUnits="userSpaceOnUse">
      <stop offset="0" stop-color="#2f819c"/>
      <stop offset="1" stop-color="#68c9f1"/>
    </linearGradient>
  </defs>
  <path class="cls-2" d="m458.44,470.21h-181.32c-2.74,0-5.41.82-7.68,2.35l-107.09,72.25c-21.87,14.76-51.34-.98-51.25-27.36l.12-33.45c.03-7.61-6.13-13.79-13.74-13.79h0c-53.83,0-97.47-43.64-97.47-97.47v-240.02C0,78.89,43.64,35.25,97.47,35.25h360.97c53.83,0,97.47,43.64,97.47,97.47v240.02c0,53.83-43.64,97.47-97.47,97.47Z"/>
  <path class="cls-3" d="m478.63,437.96h-181.32c-2.74,0-5.41.82-7.68,2.35l-107.09,72.25c-21.87,14.76-51.34-.98-51.25-27.36l.12-33.45c.03-7.61-6.13-13.79-13.74-13.79h0c-53.83,0-97.47-43.64-97.47-97.47V100.47C20.19,46.64,63.83,3,117.67,3h360.97c53.83,0,97.47,43.64,97.47,97.47v240.02c0,53.83-43.64,97.47-97.47,97.47Z"/>
  <path class="cls-4" d="m293.67,546.97h181.32c2.74,0,5.41.82,7.68,2.35l107.09,72.25c21.87,14.76,51.34-.98,51.25-27.36l-.12-33.45c-.03-7.61,6.13-13.79,13.74-13.79h0c53.83,0,97.47-43.64,97.47-97.47v-240.02c0-53.83-43.64-97.47-97.47-97.47h-360.97c-53.83,0-97.47,43.64-97.47,97.47v240.02c0,53.83,43.64,97.47,97.47,97.47Z"/>
  <rect class="cls-1" x="286.67" y="234.16" width="376.04" height="25.75" rx="12.88" ry="12.88"/>
  <rect class="cls-1" x="287.5" y="318.21" width="376.04" height="25.75" rx="12.88" ry="12.88"/>
  <rect class="cls-1" x="287.92" y="402.23" width="376.04" height="25.75" rx="12.88" ry="12.88"/>
</svg>