<?xml version="1.0" encoding="UTF-8"?>
<svg id="_Слой_2" data-name="Слой 2" xmlns="http://www.w3.org/2000/svg" width="614.89" height="625.51" xmlns:xlink="http://www.w3.org/1999/xlink" viewBox="0 0 614.89 625.51">
  <defs>
    <style>
      .cls-1 {
        fill: #fff;
      }

      .cls-2 {
        fill: url(#_Безымянный_градиент_235);
      }

      .cls-2, .cls-3, .cls-4 {
        stroke: #656565;
        stroke-miterlimit: 10;
        stroke-width: 6px;
      }

      .cls-5 {
        fill: #fed0bd;
      }

      .cls-3 {
        fill: url(#_Безымянный_градиент_239);
      }

      .cls-4 {
        fill: url(#_Безымянный_градиент_216);
      }

      .cls-6 {
        fill: url(#_Безымянный_градиент_216-2);
      }
    </style>
    <linearGradient id="_Безымянный_градиент_216" data-name="Безымянный градиент 216" x1="16.18" y1="494.89" x2="62.25" y2="494.89" gradientUnits="userSpaceOnUse">
      <stop offset="0" stop-color="#b645e4"/>
      <stop offset="1" stop-color="#ac9ac9"/>
    </linearGradient>
    <linearGradient id="_Безымянный_градиент_239" data-name="Безымянный градиент 239" x1="157.75" y1="611.06" x2="489.85" y2="278.96" gradientUnits="userSpaceOnUse">
      <stop offset=".14" stop-color="#f3f0ee"/>
      <stop offset=".75" stop-color="#fff"/>
    </linearGradient>
    <linearGradient id="_Безымянный_градиент_235" data-name="Безымянный градиент 235" x1="160.57" y1="715.19" x2="487.78" y2="387.98" gradientUnits="userSpaceOnUse">
      <stop offset=".31" stop-color="#fff"/>
      <stop offset="1" stop-color="#f3f0ee"/>
    </linearGradient>
    <linearGradient id="_Безымянный_градиент_216-2" data-name="Безымянный градиент 216" x1="69.28" y1="14.7" x2="526.09" y2="471.5" xlink:href="#_Безымянный_градиент_216"/>
  </defs>
  <rect class="cls-5" x=".34" y="463.9" width="46.06" height="117.03"/>
  <path class="cls-5" d="m42.31,79.14c.01-3.01.38-21.45,15.62-35.45,14.99-13.77,33-12.83,36.05-12.62,138.39-.2,276.78-.4,415.18-.6,4.02-.03,20.16.3,34.25,12.62,15.91,13.91,17.24,32.63,17.42,36.05,13.02,111.56,26.04,225.64,39.05,337.19l-551.57,1.45c-4.74.31-17.5,1.78-29.44,11.42-14.61,11.79-17.89,27.66-18.63,31.84C14.27,336.27,28.29,203.91,42.31,79.14Z"/>
  <path class="cls-5" d="m.01,468.31c-.05-4.37-.45-23.21,13.52-38.65,12.2-13.5,23.22-15.96,29.67-16.77,2.78-.35,5.59-.51,8.39-.52,181.23-.59,363.23-.64,544.45-1.24v114.16l-540.85.58c-7.32,0-14.57-1.63-21.12-4.91-7.1-3.55-15.6-9.11-21.85-17.32C.94,488.82.06,473.42.01,468.31Z"/>
  <path class="cls-5" d="m.31,567.95c-.05-4.37-.45-23.21,13.52-38.65,12.27-13.57,23.34-15.98,29.78-16.79,2.76-.34,5.54-.49,8.32-.5,174.58-.57,349.89-.64,524.52-1.17,10.98-.03,19.89,8.85,19.89,19.83v74.45c0,10.95-8.87,19.82-19.81,19.84l-521.04.56c-7.32,0-14.57-1.63-21.12-4.91-7.1-3.55-15.6-9.11-21.85-17.32-11.29-14.81-12.16-30.22-12.21-35.33Z"/>
  <rect class="cls-4" x="16.18" y="441.01" width="46.06" height="107.75"/>
  <path class="cls-3" d="m15.86,445.42c-.05-4.37-.45-23.21,13.52-38.65,12.27-13.57,23.34-15.98,29.78-16.79,2.76-.34,5.54-.49,8.32-.5,173.97-.56,348.66-.64,522.67-1.17,12-.04,21.73,9.68,21.73,21.67v70.77c0,11.96-9.69,21.66-21.65,21.68l-519.2.55c-7.32,0-14.57-1.63-21.12-4.91-7.1-3.55-15.6-9.11-21.85-17.32-11.29-14.81-12.16-30.22-12.21-35.33Z"/>
  <path class="cls-2" d="m16.16,551.98c-.05-3.82-.45-20.27,13.5-33.76,12.26-11.85,23.32-13.96,29.75-14.66,2.76-.3,5.53-.43,8.31-.44,175.12-.5,350.97-.56,526.13-1.03,9.73-.03,17.64,6.86,17.64,15.36v68.94c0,8.48-7.86,15.35-17.57,15.36l-522.65.49c-7.32,0-14.55-1.43-21.09-4.29-7.09-3.1-15.58-7.96-21.82-15.12-11.27-12.94-12.14-26.39-12.2-30.85Z"/>
  <path class="cls-6" d="m54.54,50.66c.01-3.14.38-22.32,15.7-36.9C85.3-.57,103.4.41,106.47.63,245.55.42,384.64.21,523.73,0c4.04-.03,20.26.31,34.42,13.13,15.99,14.48,17.33,33.97,17.51,37.53,11.94,105.96,23.88,214.11,35.82,320.46,1.83,16.28-10.43,30.57-26.26,30.61l-524.64,1.43c-4.76.32-17.59,1.85-29.59,11.88-14.68,12.27-17.98,28.79-18.72,33.15C26.36,318.32,40.45,180.54,54.54,50.66Z"/>
  <rect class="cls-1" x="159.18" y="106.55" width="316.94" height="21.71" rx="10.85" ry="10.85"/>
</svg>