<?xml version="1.0" encoding="UTF-8"?>
<svg id="_Слой_2" data-name="Слой 2" xmlns="http://www.w3.org/2000/svg" width="641.52" height="708.67" xmlns:xlink="http://www.w3.org/1999/xlink" viewBox="0 0 641.52 708.67">
  <defs>
    <style>
      .cls-1 {
        fill: #fff;
      }

      .cls-2 {
        fill: #fed0bd;
      }

      .cls-3 {
        fill: url(#_Безымянный_градиент_9-2);
      }

      .cls-3, .cls-4 {
        stroke: #656565;
        stroke-miterlimit: 10;
        stroke-width: 6px;
      }

      .cls-4 {
        fill: url(#_Безымянный_градиент_9);
      }

      .cls-5 {
        fill: url(#_Безымянный_градиент_357);
      }
    </style>
    <linearGradient id="_Безымянный_градиент_9" data-name="Безымянный градиент 9" x1="339.5" y1="194.91" x2="427.89" y2="106.52" gradientUnits="userSpaceOnUse">
      <stop offset="0" stop-color="#2f819c"/>
      <stop offset="1" stop-color="#68c9f1"/>
    </linearGradient>
    <linearGradient id="_Безымянный_градиент_9-2" data-name="Безымянный градиент 9" x1="-8.14" y1="628.05" x2="471.27" y2="148.64" xlink:href="#_Безымянный_градиент_9"/>
    <linearGradient id="_Безымянный_градиент_357" data-name="Безымянный градиент 357" x1="350.16" y1="598.4" x2="626.25" y2="322.31" gradientUnits="userSpaceOnUse">
      <stop offset="0" stop-color="#c3343b"/>
      <stop offset="1" stop-color="#ea6066"/>
    </linearGradient>
  </defs>
  <path class="cls-2" d="m341.38,179.06l-29.05-144.69-272.59.37c-21.95.03-39.74,17.84-39.74,39.79v594.34c0,21.98,17.81,39.79,39.79,39.79h444.11c21.98,0,39.79-17.81,39.79-39.79V241.46l-151.35-31.26c-15.63-3.23-27.82-15.49-30.96-31.14Z"/>
  <path class="cls-2" d="m399.82,632.66l224.29-220.6c1.3-1.27,2.05-2.99,2.12-4.81l1.12-29.93c.04-.97-.13-1.93-.47-2.84l-.82-2.12c-4.37-11.29-14.85-19.06-26.93-19.95l-.83-.06c-.27-.02-.55-.03-.82-.02l-50.98,1.2c-1.89.04-3.68.84-4.98,2.2l-76.54,80.21c-1.2,1.25-1.89,2.9-1.96,4.63l-1.06,26.6c-.07,1.8-.83,3.51-2.11,4.78l-110.61,109.43c-1.94,1.92-3.17,4.45-3.49,7.17l-4.97,42.8c-.56,4.82,3.44,8.94,8.28,8.52l43.39-3.8c2.78-.24,5.4-1.45,7.39-3.41Z"/>
  <path class="cls-4" d="m322.63,5.49l208.39,204.18c.5.49.13,1.33-.57,1.29l-184.14-9.49c-.36-.02-.66-.3-.71-.66L321.36,6.12c-.09-.71.77-1.13,1.27-.63Z"/>
  <path class="cls-3" d="m359.14,147.66l-25.51-127.09c-2.05-10.23-11.05-17.59-21.48-17.57l-254.65.35c-21.95.03-39.74,17.84-39.74,39.79v594.34c0,21.98,17.81,39.79,39.79,39.79h444.11c21.98,0,39.79-17.81,39.79-39.79V227.88c0-10.38-7.29-19.33-17.45-21.43l-133.89-27.65c-15.63-3.23-27.82-15.49-30.96-31.14Z"/>
  <path class="cls-5" d="m413.98,600.36l224.29-220.6c1.3-1.27,2.05-2.99,2.12-4.81l1.12-29.93c.04-.97-.13-1.93-.47-2.84l-.82-2.12c-4.37-11.29-14.85-19.06-26.93-19.95l-.83-.06c-.27-.02-.55-.03-.82-.02l-50.98,1.2c-1.89.04-3.68.84-4.98,2.2l-76.54,80.21c-1.2,1.25-1.89,2.9-1.96,4.63l-1.06,26.6c-.07,1.8-.83,3.51-2.11,4.78l-110.61,109.43c-1.94,1.92-3.17,4.45-3.49,7.17l-4.97,42.8c-.56,4.82,3.44,8.94,8.28,8.52l43.39-3.8c2.78-.24,5.4-1.45,7.39-3.41Z"/>
  <rect class="cls-1" x="103.36" y="227.36" width="338.54" height="23.19" rx="11.59" ry="11.59"/>
  <rect class="cls-1" x="104.1" y="303.03" width="326" height="23.19" rx="11.59" ry="11.59"/>
  <rect class="cls-1" x="104.48" y="378.67" width="291.93" height="23.19" rx="11.59" ry="11.59"/>
  <rect class="cls-1" x="105.38" y="453.84" width="315.09" height="23.19" rx="11.59" ry="11.59"/>
  <rect class="cls-1" x="105.77" y="529.49" width="227.11" height="23.19" rx="11.59" ry="11.59"/>
</svg>