<?xml version="1.0" encoding="UTF-8"?>
<svg id="_Слой_2" data-name="Слой 2" xmlns="http://www.w3.org/2000/svg" width="782.17" height="799.53" xmlns:xlink="http://www.w3.org/1999/xlink" viewBox="0 0 782.17 799.53">
  <defs>
    <style>
      .cls-1 {
        fill: url(#_Безымянный_градиент_4);
      }

      .cls-1, .cls-2 {
        stroke: #656565;
        stroke-miterlimit: 10;
        stroke-width: 6px;
      }

      .cls-3 {
        fill: url(#_Безымянный_градиент_8);
      }

      .cls-4 {
        fill: #fed0bd;
      }

      .cls-2 {
        fill: #da640b;
      }
    </style>
    <linearGradient id="_Безымянный_градиент_4" data-name="Безымянный градиент 4" x1="44.69" y1="460.49" x2="608.36" y2="460.49" gradientUnits="userSpaceOnUse">
      <stop offset="0" stop-color="#f6db71"/>
      <stop offset="1" stop-color="#e37208"/>
    </linearGradient>
    <linearGradient id="_Безымянный_градиент_8" data-name="Безымянный градиент 8" x1="440.35" y1="169.96" x2="782.17" y2="169.96" gradientUnits="userSpaceOnUse">
      <stop offset="0" stop-color="#f16964"/>
      <stop offset="1" stop-color="#b40907"/>
    </linearGradient>
  </defs>
  <path class="cls-4" d="m1.35,757.01l127.8-441.28c3.85-13.28,15.52-22.8,29.31-23.88l132.75-10.48c4.54-.36,8.95-1.64,12.97-3.78l87.89-46.66c12.8-6.79,28.53-4.51,38.87,5.64l122.79,120.58c10.69,10.5,13.03,26.85,5.73,39.92l-38.1,68.18c-2.44,4.36-3.86,9.21-4.16,14.2l-9.54,157.42c-.84,13.93-10.31,25.86-23.69,29.84L42.76,798.11c-25.2,7.5-48.72-15.84-41.41-41.09Z"/>
  <path class="cls-4" d="m578.27,382.98l-169.44-167.43c-9.08-8.98-10.42-23.17-3.17-33.68l82.66-119.83c9.33-13.52,28.62-15.3,40.26-3.7l206.49,205.71c11.71,11.67,9.9,31.11-3.76,40.42l-119.72,81.55c-10.41,7.09-24.38,5.82-33.33-3.03Z"/>
  <path class="cls-1" d="m46.04,704.21l127.8-441.28c3.85-13.28,15.52-22.8,29.31-23.88l132.75-10.48c4.54-.36,8.95-1.64,12.97-3.78l87.89-46.66c12.8-6.79,28.53-4.51,38.87,5.64l122.79,120.58c10.69,10.5,13.03,26.85,5.73,39.92l-38.1,68.18c-2.44,4.36-3.86,9.21-4.16,14.2l-9.54,157.42c-.84,13.93-10.31,25.86-23.69,29.84l-441.2,131.4c-25.2,7.5-48.72-15.84-41.41-41.09Z"/>
  <path class="cls-3" d="m617.61,332.32l-169.44-167.43c-9.08-8.98-10.42-23.17-3.17-33.68l82.66-119.83c9.33-13.52,28.62-15.3,40.26-3.7l206.49,205.71c11.71,11.67,9.9,31.11-3.76,40.42l-119.72,81.55c-10.41,7.09-24.38,5.82-33.33-3.03Z"/>
  <path class="cls-2" d="m353.13,387.57c-26.64,0-48.24,21.6-48.24,48.24,0,6.94,1.48,13.53,4.12,19.5-87.87,86.81-175.73,173.62-263.6,260.42.07,2.42.63,12.35,8.55,20.67,6.89,7.23,15.16,8.86,17.82,9.27,87.53-88.47,175.05-176.94,262.58-265.41,5.77,2.44,12.11,3.79,18.77,3.79,26.64,0,48.24-21.6,48.24-48.24s-21.6-48.24-48.24-48.24Z"/>
</svg>