<?xml version="1.0" encoding="UTF-8"?>
<svg id="_Слой_2" data-name="Слой 2" xmlns="http://www.w3.org/2000/svg" width="968.79" height="823.37" xmlns:xlink="http://www.w3.org/1999/xlink" viewBox="0 0 968.79 823.37">
  <defs>
    <style>
      .cls-1 {
        fill: url(#_Безымянный_градиент_7);
      }

      .cls-2 {
        fill: #ff9868;
      }

      .cls-3 {
        fill: url(#_Безымянный_градиент_15);
      }

      .cls-4 {
        fill: url(#_Безымянный_градиент_4);
      }

      .cls-5 {
        fill: #e0faff;
      }

      .cls-6 {
        fill: url(#_Безымянный_градиент_11);
      }
    </style>
    <linearGradient id="_Безымянный_градиент_11" data-name="Безымянный градиент 11" x1="193.9" y1="755.64" x2="804.12" y2="755.64" gradientUnits="userSpaceOnUse">
      <stop offset="0" stop-color="#ffce78"/>
      <stop offset="1" stop-color="#ffcc9e"/>
    </linearGradient>
    <linearGradient id="_Безымянный_градиент_4" data-name="Безымянный градиент 4" x1="193.75" y1="399.84" x2="804.25" y2="399.84" gradientUnits="userSpaceOnUse">
      <stop offset="0" stop-color="#ffa56a"/>
      <stop offset="1" stop-color="#ff9c69"/>
    </linearGradient>
    <linearGradient id="_Безымянный_градиент_15" data-name="Безымянный градиент 15" x1="241.31" y1="33.5" x2="241.31" y2="766.16" gradientUnits="userSpaceOnUse">
      <stop offset="0" stop-color="#ffa36a"/>
      <stop offset=".99" stop-color="#ff8d67"/>
    </linearGradient>
    <linearGradient id="_Безымянный_градиент_7" data-name="Безымянный градиент 7" x1="435.74" y1="440.55" x2="435.74" y2="0" gradientUnits="userSpaceOnUse">
      <stop offset="0" stop-color="#fa6699"/>
      <stop offset="1" stop-color="#ff6352"/>
    </linearGradient>
  </defs>
  <g>
    <path class="cls-5" d="m272.32,394.22c0-16.54-13.4-29.94-29.94-29.94h-108.36c-16.54,0-29.94,13.4-29.94,29.94v23.52c0,16.54,13.4,29.94,29.94,29.94h0c16.54,0,29.94,13.4,29.94,29.94v7.13c0,16.54-13.4,29.94-29.94,29.94H29.94c-16.54,0-29.94,13.4-29.94,29.94v30.65c0,16.54,13.4,29.94,29.94,29.94h74.14c16.54,0,29.94,13.4,29.94,29.94v5.35c0,16.54-13.4,29.94-29.94,29.94h-16.4c-16.54,0-29.94,13.4-29.94,29.94v27.8c0,16.54,13.4,29.94,29.94,29.94h155.05c16.54,0,29.94-13.4,29.94-29.94v-57.74h-.36v-153.62h.71v-69.86h-.71v-52.75Z"/>
    <rect class="cls-5" x="104.08" y="155.41" width="181.07" height="109.07" rx="54.53" ry="54.53"/>
    <circle class="cls-5" cx="38.5" cy="404.2" r="38.5"/>
    <path class="cls-5" d="m940.75,455.76h-75.56c-15.49,0-28.04-12.55-28.04-28.04v-1.8c0-15.49,12.55-28.04,28.04-28.04h0c15.49,0,28.04-12.55,28.04-28.04v-37.54c0-15.49-12.55-28.04-28.04-28.04h-115.01c-15.49,0-28.04,12.55-28.04,28.04v385.8c0,15.49,12.55,28.04,28.04,28.04h146.38c15.49,0,28.04-12.55,28.04-28.04v-41.82c0-15.49-12.55-28.04-28.04-28.04h-6.65c-15.49,0-28.04-12.55-28.04-28.04v-27.56c0-15.49,12.55-28.04,28.04-28.04h50.85c15.49,0,28.04-12.55,28.04-28.04v-52.75c0-15.49-12.55-28.04-28.04-28.04Z"/>
    <rect class="cls-5" x="723.56" y="93.62" width="184.4" height="107.41" rx="51.8" ry="51.8"/>
  </g>
  <path class="cls-6" d="m193.9,687.92h610.22v93.92c0,22.92-18.61,41.52-41.52,41.52H235.43c-22.92,0-41.52-18.61-41.52-41.52v-93.92h0Z"/>
  <path class="cls-4" d="m193.9,765.98c.86-3.72,3.71-18.75,14.79-27.53,12.03-9.53,18.96-10.43,22.99-10.96h524.67c3.53.28,20.67,1.25,34.69-11.17,8.05-7.13,11.47-15.48,12.89-19.84.06-206.34.12-412.67.18-619.01.21-2.3,1.43-18.4-10.93-31.01-11.28-11.5-25.59-11.66-28.16-11.64-177.15-.36-354.3-.71-531.45-1.07-2.44-.13-17.06-.67-28.63,10.63-9.54,9.32-10.9,20.72-11.17,23.82.46,230.87-.34,466.91.12,697.78Z"/>
  <path class="cls-3" d="m288.64,727.49h-56.96c-4.44.42-12.72,3.39-20.69,9.2-14.21,10.35-16.51,25.74-17.09,29.48V71.38c0-20.92,16.96-37.87,37.87-37.87h56.94l-.07,693.98Z"/>
  <path class="cls-1" d="m486.36,440.55h-11.87c-3.53,0-6.87-1.62-9.06-4.39l-25.22-31.98c-2.03-2.57-5.91-2.64-8.03-.15l-27.61,32.46c-2.19,2.58-5.41,4.06-8.79,4.06h-10.64c-13.09,0-23.7-10.61-23.7-23.7V23.7c0-13.09,10.61-23.7,23.7-23.7h101.23c13.09,0,23.7,10.61,23.7,23.7v393.15c0,13.09-10.61,23.7-23.7,23.7Z"/>
  <g>
    <path class="cls-2" d="m656.32,503.76c-19.03,0-34.46,15.43-34.46,34.46v9.51c0,19.03,15.43,34.46,34.46,34.46h34.22c19.03,0,34.46,15.43,34.46,34.46h0c0,19.03-15.43,34.46-34.46,34.46h-172.04c-19.03,0-34.46,15.43-34.46,34.46v6.65c0,19.03,15.43,34.46,34.46,34.46h247.1c21.18,0,38.35-17.17,38.35-38.35v-106.13h.04v-78.42h-147.67Z"/>
    <circle class="cls-2" cx="551.05" cy="542.14" r="39.56" transform="translate(-221.95 548.44) rotate(-45)"/>
  </g>
</svg>