<?xml version="1.0" encoding="utf-8"?>
<!-- Generator: Adobe Illustrator 27.4.1, SVG Export Plug-In . SVG Version: 6.00 Build 0)  -->
<svg version="1.1" xmlns="http://www.w3.org/2000/svg" xmlns:xlink="http://www.w3.org/1999/xlink" x="0px" y="0px"
	 viewBox="0 0 1000 1000" style="enable-background:new 0 0 1000 1000;" xml:space="preserve">
<style type="text/css">
	.st0{fill:#DAC1DC;stroke:#3A3A3A;stroke-width:32;stroke-linejoin:round;stroke-miterlimit:10;}
	.st1{fill:#3D3D3D;stroke:#FFFFFF;stroke-width:65;stroke-linejoin:round;stroke-miterlimit:10;}
</style>
<g>
</g>
<g id="Слой_2">
	<path class="st0" d="M823.5,854.2H258.7c-8.3-1.5-26.2-5.8-42.6-20.4c-24.3-21.5-28.1-49.8-28.8-57c-0.6-182.7-1.2-365.3-1.8-548
		c0.2-5.2,1.4-28.4,20.1-47.1c22.1-22.2,50.9-20.3,55.1-19.9c5.7,0,22.2,0,46,0l3.6,442.6l-3.6-442.6c106.3,0,331.1-0.1,429.1-0.2
		c1.9,0,13.3,0.3,21.8,9.6c6.8,7.5,7.5,16.1,7.6,18.6c16.8,156.3,33.6,312.5,50.4,468.8c0.1,1.5,0.3,10.4-6.6,17.4
		c-8.2,8.3-19.3,6.8-20.4,6.6c-276.7-2-479-1.5-521,0c-7.4,0.3-25.3,1.3-42.6,12.3c-26.2,16.7-35.9,43-37.4,49.2
		c1.5-6.2,11.2-32.6,37.4-49.2c17.3-11,35.1-12,42.6-12.3c42-1.6,232.5-2.1,492.8-0.2c0,26.7,0,53.3,0,80l-505.4,0.4l505.4-0.4
		c-0.1,30.6-0.2,61.2-0.3,91.8C781.3,854.2,802.4,854.2,823.5,854.2z"/>
	<path class="st1" d="M747,720.9l-477.7-0.6c-2.8,0.2-19.8,1.5-31.5,15.2c-9.8,11.5-9.6,24.2-9.4,27.5c0,0-1.5,19.3,15.1,33.9
		c12.1,10.7,26.7,12.4,30.3,12.4c157.6-0.2,315.3-0.5,472.9-0.7"/>
</g>
</svg>
