<?xml version="1.0" encoding="utf-8"?>
<!-- Generator: Adobe Illustrator 26.3.1, SVG Export Plug-In . SVG Version: 6.00 Build 0)  -->
<svg version="1.1" id="Слой_1" xmlns="http://www.w3.org/2000/svg" xmlns:xlink="http://www.w3.org/1999/xlink" x="0px" y="0px"
	 viewBox="0 0 720 720" style="enable-background:new 0 0 720 720;" xml:space="preserve">
<style type="text/css">
	.st0{font-family:'Impact';}
	.st1{font-size:30px;}
</style>
<polygon points="152.5,335.1 151.3,335.2 150,337.9 148.6,339.5 146.8,341.7 145.5,342.9 145.6,345.7 152.5,345.9 "/>
<polygon points="164.1,312.2 163,312.3 161.3,318.1 159.9,322.7 158.3,325.9 157.2,327.2 157.5,415.7 164.1,415.7 "/>
<polygon points="182.2,260.1 180.7,260.2 179.5,264.7 178.4,268.2 177.1,272.4 175,276.9 175.5,415.8 181.7,415.7 "/>
<path d="M190.5,184.2l-1.2,0.3l-0.6,3.4l0.2,50.3l-0.4,2.1L188,243l-0.6,2.6l-0.9,1.8l-0.1,2.4l0.1,165.6h7.2l0.3-167.1
	c0,0-0.1-2.1-0.1-2.3s-0.6-1-0.6-1l-0.6-1.8l-0.4-2.3l-0.5-2.4l-0.8-49.9l0.1-3.4L190.5,184.2z"/>
<polygon points="198.6,255.9 198.5,415.5 205.1,415.5 205,272.4 204.3,271 203,267.7 201.6,263.4 200.5,259.2 199.6,256 "/>
<polygon points="216.2,313.4 216.3,415.5 223.2,415.6 223,328.6 222.5,327.2 221,325.6 220.3,323.6 219.4,321.8 218.7,319.2 
	217.9,316.5 217.2,313.5 "/>
<polygon points="228.5,335.2 228.5,345.5 234.8,345.6 234.6,341.3 233.3,340.3 232.2,339.1 231.1,338 230.3,336.7 229.6,335.5 "/>
<polygon points="235.1,382.1 228.5,382.4 228.3,415.4 235,415.5 "/>
<polygon points="246.6,381.1 240.3,381.4 240.3,415.5 246.5,415.5 "/>
<polygon points="257.6,379 257.4,415.7 264,415.7 264,379 "/>
<polygon points="276,377.5 269.5,377.7 269.4,415.7 276,415.8 "/>
<polygon points="288,376.2 281.3,376.3 281.3,415.7 288.1,415.7 "/>
<polygon points="276,302.9 273,303 269.5,303.7 269.5,316.5 276,316.5 "/>
<polygon points="288,277.7 281.3,277.8 281.3,316.6 288.1,316.7 "/>
<polygon points="305.1,237.9 298.6,237.9 298.8,415.8 305.1,415.8 "/>
<polygon points="317.2,211.5 310.6,211.5 310.5,415.7 317.1,415.7 "/>
<polygon points="322.5,185.2 322.6,415.9 329.1,415.7 329.1,185.2 "/>
<polygon points="346.8,146 340.1,146 340.3,415.7 346.8,415.7 "/>
<polygon points="351.7,125 351.6,415.5 358.8,415.6 358.8,125.1 "/>
<polygon points="370.1,154.5 363.6,154.6 363.6,415.9 370.3,415.9 "/>
<polygon points="381.3,193.9 381.3,416 388.1,415.9 388.1,194 "/>
<polygon points="399.8,219.5 393.3,219.5 393.1,415.8 399.9,415.7 "/>
<polygon points="412,247.2 405.4,247.3 405.1,415.6 411.9,415.7 "/>
<polygon points="422.3,286 422.3,316.6 429,316.5 429.1,286 "/>
<polygon points="439.8,310.2 434.8,310.3 434.3,312.2 434.4,316.4 440.2,316.5 440.1,312.4 "/>
<polygon points="422.5,382.2 422.4,415.7 429.1,415.7 429,382.3 "/>
<polygon points="434.5,387.8 434.4,415.7 441,415.7 440.9,388 "/>
<polygon points="446.4,392.9 446.5,415.6 453,415.7 453,393.1 "/>
<polygon points="470.1,401.6 463.5,401.7 463.5,415.6 470.1,415.6 "/>
<polygon points="482.1,407.1 475.5,407.2 475.5,415.8 482.1,415.7 "/>
<polygon points="470.2,365.1 468.8,365.2 467.6,366.6 466,367.9 464.8,369.1 470,369.1 "/>
<polygon points="481.1,354.2 480.3,355.2 478.9,356.8 477.1,358.2 475.4,359.4 475.4,369.8 482,369.8 482,354.3 "/>
<path d="M493.8,327.6c0,0-0.8-0.1-0.8,0.1s-0.7,2.3-0.7,2.3l-0.8,2.9l-0.8,3.1l-1.1,3.8l-0.8,2.4l-1.6,2.9l-0.1,70.4l6.6,0.1V327.6z
	"/>
<polygon points="511.6,275.2 510.6,275.2 509.7,278.4 509.1,280.4 508.7,281.6 508.2,283.2 507.8,284.9 507,287.2 506.2,289.5 
	505.3,291 505.1,415.7 511.8,415.7 "/>
<path d="M520.1,199.4l-0.9,0.8l-0.6,2.2l0.1,57.2l-0.2,1.6l-0.8,1.7l-0.8,0.9l-0.6,1.9l0.2,149.8h7l-0.2-147.2l-0.3-1.6l-0.4-1.1
	c0,0-0.5-1.3-0.5-1.7s-0.6-1.4-0.6-1.4l-0.4-1.4l-0.6-58.1l0.1-2.8L520.1,199.4z"/>
<path d="M528.3,280.1v135.6l6.8,0L535,299.9c0,0-0.3-1.6-0.4-1.8s-0.4-1.9-0.4-1.9l-0.6-1.5L533,293l-0.9-3.4l-0.7-2.4l-0.4-2.4
	l-0.6-1.5l-0.4-2.2l-0.7-1L528.3,280.1z"/>
<path d="M546.5,341.2l-0.2,74.4l6.6,0.1l-0.2-62.8l-1.6-0.8l-1-1.2l-0.6-1.1l-0.6-2.1l-0.4-1.6l-0.6-2.6c0,0-0.3-1.7-0.3-1.9
	S546.5,341.2,546.5,341.2z"/>
<polygon points="557.8,355.7 557.7,371.9 564,371.8 563.9,361.2 562.5,359.8 561.1,358.5 560.2,357.2 559,356 "/>
<polygon points="569.3,367 569.4,370.5 570.1,371 573.6,371.1 573.4,369.9 572,369.1 571,368.2 570.4,367.3 "/>
<rect x="157.3" y="502.6" width="7" height="30.5"/>
<rect x="174.8" y="502.6" width="7.6" height="77.5"/>
<rect x="186.6" y="502.5" width="7.5" height="45"/>
<rect x="198.3" y="502.5" width="7.2" height="31.6"/>
<rect x="228.2" y="502.6" width="7.1" height="49"/>
<rect x="240.2" y="502.5" width="6.8" height="69"/>
<rect x="257.2" y="502.5" width="7.1" height="43.5"/>
<rect x="269" y="502.5" width="7.8" height="79.8"/>
<rect x="281.2" y="502.5" width="7" height="67.8"/>
<rect x="298.3" y="502.5" width="7.1" height="16.8"/>
<rect x="310.2" y="502.5" width="7.1" height="21.5"/>
<rect x="322.3" y="502.1" width="7" height="68"/>
<rect x="340" y="502.5" width="7" height="92"/>
<rect x="351.3" y="501.6" width="7.8" height="68.5"/>
<rect x="381" y="502.6" width="7.2" height="77.2"/>
<rect x="393.1" y="502.5" width="7.1" height="33.6"/>
<rect x="405.2" y="502.5" width="6.9" height="60"/>
<rect x="434.2" y="502.6" width="7" height="67.9"/>
<rect x="446.2" y="502.5" width="6.9" height="49.6"/>
<rect x="463.3" y="502.5" width="7" height="31.6"/>
<rect x="475.2" y="502.5" width="7.1" height="46.5"/>
<rect x="487.2" y="502.5" width="7.5" height="92.8"/>
<rect x="516.3" y="502.6" width="7.4" height="12.5"/>
<rect x="528.5" y="502.6" width="6.9" height="51.4"/>
<rect x="546" y="502.6" width="7.4" height="63.6"/>
<text transform="matrix(1 0 0 1 131.479 449.8516)"><tspan x="0" y="0" class="st0 st1">Центр непрерывного образования</tspan><tspan x="31.5" y="36" class="st0 st1">и повышение квалификации</tspan></text>
</svg>
