<?xml version="1.0" encoding="utf-8"?>
<!-- Generator: Adobe Illustrator 27.4.1, SVG Export Plug-In . SVG Version: 6.00 Build 0)  -->
<svg version="1.2" baseProfile="tiny" id="Слой_1"
	 xmlns="http://www.w3.org/2000/svg" xmlns:xlink="http://www.w3.org/1999/xlink" x="0px" y="0px" viewBox="0 0 250 250"
	 overflow="visible" xml:space="preserve">
<g id="Слой_2_00000067924613310758933360000001378946600019132071_">
	<polygon fill="#1D1D1B" points="66.12,118.35 65.42,118.42 64.65,119.75 63.82,120.59 62.77,121.63 62,122.26 62.07,123.73 
		66.12,123.8 	"/>
	<polygon fill="#1D1D1B" points="67.52,115.14 67.1,115.21 66.4,116.88 65.77,118.28 65.14,119.19 64.65,119.61 64.79,145.94 
		67.52,145.94 	"/>
	<polygon fill="#1D1D1B" points="74.57,99.63 73.8,99.7 73.1,101.03 72.55,102.08 71.92,103.34 70.73,104.66 71.01,145.94 
		74.29,145.94 	"/>
	<path fill="#1D1D1B" d="M75.41,77.08l-0.35,0.07l-0.14,1.05l0.07,14.95l-0.14,0.63l-0.14,0.77l-0.14,0.77l-0.28,0.56l-0.07,0.7
		v49.24h2.17l0.07-49.66c0,0,0-0.63-0.07-0.7c0-0.07-0.14-0.28-0.14-0.28l-0.14-0.56l-0.14-0.7l-0.14-0.7l-0.21-14.88v-0.98
		L75.41,77.08z"/>
	<polygon fill="#1D1D1B" points="76.18,98.45 76.11,145.87 79.74,145.87 79.67,103.34 79.25,102.92 78.62,101.94 77.85,100.61 
		77.23,99.35 76.81,98.45 	"/>
	<polygon fill="#1D1D1B" points="83.02,115.49 83.09,145.87 86.16,145.94 86.1,120.03 85.82,119.61 85.19,119.12 84.84,118.56 
		84.49,118 84.14,117.23 83.79,116.47 83.51,115.56 	"/>
	<polygon fill="#1D1D1B" points="84.63,119.26 84.63,122.26 88.4,122.33 88.33,121 87.49,120.73 86.86,120.38 86.23,120.03 
		85.68,119.68 85.33,119.33 	"/>
	<polygon fill="#1D1D1B" points="88.68,135.95 85.75,136.02 85.68,145.87 88.61,145.87 	"/>
	<polygon fill="#1D1D1B" points="95.66,135.04 90.22,135.11 90.22,145.87 95.52,145.87 	"/>
	<polygon fill="#1D1D1B" points="95.31,135.04 95.31,145.94 97.27,145.94 97.27,135.04 	"/>
	<polygon fill="#1D1D1B" points="102.93,134.2 98.95,134.2 98.88,145.94 102.93,145.94 	"/>
	<polygon fill="#1D1D1B" points="104.39,134.2 102.37,134.2 102.37,145.94 104.46,145.94 	"/>
	<polygon fill="#1D1D1B" points="101.74,112.34 100.41,112.41 98.88,112.62 98.88,116.4 101.74,116.47 	"/>
	<polygon fill="#1D1D1B" points="104.39,104.87 101.53,104.94 101.53,116.47 104.46,116.47 	"/>
	<polygon fill="#1D1D1B" points="111.1,93.07 107.54,93.07 107.68,145.94 111.1,145.94 	"/>
	<polygon fill="#1D1D1B" points="113.05,85.18 111.1,85.25 111.1,145.94 113.05,145.94 	"/>
	<polygon fill="#1D1D1B" points="112.7,77.35 112.77,146.01 116.62,145.94 116.62,77.35 	"/>
	<polygon fill="#1D1D1B" points="123.81,65.69 119.9,65.69 120.04,145.94 123.74,145.94 	"/>
	<polygon fill="#1D1D1B" points="123.32,55.15 123.32,145.87 125.49,145.94 125.49,55.15 	"/>
	<polygon fill="#1D1D1B" points="128.77,68.28 124.93,68.28 124.86,146.01 128.84,146.01 	"/>
	<polygon fill="#1D1D1B" points="132.19,79.94 132.12,146.01 135.68,146.01 135.68,80.01 	"/>
	<polygon fill="#1D1D1B" points="137.64,87.55 135.68,87.55 135.68,145.94 137.64,145.94 	"/>
	<polygon fill="#1D1D1B" points="141.27,95.86 137.43,95.86 137.29,145.94 141.2,145.94 	"/>
	<polygon fill="#1D1D1B" points="144.34,107.39 144.34,116.47 147.07,116.47 147.14,107.39 	"/>
	<polygon fill="#1D1D1B" points="149.44,114.58 146.23,114.58 145.95,115.14 145.95,116.4 149.65,116.4 149.65,115.21 	"/>
	<polygon fill="#1D1D1B" points="144.41,135.95 144.34,145.94 146.37,145.94 146.3,136.02 	"/>
	<polygon fill="#1D1D1B" points="146.16,137.63 146.09,145.94 149.86,145.94 149.86,137.7 	"/>
	<polygon fill="#1D1D1B" points="149.37,139.16 149.37,145.94 153.49,145.94 153.42,139.23 	"/>
	<polygon fill="#1D1D1B" points="160.48,141.75 156.56,141.75 156.56,145.94 160.41,145.94 	"/>
	<polygon fill="#1D1D1B" points="163.2,143.35 160.2,143.42 160.2,145.94 163.2,145.94 	"/>
	<polygon fill="#1D1D1B" points="160.89,126.38 160.13,126.38 159.43,126.8 158.52,127.15 157.82,127.57 160.82,127.57 	"/>
	<polygon fill="#1D1D1B" points="162.43,124.85 162.08,125.13 161.52,125.61 160.82,126.03 160.13,126.38 160.13,129.46 
		162.78,129.46 162.78,124.85 	"/>
	<path fill="#1D1D1B" d="M165.57,119.75c0,0-0.42-0.07-0.42,0.07c0,0.07-0.35,0.7-0.35,0.7l-0.42,0.84l-0.28,0.91l-0.56,1.12
		l-0.35,0.7l-0.77,0.91v20.95h3.21v-26.19L165.57,119.75L165.57,119.75z"/>
	<polygon fill="#1D1D1B" points="172.56,104.1 172,104.1 171.51,105.08 171.23,105.71 170.95,106.06 170.67,106.55 170.46,107.04 
		169.97,107.74 169.55,108.36 169.07,108.85 169,145.94 172.63,145.94 	"/>
	<path fill="#1D1D1B" d="M173.47,81.61l-0.28,0.21l-0.14,0.7l0.07,17.04l-0.07,0.49l-0.21,0.49l-0.21,0.28l-0.14,0.56l0.07,44.56
		h2.1l-0.07-43.79l-0.07-0.49l-0.14-0.35c0,0-0.14-0.42-0.14-0.49c0-0.07-0.21-0.42-0.21-0.42l-0.14-0.42l-0.21-17.25l0.07-0.84
		L173.47,81.61z"/>
	<path fill="#1D1D1B" d="M174.16,105.64v40.3h3.7v-34.43c0,0-0.14-0.49-0.21-0.49s-0.21-0.56-0.21-0.56l-0.28-0.42l-0.42-0.49
		l-0.49-0.98l-0.35-0.7l-0.21-0.7l-0.28-0.42l-0.21-0.7l-0.35-0.28L174.16,105.64z"/>
	<path fill="#1D1D1B" d="M181.29,123.8l-0.07,22.14h2.79l-0.07-18.65l-0.7-0.21l-0.42-0.35l-0.28-0.35l-0.21-0.63l-0.21-0.49
		l-0.28-0.77c0,0-0.14-0.49-0.14-0.56S181.29,123.8,181.29,123.8z"/>
	<polygon fill="#1D1D1B" points="183.45,127.22 183.45,131.34 185.83,131.34 185.76,128.62 185.27,128.27 184.71,127.92 
		184.43,127.57 183.94,127.29 	"/>
	<polygon fill="#1D1D1B" points="185.2,128.48 185.2,129.53 185.55,129.67 187.22,129.67 187.08,129.32 186.46,129.04 
		185.97,128.76 185.69,128.55 	"/>
	<rect x="64.79" y="145.38" fill="#1D1D1B" width="2.72" height="31.29"/>
	<rect x="71.01" y="145.38" fill="#1D1D1B" width="3.49" height="45.26"/>
	<rect x="74.22" y="145.87" fill="#1D1D1B" width="2.23" height="35.06"/>
	<rect x="76.25" y="145.38" fill="#1D1D1B" width="3.49" height="31.64"/>
	<rect x="83.09" y="145.38" fill="#1D1D1B" width="5.52" height="36.81"/>
	<rect x="90.15" y="145.38" fill="#1D1D1B" width="2.93" height="42.67"/>
	<rect x="92.94" y="145.17" fill="#1D1D1B" width="4.33" height="35.34"/>
	<rect x="98.88" y="145.38" fill="#1D1D1B" width="2.17" height="45.89"/>
	<rect x="100.9" y="145.24" fill="#1D1D1B" width="3.56" height="42.46"/>
	<rect x="107.68" y="145.24" fill="#1D1D1B" width="3.56" height="27.31"/>
	<rect x="110.96" y="145.38" fill="#1D1D1B" width="2.1" height="28.56"/>
	<rect x="112.63" y="145.38" fill="#1D1D1B" width="3.98" height="42.32"/>
	<rect x="120.04" y="145.38" fill="#1D1D1B" width="3.77" height="49.52"/>
	<rect x="123.25" y="145.38" fill="#1D1D1B" width="5.66" height="42.32"/>
	<rect x="132.12" y="145.45" fill="#1D1D1B" width="3.84" height="45.12"/>
	<rect x="135.61" y="145.38" fill="#1D1D1B" width="2.1" height="32.2"/>
	<rect x="137.5" y="145.38" fill="#1D1D1B" width="3.77" height="40.02"/>
	<rect x="144.34" y="145.45" fill="#1D1D1B" width="7.4" height="42.32"/>
	<rect x="151.47" y="145.45" fill="#1D1D1B" width="2.03" height="36.88"/>
	<rect x="156.56" y="145.38" fill="#1D1D1B" width="3.63" height="31.57"/>
	<rect x="160.06" y="145.38" fill="#1D1D1B" width="2.1" height="36.04"/>
	<rect x="161.87" y="145.45" fill="#1D1D1B" width="3.77" height="49.66"/>
	<rect x="169" y="145.45" fill="#1D1D1B" width="5.52" height="25.84"/>
	<rect x="174.37" y="145.52" fill="#1D1D1B" width="3.56" height="37.36"/>
	<rect x="181.22" y="145.38" fill="#1D1D1B" width="2.79" height="41.21"/>
</g>
</svg>
